{"glyphs":{"0":{"ha":860,"x_min":0,"x_max":0,"o":"m 428 -15 b 74 403 208 -15 74 144 l 74 494 b 429 914 74 753 210 914 b 786 496 650 914 786 753 l 786 406 b 428 -15 786 147 649 -15 m 429 74 b 681 401 588 74 681 194 l 681 496 b 429 826 681 703 586 826 b 179 499 272 826 179 704 l 179 403 b 429 74 179 196 274 74 "},"1":{"ha":479,"x_min":0,"x_max":0,"o":"m 274 -6 b 231 43 244 -6 231 11 l 231 746 b 129 696 208 715 172 696 b 50 724 96 696 68 707 b 28 776 36 738 28 756 b 58 829 28 811 54 832 b 138 796 75 810 101 796 b 250 904 197 796 246 843 l 288 904 b 333 856 318 904 333 888 l 333 43 b 288 -6 333 11 318 -6 l 274 -6 "},"2":{"ha":714,"x_min":0,"x_max":0,"o":"m 124 0 b 56 60 76 0 56 17 l 56 94 b 331 436 56 283 192 365 b 557 657 453 500 557 547 b 358 824 557 756 485 824 b 128 639 218 824 153 732 b 58 692 128 633 58 635 b 129 828 58 726 82 783 b 365 915 181 876 260 915 b 660 657 551 915 660 813 b 401 371 660 503 540 439 b 158 121 275 310 167 249 l 156 93 l 626 93 b 676 51 661 93 676 78 l 676 43 b 626 0 676 15 661 0 l 124 0 "},"3":{"ha":726,"x_min":0,"x_max":0,"o":"m 339 -15 b 88 69 224 -15 138 24 b 22 182 43 108 22 151 b 83 238 22 236 82 242 b 339 72 115 138 210 72 b 564 251 476 72 564 142 b 339 431 564 367 483 431 l 261 431 b 213 468 226 431 213 446 l 213 476 b 258 515 213 504 229 515 l 350 515 b 540 671 471 515 540 574 b 338 829 540 767 464 829 b 110 688 225 829 144 767 b 49 742 107 682 49 694 b 101 831 49 767 69 801 b 340 914 153 876 236 914 b 643 676 532 914 643 824 b 483 481 643 575 583 507 b 668 249 597 447 668 367 b 339 -15 668 86 543 -15 "},"4":{"ha":790,"x_min":0,"x_max":0,"o":"m 543 -6 b 500 43 517 -6 500 15 l 500 256 l 114 256 b 47 306 72 256 47 276 l 47 331 b 79 403 47 354 58 374 l 429 854 b 521 906 457 893 471 906 b 600 838 579 906 600 885 l 600 343 l 714 343 b 761 303 746 343 761 331 l 761 296 b 714 256 761 268 746 256 l 600 256 l 600 43 b 556 -6 600 11 586 -6 l 543 -6 m 504 343 l 504 815 l 140 343 "},"5":{"ha":724,"x_min":0,"x_max":0,"o":"m 347 -15 b 100 67 242 -15 154 19 b 42 160 64 96 42 132 b 96 213 42 199 92 218 b 347 74 139 131 228 74 b 578 275 488 74 578 150 b 360 471 578 397 492 471 b 143 406 269 471 200 449 b 78 474 99 410 78 432 l 78 838 b 135 899 78 874 100 899 l 586 899 b 635 856 618 899 635 885 l 635 849 b 586 807 635 821 618 807 l 174 807 l 174 508 b 372 557 232 540 300 557 b 679 278 554 557 679 450 b 347 -15 679 94 549 -15 "},"6":{"ha":792,"x_min":0,"x_max":0,"o":"m 421 -15 b 74 396 203 -15 74 139 l 74 490 b 431 914 74 758 211 914 b 653 843 533 914 608 883 b 700 760 685 815 700 783 b 650 706 700 722 654 704 b 433 826 610 772 542 826 b 179 550 286 826 193 729 b 176 436 176 524 176 497 b 442 558 229 503 324 558 b 738 290 619 558 738 453 l 738 285 b 421 -15 738 111 608 -15 m 417 69 b 636 276 546 69 636 151 l 636 283 b 422 478 636 407 558 478 b 179 350 318 478 224 421 b 181 326 179 342 181 335 b 417 69 197 160 283 69 "},"7":{"ha":700,"x_min":0,"x_max":0,"o":"m 213 -6 b 156 33 178 -6 150 26 l 556 801 l 81 801 b 33 846 50 801 33 818 l 33 854 b 81 899 33 882 50 899 l 606 899 b 671 850 660 899 671 876 l 671 840 b 642 764 671 819 657 793 l 267 32 b 213 -6 253 3 232 -6 "},"8":{"ha":785,"x_min":0,"x_max":0,"o":"m 392 -15 b 54 239 182 -15 54 86 b 250 465 54 343 122 431 b 82 669 136 496 82 572 b 393 914 82 813 204 914 b 700 671 583 914 700 818 b 533 465 700 575 646 499 b 728 239 664 433 728 346 b 392 -15 728 90 596 -15 m 393 503 b 599 664 525 503 599 563 b 392 832 599 764 525 832 b 183 664 256 832 183 767 b 393 503 183 567 261 503 m 393 68 b 625 246 546 68 625 136 b 392 425 625 353 539 425 b 158 246 243 425 158 354 b 393 68 158 142 244 68 "},"9":{"ha":792,"x_min":0,"x_max":0,"o":"m 357 -15 b 133 56 256 -15 178 14 b 83 140 99 85 83 117 b 131 194 83 179 128 199 b 356 72 171 125 244 72 b 614 342 511 72 599 158 b 615 451 617 369 617 414 b 350 329 565 386 469 329 b 54 597 171 329 54 433 l 54 604 b 371 914 54 778 186 914 b 718 504 581 914 718 769 l 718 407 b 357 -15 718 129 589 -15 m 369 410 b 613 539 475 410 568 467 l 613 563 b 374 829 596 735 511 829 b 156 613 246 829 156 738 l 156 606 b 369 410 156 481 235 410 "},"A":{"ha":833,"x_min":0,"x_max":0,"o":"m 71 -4 b 19 26 40 -3 17 19 l 342 871 b 417 906 350 893 368 906 b 492 871 465 906 483 893 l 815 26 b 761 -4 818 18 793 -3 b 696 44 735 -7 710 6 l 601 289 l 229 289 l 133 43 b 71 -4 121 3 94 -7 m 574 375 l 415 797 l 256 375 "},"Á":{"ha":833,"x_min":0,"x_max":0,"o":"m 335 976 b 324 982 325 976 324 978 b 543 1196 324 996 461 1196 b 588 1153 568 1196 588 1178 b 335 976 588 1074 350 976 m 71 -4 b 19 26 40 -3 17 19 l 342 871 b 417 906 350 893 368 906 b 492 871 465 906 483 893 l 815 26 b 761 -4 818 18 793 -3 b 696 44 735 -7 710 6 l 601 289 l 229 289 l 133 43 b 71 -4 121 3 94 -7 m 574 375 l 415 797 l 256 375 "},"Ă":{"ha":833,"x_min":0,"x_max":0,"o":"m 417 967 b 231 1108 294 967 231 1044 b 285 1163 231 1136 244 1163 b 417 1051 303 1096 343 1051 b 549 1163 492 1051 531 1096 b 604 1108 590 1163 604 1136 b 417 967 604 1047 544 967 m 71 -4 b 19 26 40 -3 17 19 l 342 871 b 417 906 350 893 368 906 b 492 871 465 906 483 893 l 815 26 b 761 -4 818 18 793 -3 b 696 44 735 -7 710 6 l 601 289 l 229 289 l 133 43 b 71 -4 121 3 94 -7 m 574 375 l 415 797 l 256 375 "},"Â":{"ha":833,"x_min":0,"x_max":0,"o":"m 264 967 b 225 1001 242 967 225 981 b 417 1201 225 1058 378 1188 b 608 1001 456 1188 608 1058 b 571 967 608 981 593 967 b 417 1119 543 967 508 990 b 264 967 325 990 290 967 m 71 -4 b 19 26 40 -3 17 19 l 342 871 b 417 906 350 893 368 906 b 492 871 465 906 483 893 l 815 26 b 761 -4 818 18 793 -3 b 696 44 735 -7 710 6 l 601 289 l 229 289 l 133 43 b 71 -4 121 3 94 -7 m 574 375 l 415 797 l 256 375 "},"Ä":{"ha":833,"x_min":0,"x_max":0,"o":"m 292 982 b 232 1044 253 982 232 1004 b 292 1108 232 1088 253 1108 b 351 1046 331 1108 351 1088 b 292 982 351 1004 331 982 m 542 982 b 482 1044 503 982 482 1004 b 542 1108 482 1088 503 1108 b 601 1046 581 1108 601 1088 b 542 982 601 1004 581 982 m 71 -4 b 19 26 40 -3 17 19 l 342 871 b 417 906 350 893 368 906 b 492 871 465 906 483 893 l 815 26 b 761 -4 818 18 793 -3 b 696 44 735 -7 710 6 l 601 289 l 229 289 l 133 43 b 71 -4 121 3 94 -7 m 574 375 l 415 797 l 256 375 "},"À":{"ha":833,"x_min":0,"x_max":0,"o":"m 493 975 b 238 1154 478 975 238 1075 b 282 1197 238 1179 257 1197 b 504 982 364 1197 504 994 b 493 975 504 978 503 975 m 71 -4 b 19 26 40 -3 17 19 l 342 871 b 417 906 350 893 368 906 b 492 871 465 906 483 893 l 815 26 b 761 -4 818 18 793 -3 b 696 44 735 -7 710 6 l 601 289 l 229 289 l 133 43 b 71 -4 121 3 94 -7 m 574 375 l 415 797 l 256 375 "},"Ā":{"ha":833,"x_min":0,"x_max":0,"o":"m 269 1001 b 214 1043 233 1001 214 1015 l 214 1050 b 269 1090 214 1076 235 1090 l 564 1090 b 618 1050 599 1090 618 1076 l 618 1043 b 564 1001 618 1015 599 1001 l 269 1001 m 71 -4 b 19 26 40 -3 17 19 l 342 871 b 417 906 350 893 368 906 b 492 871 465 906 483 893 l 815 26 b 761 -4 818 18 793 -3 b 696 44 735 -7 710 6 l 601 289 l 229 289 l 133 43 b 71 -4 121 3 94 -7 m 574 375 l 415 797 l 256 375 "},"Ą":{"ha":833,"x_min":0,"x_max":0,"o":"m 731 -271 b 604 -158 656 -271 604 -228 b 721 6 604 -101 640 -43 b 696 44 711 13 701 25 l 600 289 l 229 289 l 133 43 b 78 -6 121 7 100 -4 b 19 26 44 -7 17 18 l 342 871 b 417 906 350 893 368 906 b 492 871 465 906 483 893 l 815 26 b 796 6 815 21 808 13 b 686 -137 715 -53 686 -97 b 738 -193 686 -171 708 -193 b 792 -165 761 -193 781 -183 b 831 -210 810 -165 831 -181 b 731 -271 831 -246 789 -271 m 574 375 l 415 797 l 256 375 "},"Å":{"ha":833,"x_min":0,"x_max":0,"o":"m 71 -4 b 19 26 40 -3 17 19 l 342 871 b 367 897 346 882 353 892 b 258 1039 300 914 258 968 b 418 1189 258 1128 325 1189 b 576 1039 511 1189 576 1128 b 465 897 576 968 531 914 b 492 871 479 892 486 882 l 815 26 b 761 -4 818 18 793 -3 b 696 44 735 -7 710 6 l 601 289 l 229 289 l 133 43 b 71 -4 121 3 94 -7 m 417 953 b 507 1039 468 953 507 989 b 417 1128 507 1090 467 1128 b 325 1039 365 1128 325 1090 b 417 953 325 990 365 953 m 574 375 l 415 797 l 256 375 "},"Ǻ":{"ha":833,"x_min":0,"x_max":0,"o":"m 71 -4 b 19 26 40 -3 17 19 l 342 871 b 369 899 346 883 354 893 b 258 1042 303 914 258 968 b 392 1188 258 1122 314 1179 l 407 1192 b 528 1339 428 1225 476 1293 b 614 1390 558 1369 589 1390 b 658 1350 639 1390 658 1374 b 590 1260 658 1322 631 1289 b 465 1185 550 1229 501 1203 b 574 1042 531 1168 574 1114 b 463 900 574 971 528 917 b 492 871 478 893 486 883 l 815 26 b 761 -4 818 18 793 -3 b 696 44 735 -7 710 6 l 601 289 l 229 289 l 133 43 b 71 -4 121 3 94 -7 m 415 954 b 504 1042 465 954 504 990 b 415 1131 504 1093 465 1131 b 326 1042 365 1131 326 1093 b 415 954 326 992 365 954 m 574 375 l 415 797 l 256 375 "},"Ã":{"ha":833,"x_min":0,"x_max":0,"o":"m 251 990 b 221 1003 239 990 229 994 b 217 1036 218 1013 217 1024 b 329 1157 224 1099 258 1157 b 432 1108 372 1157 403 1133 b 511 1054 461 1083 485 1067 b 590 1149 553 1072 547 1149 b 621 1136 603 1149 613 1144 b 625 1099 625 1126 625 1113 b 514 983 618 1038 582 983 b 410 1029 471 983 440 1004 b 332 1083 383 1051 361 1071 b 251 990 288 1065 296 990 m 71 -4 b 19 26 40 -3 17 19 l 342 871 b 417 906 350 893 368 906 b 492 871 465 906 483 893 l 815 26 b 761 -4 818 18 793 -3 b 696 44 735 -7 710 6 l 601 289 l 229 289 l 133 43 b 71 -4 121 3 94 -7 m 574 375 l 415 797 l 256 375 "},"Æ":{"ha":1157,"x_min":0,"x_max":0,"o":"m 75 -6 b 18 26 43 -4 17 18 l 336 856 b 403 899 346 881 364 899 l 1047 899 b 1096 856 1079 899 1096 883 l 1096 849 b 1047 806 1096 819 1079 806 l 511 806 l 628 506 l 949 506 b 999 464 982 506 999 492 l 999 457 b 949 414 999 429 981 414 l 663 414 l 786 93 l 1061 93 b 1110 51 1094 93 1110 79 l 1110 44 b 1061 0 1110 15 1094 0 l 767 0 b 690 54 721 0 704 17 l 601 289 l 228 289 l 133 43 b 75 -6 121 6 99 -6 m 574 375 l 415 797 l 256 375 "},"Ǽ":{"ha":1157,"x_min":0,"x_max":0,"o":"m 576 976 b 565 982 567 976 565 978 b 785 1196 565 996 703 1196 b 829 1153 810 1196 829 1178 b 576 976 829 1074 592 976 m 75 -6 b 18 26 43 -4 17 18 l 336 856 b 403 899 346 881 364 899 l 1047 899 b 1096 856 1079 899 1096 883 l 1096 849 b 1047 806 1096 819 1079 806 l 511 806 l 628 506 l 949 506 b 999 464 982 506 999 492 l 999 457 b 949 414 999 429 981 414 l 663 414 l 786 93 l 1061 93 b 1110 51 1094 93 1110 79 l 1110 44 b 1061 0 1110 15 1094 0 l 767 0 b 690 54 721 0 704 17 l 601 289 l 228 289 l 133 43 b 75 -6 121 6 99 -6 m 574 375 l 415 797 l 256 375 "},"B":{"ha":826,"x_min":0,"x_max":0,"o":"m 158 0 b 101 61 124 0 101 25 l 101 838 b 158 899 101 874 124 899 l 442 899 b 733 668 632 899 733 817 b 569 471 733 567 676 500 b 772 249 707 443 772 361 b 444 0 772 81 665 0 l 158 0 m 435 497 b 625 657 554 497 625 561 b 431 813 625 760 561 813 l 206 813 l 206 497 m 440 86 b 664 256 596 86 664 135 b 442 418 664 365 590 418 l 206 418 l 206 86 "},"":{"ha":826,"x_min":0,"x_max":0,"o":"m 158 0 l 444 0 b 772 249 665 0 772 81 b 569 471 772 361 707 443 b 733 668 676 500 733 567 b 442 899 733 817 632 899 l 158 899 b 101 838 124 899 101 874 l 101 61 b 158 0 101 25 124 0 m 206 497 l 206 813 l 431 813 b 625 657 561 813 625 760 b 435 497 625 561 554 497 m 206 86 l 206 418 l 442 418 b 664 256 590 418 664 365 b 440 86 664 135 596 86 "},"C":{"ha":892,"x_min":0,"x_max":0,"o":"m 64 447 b 504 914 64 721 242 914 b 775 821 632 914 722 869 b 835 722 814 788 835 747 b 769 663 835 669 774 658 b 503 822 724 758 621 822 b 172 449 307 822 172 671 b 506 76 172 229 308 76 b 778 256 649 76 744 157 b 847 197 781 260 847 250 b 779 81 847 169 825 122 b 501 -15 725 31 629 -15 b 64 447 239 -15 64 175 "},"Ć":{"ha":892,"x_min":0,"x_max":0,"o":"m 419 976 b 408 982 410 976 408 978 b 628 1196 408 996 546 1196 b 672 1153 653 1196 672 1178 b 419 976 672 1074 435 976 m 64 447 b 504 914 64 721 242 914 b 775 821 632 914 722 869 b 835 722 814 788 835 747 b 769 663 835 669 774 658 b 503 822 724 758 621 822 b 172 449 307 822 172 671 b 506 76 172 229 308 76 b 778 256 649 76 744 157 b 847 197 781 260 847 250 b 779 81 847 169 825 122 b 501 -15 725 31 629 -15 b 64 447 239 -15 64 175 "},"Č":{"ha":892,"x_min":0,"x_max":0,"o":"m 501 960 b 310 1160 463 974 310 1103 b 347 1194 310 1179 325 1194 b 501 1042 374 1194 410 1172 b 654 1194 593 1172 628 1194 b 693 1160 676 1194 693 1179 b 501 960 693 1103 540 974 m 64 447 b 504 914 64 721 242 914 b 775 821 632 914 722 869 b 835 722 814 788 835 747 b 769 663 835 669 774 658 b 503 822 724 758 621 822 b 172 449 307 822 172 671 b 506 76 172 229 308 76 b 778 256 649 76 744 157 b 847 197 781 260 847 250 b 779 81 847 169 825 122 b 501 -15 725 31 629 -15 b 64 447 239 -15 64 175 "},"Ç":{"ha":892,"x_min":0,"x_max":0,"o":"m 440 -306 b 304 -212 357 -306 304 -249 b 339 -168 304 -185 317 -171 b 428 -221 351 -185 379 -221 b 513 -149 472 -221 513 -204 b 379 0 513 -90 436 -22 b 64 447 186 49 64 218 b 504 914 64 721 242 914 b 775 821 632 914 722 869 b 835 722 814 788 835 747 b 769 663 835 669 774 658 b 503 822 724 758 621 822 b 172 449 307 822 172 671 b 506 76 172 229 308 76 b 778 256 649 76 744 157 b 847 197 781 260 847 250 b 779 82 847 169 825 122 b 536 -12 732 35 647 -7 b 496 -14 524 -14 510 -14 b 594 -174 546 -47 594 -106 b 440 -306 594 -269 514 -306 "},"Ĉ":{"ha":892,"x_min":0,"x_max":0,"o":"m 349 967 b 310 1001 326 967 310 981 b 501 1201 310 1058 463 1188 b 693 1001 540 1188 693 1058 b 656 967 693 981 678 967 b 501 1119 628 967 593 990 b 349 967 410 990 375 967 m 64 447 b 504 914 64 721 242 914 b 775 821 632 914 722 869 b 835 722 814 788 835 747 b 769 663 835 669 774 658 b 503 822 724 758 621 822 b 172 449 307 822 172 671 b 506 76 172 229 308 76 b 778 256 649 76 744 157 b 847 197 781 260 847 250 b 779 81 847 169 825 122 b 501 -15 725 31 629 -15 b 64 447 239 -15 64 175 "},"Ċ":{"ha":892,"x_min":0,"x_max":0,"o":"m 501 982 b 438 1046 461 982 438 1004 b 503 1110 438 1088 461 1110 b 565 1046 542 1110 565 1088 b 501 982 565 1004 542 982 m 64 447 b 504 914 64 721 242 914 b 775 821 632 914 722 869 b 835 722 814 788 835 747 b 769 663 835 669 774 658 b 503 822 724 758 621 822 b 172 449 307 822 172 671 b 506 76 172 229 308 76 b 778 256 649 76 744 157 b 847 197 781 260 847 250 b 779 81 847 169 825 122 b 501 -15 725 31 629 -15 b 64 447 239 -15 64 175 "},"D":{"ha":911,"x_min":0,"x_max":0,"o":"m 101 838 b 158 899 101 874 126 899 l 371 899 b 849 451 671 899 849 731 b 363 0 849 171 665 0 l 161 0 b 101 60 126 0 101 26 m 367 90 b 740 450 604 90 740 221 b 368 808 740 676 603 808 l 206 808 l 206 90 l 367 90 "},"Ð":{"ha":972,"x_min":0,"x_max":0,"o":"m 214 0 b 154 60 179 0 154 26 l 154 408 l 65 408 b 25 444 35 408 25 422 l 25 456 b 65 492 25 478 36 492 l 154 492 l 154 838 b 213 899 154 874 179 899 l 428 899 b 910 451 726 899 910 729 b 419 0 910 172 721 0 l 214 0 m 428 92 b 803 450 667 92 803 221 b 431 807 803 675 667 807 l 257 807 l 257 492 l 529 492 b 571 456 558 492 571 478 l 571 444 b 529 408 571 422 558 408 l 257 408 l 257 92 "},"Ď":{"ha":911,"x_min":0,"x_max":0,"o":"m 389 960 b 197 1160 350 974 197 1103 b 235 1194 197 1179 213 1194 b 389 1042 261 1194 297 1172 b 542 1194 481 1172 515 1194 b 581 1160 564 1194 581 1179 b 389 960 581 1103 428 974 m 101 838 b 158 899 101 874 126 899 l 371 899 b 849 451 671 899 849 731 b 363 0 849 171 665 0 l 161 0 b 101 60 126 0 101 26 m 367 90 b 740 450 604 90 740 221 b 368 808 740 676 603 808 l 206 808 l 206 90 l 367 90 "},"Đ":{"ha":972,"x_min":0,"x_max":0,"o":"m 214 0 b 154 60 179 0 154 26 l 154 408 l 65 408 b 25 444 35 408 25 422 l 25 456 b 65 492 25 478 36 492 l 154 492 l 154 838 b 213 899 154 874 179 899 l 428 899 b 910 451 726 899 910 729 b 419 0 910 172 721 0 l 214 0 m 428 92 b 803 450 667 92 803 221 b 431 807 803 675 667 807 l 257 807 l 257 492 l 529 492 b 571 456 558 492 571 478 l 571 444 b 529 408 571 422 558 408 l 257 408 l 257 92 "},"E":{"ha":781,"x_min":0,"x_max":0,"o":"m 158 0 b 101 60 124 0 101 24 l 101 838 b 158 899 101 874 124 899 l 675 899 b 724 856 707 899 724 883 l 724 849 b 675 806 724 819 707 806 l 206 806 l 206 506 l 565 506 b 615 464 599 506 615 490 l 615 458 b 565 415 615 429 599 415 l 206 415 l 206 93 l 686 93 b 735 51 718 93 735 79 l 735 44 b 686 0 735 15 718 0 l 158 0 "},"":{"ha":781,"x_min":0,"x_max":0,"o":"m 158 0 l 686 0 b 735 44 718 0 735 15 l 735 51 b 686 93 735 79 718 93 l 206 93 l 206 415 l 565 415 b 615 458 599 415 615 429 l 615 464 b 565 506 615 490 599 506 l 206 506 l 206 806 l 675 806 b 724 849 707 806 724 819 l 724 856 b 675 899 724 883 707 899 l 158 899 b 101 838 124 899 101 874 l 101 60 b 158 0 101 24 124 0 "},"É":{"ha":781,"x_min":0,"x_max":0,"o":"m 336 976 b 325 982 326 976 325 978 b 544 1196 325 996 463 1196 b 589 1153 569 1196 589 1178 b 336 976 589 1074 351 976 m 158 0 b 101 60 124 0 101 24 l 101 838 b 158 899 101 874 124 899 l 675 899 b 724 856 707 899 724 883 l 724 849 b 675 806 724 819 707 806 l 206 806 l 206 506 l 565 506 b 615 464 599 506 615 490 l 615 458 b 565 415 615 429 599 415 l 206 415 l 206 93 l 686 93 b 735 51 718 93 735 79 l 735 44 b 686 0 735 15 718 0 l 158 0 "},"Ĕ":{"ha":781,"x_min":0,"x_max":0,"o":"m 418 967 b 232 1108 296 967 232 1044 b 286 1163 232 1136 246 1163 b 418 1051 304 1096 344 1051 b 550 1163 493 1051 532 1096 b 606 1108 592 1163 606 1136 b 418 967 606 1047 546 967 m 158 0 b 101 60 124 0 101 24 l 101 838 b 158 899 101 874 124 899 l 675 899 b 724 856 707 899 724 883 l 724 849 b 675 806 724 819 707 806 l 206 806 l 206 506 l 565 506 b 615 464 599 506 615 490 l 615 458 b 565 415 615 429 599 415 l 206 415 l 206 93 l 686 93 b 735 51 718 93 735 79 l 735 44 b 686 0 735 15 718 0 l 158 0 "},"Ě":{"ha":781,"x_min":0,"x_max":0,"o":"m 418 960 b 226 1160 379 974 226 1103 b 264 1194 226 1179 242 1194 b 418 1042 290 1194 326 1172 b 571 1194 510 1172 544 1194 b 610 1160 593 1194 610 1179 b 418 960 610 1103 457 974 m 158 0 b 101 60 124 0 101 24 l 101 838 b 158 899 101 874 124 899 l 675 899 b 724 856 707 899 724 883 l 724 849 b 675 806 724 819 707 806 l 206 806 l 206 506 l 565 506 b 615 464 599 506 615 490 l 615 458 b 565 415 615 429 599 415 l 206 415 l 206 93 l 686 93 b 735 51 718 93 735 79 l 735 44 b 686 0 735 15 718 0 l 158 0 "},"Ê":{"ha":781,"x_min":0,"x_max":0,"o":"m 265 967 b 226 1001 243 967 226 981 b 418 1201 226 1058 379 1188 b 610 1001 457 1188 610 1058 b 572 967 610 981 594 967 b 418 1119 544 967 510 990 b 265 967 326 990 292 967 m 158 0 b 101 60 124 0 101 24 l 101 838 b 158 899 101 874 124 899 l 675 899 b 724 856 707 899 724 883 l 724 849 b 675 806 724 819 707 806 l 206 806 l 206 506 l 565 506 b 615 464 599 506 615 490 l 615 458 b 565 415 615 429 599 415 l 206 415 l 206 93 l 686 93 b 735 51 718 93 735 79 l 735 44 b 686 0 735 15 718 0 l 158 0 "},"Ë":{"ha":781,"x_min":0,"x_max":0,"o":"m 293 982 b 233 1044 254 982 233 1004 b 293 1108 233 1088 254 1108 b 353 1046 332 1108 353 1088 b 293 982 353 1004 332 982 m 543 982 b 483 1044 504 982 483 1004 b 543 1108 483 1088 504 1108 b 603 1046 582 1108 603 1088 b 543 982 603 1004 582 982 m 158 0 b 101 60 124 0 101 24 l 101 838 b 158 899 101 874 124 899 l 675 899 b 724 856 707 899 724 883 l 724 849 b 675 806 724 819 707 806 l 206 806 l 206 506 l 565 506 b 615 464 599 506 615 490 l 615 458 b 565 415 615 429 599 415 l 206 415 l 206 93 l 686 93 b 735 51 718 93 735 79 l 735 44 b 686 0 735 15 718 0 l 158 0 "},"Ė":{"ha":781,"x_min":0,"x_max":0,"o":"m 418 982 b 354 1046 378 982 354 1004 b 419 1110 354 1088 378 1110 b 482 1046 458 1110 482 1088 b 418 982 482 1004 458 982 m 158 0 b 101 60 124 0 101 24 l 101 838 b 158 899 101 874 124 899 l 675 899 b 724 856 707 899 724 883 l 724 849 b 675 806 724 819 707 806 l 206 806 l 206 506 l 565 506 b 615 464 599 506 615 490 l 615 458 b 565 415 615 429 599 415 l 206 415 l 206 93 l 686 93 b 735 51 718 93 735 79 l 735 44 b 686 0 735 15 718 0 l 158 0 "},"È":{"ha":781,"x_min":0,"x_max":0,"o":"m 494 975 b 239 1154 479 975 239 1075 b 283 1197 239 1179 258 1197 b 506 982 365 1197 506 994 b 494 975 506 978 504 975 m 158 0 b 101 60 124 0 101 24 l 101 838 b 158 899 101 874 124 899 l 675 899 b 724 856 707 899 724 883 l 724 849 b 675 806 724 819 707 806 l 206 806 l 206 506 l 565 506 b 615 464 599 506 615 490 l 615 458 b 565 415 615 429 599 415 l 206 415 l 206 93 l 686 93 b 735 51 718 93 735 79 l 735 44 b 686 0 735 15 718 0 l 158 0 "},"Ē":{"ha":781,"x_min":0,"x_max":0,"o":"m 271 1001 b 215 1043 235 1001 215 1015 l 215 1050 b 271 1090 215 1076 236 1090 l 565 1090 b 619 1050 600 1090 619 1076 l 619 1043 b 565 1001 619 1015 600 1001 l 271 1001 m 158 0 b 101 60 124 0 101 24 l 101 838 b 158 899 101 874 124 899 l 675 899 b 724 856 707 899 724 883 l 724 849 b 675 806 724 819 707 806 l 206 806 l 206 506 l 565 506 b 615 464 599 506 615 490 l 615 458 b 565 415 615 429 599 415 l 206 415 l 206 93 l 686 93 b 735 51 718 93 735 79 l 735 44 b 686 0 735 15 718 0 l 158 0 "},"Ę":{"ha":781,"x_min":0,"x_max":0,"o":"m 646 -272 b 519 -158 571 -272 519 -228 b 629 0 519 -103 554 -47 l 158 0 b 101 60 124 0 101 24 l 101 838 b 158 899 101 874 124 899 l 675 899 b 724 856 707 899 724 883 l 724 849 b 675 806 724 819 707 806 l 206 806 l 206 506 l 565 506 b 615 464 599 506 615 490 l 615 458 b 565 415 615 429 599 415 l 206 415 l 206 93 l 686 93 b 735 51 718 93 735 79 l 735 44 b 713 6 735 25 726 11 b 601 -137 631 -54 601 -99 b 653 -193 601 -171 622 -193 b 707 -165 676 -193 694 -183 b 746 -210 725 -167 746 -182 b 646 -272 746 -246 703 -272 "},"F":{"ha":725,"x_min":0,"x_max":0,"o":"m 101 838 b 158 899 101 874 124 899 l 646 899 b 694 857 678 899 694 883 l 694 849 b 646 806 694 819 678 806 l 206 806 l 206 474 l 531 474 b 579 432 564 474 579 460 l 579 425 b 531 383 579 396 564 383 l 207 383 l 207 43 b 161 -4 207 13 190 -4 l 146 -4 b 101 49 117 -4 101 14 "},"G":{"ha":956,"x_min":0,"x_max":0,"o":"m 815 456 b 875 390 854 456 876 431 l 875 6 b 842 -4 875 3 861 -4 b 786 78 811 -4 788 10 b 785 158 786 104 785 131 b 476 -15 736 53 625 -15 b 64 447 224 -15 64 181 b 506 914 64 719 242 914 b 772 825 629 914 719 871 b 835 728 814 790 835 751 b 771 671 835 674 776 667 b 504 824 725 761 625 824 b 172 447 307 824 172 671 b 496 72 172 228 293 72 b 783 308 653 72 768 169 l 783 368 l 546 368 b 492 408 510 368 492 381 l 492 415 b 546 456 492 443 510 456 l 815 456 "},"Ğ":{"ha":956,"x_min":0,"x_max":0,"o":"m 506 967 b 319 1108 383 967 319 1044 b 374 1163 319 1136 333 1163 b 506 1051 392 1096 432 1051 b 638 1163 581 1051 619 1096 b 693 1108 679 1163 693 1136 b 506 967 693 1047 633 967 m 815 456 b 875 390 854 456 876 431 l 875 6 b 842 -4 875 3 861 -4 b 786 78 811 -4 788 10 b 785 158 786 104 785 131 b 476 -15 736 53 625 -15 b 64 447 224 -15 64 181 b 506 914 64 719 242 914 b 772 825 629 914 719 871 b 835 728 814 790 835 751 b 771 671 835 674 776 667 b 504 824 725 761 625 824 b 172 447 307 824 172 671 b 496 72 172 228 293 72 b 783 308 653 72 768 169 l 783 368 l 546 368 b 492 408 510 368 492 381 l 492 415 b 546 456 492 443 510 456 l 815 456 "},"Ĝ":{"ha":956,"x_min":0,"x_max":0,"o":"m 353 967 b 314 1001 331 967 314 981 b 506 1201 314 1058 467 1188 b 697 1001 544 1188 697 1058 b 660 967 697 981 682 967 b 506 1119 632 967 597 990 b 353 967 414 990 379 967 m 815 456 b 875 390 854 456 876 431 l 875 6 b 842 -4 875 3 861 -4 b 786 78 811 -4 788 10 b 785 158 786 104 785 131 b 476 -15 736 53 625 -15 b 64 447 224 -15 64 181 b 506 914 64 719 242 914 b 772 825 629 914 719 871 b 835 728 814 790 835 751 b 771 671 835 674 776 667 b 504 824 725 761 625 824 b 172 447 307 824 172 671 b 496 72 172 228 293 72 b 783 308 653 72 768 169 l 783 368 l 546 368 b 492 408 510 368 492 381 l 492 415 b 546 456 492 443 510 456 l 815 456 "},"Ģ":{"ha":956,"x_min":0,"x_max":0,"o":"m 815 456 b 875 390 854 456 876 431 l 875 6 b 842 -4 875 3 861 -4 b 786 78 811 -4 788 10 b 785 158 786 104 785 131 b 476 -15 736 53 625 -15 b 64 447 224 -15 64 181 b 506 914 64 719 242 914 b 772 825 629 914 719 871 b 835 728 814 790 835 751 b 771 671 835 674 776 667 b 504 824 725 761 625 824 b 172 447 307 824 172 671 b 496 72 172 228 293 72 b 783 308 653 72 768 169 l 783 368 l 546 368 b 492 408 510 368 492 381 l 492 415 b 546 456 492 443 510 456 l 815 456 m 525 -72 b 572 -111 551 -72 572 -86 l 572 -115 b 539 -172 572 -131 558 -149 l 440 -303 b 388 -281 425 -317 376 -308 l 458 -117 b 515 -72 471 -89 478 -72 l 525 -72 "},"Ġ":{"ha":956,"x_min":0,"x_max":0,"o":"m 506 982 b 442 1046 465 982 442 1004 b 507 1110 442 1088 465 1110 b 569 1046 546 1110 569 1088 b 506 982 569 1004 546 982 m 815 456 b 875 390 854 456 876 431 l 875 6 b 842 -4 875 3 861 -4 b 786 78 811 -4 788 10 b 785 158 786 104 785 131 b 476 -15 736 53 625 -15 b 64 447 224 -15 64 181 b 506 914 64 719 242 914 b 772 825 629 914 719 871 b 835 728 814 790 835 751 b 771 671 835 674 776 667 b 504 824 725 761 625 824 b 172 447 307 824 172 671 b 496 72 172 228 293 72 b 783 308 653 72 768 169 l 783 368 l 546 368 b 492 408 510 368 492 381 l 492 415 b 546 456 492 443 510 456 l 815 456 "},"H":{"ha":924,"x_min":0,"x_max":0,"o":"m 146 -4 b 101 43 117 -4 101 13 l 101 856 b 146 903 101 888 117 903 l 160 903 b 206 856 190 903 206 888 l 206 497 l 718 497 l 718 856 b 761 903 718 888 732 903 l 776 903 b 822 856 807 903 822 888 l 822 43 b 776 -4 822 13 807 -4 l 761 -4 b 718 43 732 -4 718 13 l 718 404 l 206 404 l 206 43 b 160 -4 206 13 190 -4 l 146 -4 "},"Ħ":{"ha":924,"x_min":0,"x_max":0,"o":"m 146 -4 b 101 43 117 -4 101 13 l 101 644 l 56 644 b 8 679 26 644 8 654 l 8 688 b 56 721 8 710 26 721 l 101 721 l 101 856 b 146 903 101 888 117 903 l 160 903 b 206 856 190 903 206 888 l 206 721 l 718 721 l 718 856 b 761 903 718 888 732 903 l 776 903 b 822 856 807 903 818 888 l 822 721 l 868 721 b 914 688 896 721 914 710 l 914 679 b 868 644 914 654 896 644 l 822 644 l 822 43 b 776 -4 822 13 807 -4 l 761 -4 b 718 43 732 -4 718 13 l 718 399 l 206 399 l 206 43 b 160 -4 206 13 190 -4 l 146 -4 m 718 492 l 718 644 l 206 644 l 206 492 "},"Ĥ":{"ha":924,"x_min":0,"x_max":0,"o":"m 308 967 b 269 1001 286 967 269 981 b 461 1201 269 1058 422 1188 b 653 1001 500 1188 653 1058 b 615 967 653 981 638 967 b 461 1119 588 967 553 990 b 308 967 369 990 335 967 m 146 -4 b 101 43 117 -4 101 13 l 101 856 b 146 903 101 888 117 903 l 160 903 b 206 856 190 903 206 888 l 206 497 l 718 497 l 718 856 b 761 903 718 888 732 903 l 776 903 b 822 856 807 903 822 888 l 822 43 b 776 -4 822 13 807 -4 l 761 -4 b 718 43 732 -4 718 13 l 718 404 l 206 404 l 206 43 b 160 -4 206 13 190 -4 l 146 -4 "},"I":{"ha":333,"x_min":0,"x_max":0,"o":"m 115 856 b 158 903 115 888 129 903 l 174 903 b 219 856 203 903 219 888 l 219 43 b 174 -4 219 13 203 -4 l 158 -4 b 115 43 129 -4 115 13 "},"Ĳ":{"ha":947,"x_min":0,"x_max":0,"o":"m 115 856 b 158 903 115 888 129 903 l 174 903 b 219 856 203 903 219 888 l 219 43 b 174 -4 219 13 203 -4 l 158 -4 b 115 43 129 -4 115 13 m 365 126 b 415 185 365 167 413 189 b 588 76 444 122 507 76 b 754 292 704 76 754 139 l 754 856 b 800 903 754 888 769 903 l 814 903 b 858 856 843 903 858 888 l 858 292 b 593 -15 858 83 774 -15 b 365 126 449 -15 365 72 "},"Í":{"ha":333,"x_min":0,"x_max":0,"o":"m 86 976 b 75 982 76 976 75 978 b 294 1196 75 996 213 1196 b 339 1153 319 1196 339 1178 b 86 976 339 1074 101 976 m 115 856 b 158 903 115 888 129 903 l 174 903 b 219 856 203 903 219 888 l 219 43 b 174 -4 219 13 203 -4 l 158 -4 b 115 43 129 -4 115 13 "},"Ĭ":{"ha":333,"x_min":0,"x_max":0,"o":"m 167 967 b -19 1108 44 967 -19 1044 b 35 1163 -19 1136 -6 1163 b 167 1051 53 1096 93 1051 b 299 1163 242 1051 281 1096 b 354 1108 340 1163 354 1136 b 167 967 354 1047 294 967 m 115 856 b 158 903 115 888 129 903 l 174 903 b 219 856 203 903 219 888 l 219 43 b 174 -4 219 13 203 -4 l 158 -4 b 115 43 129 -4 115 13 "},"Î":{"ha":333,"x_min":0,"x_max":0,"o":"m 14 967 b -25 1001 -8 967 -25 981 b 167 1201 -25 1058 128 1188 b 358 1001 206 1188 358 1058 b 321 967 358 981 343 967 b 167 1119 293 967 258 990 b 14 967 75 990 40 967 m 115 856 b 158 903 115 888 129 903 l 174 903 b 219 856 203 903 219 888 l 219 43 b 174 -4 219 13 203 -4 l 158 -4 b 115 43 129 -4 115 13 "},"Ï":{"ha":333,"x_min":0,"x_max":0,"o":"m 42 982 b -18 1044 3 982 -18 1004 b 42 1108 -18 1088 3 1108 b 101 1046 81 1108 101 1088 b 42 982 101 1004 81 982 m 292 982 b 232 1044 253 982 232 1004 b 292 1108 232 1088 253 1108 b 351 1046 331 1108 351 1088 b 292 982 351 1004 331 982 m 115 856 b 158 903 115 888 129 903 l 174 903 b 219 856 203 903 219 888 l 219 43 b 174 -4 219 13 203 -4 l 158 -4 b 115 43 129 -4 115 13 "},"İ":{"ha":333,"x_min":0,"x_max":0,"o":"m 167 982 b 103 1046 126 982 103 1004 b 168 1110 103 1088 126 1110 b 231 1046 207 1110 231 1088 b 167 982 231 1004 207 982 m 115 856 b 158 903 115 888 129 903 l 174 903 b 219 856 203 903 219 888 l 219 43 b 174 -4 219 13 203 -4 l 158 -4 b 115 43 129 -4 115 13 "},"Ì":{"ha":333,"x_min":0,"x_max":0,"o":"m 243 975 b -12 1154 228 975 -12 1075 b 32 1197 -12 1179 7 1197 b 254 982 114 1197 254 994 b 243 975 254 978 253 975 m 115 856 b 158 903 115 888 129 903 l 174 903 b 219 856 203 903 219 888 l 219 43 b 174 -4 219 13 203 -4 l 158 -4 b 115 43 129 -4 115 13 "},"Ī":{"ha":333,"x_min":0,"x_max":0,"o":"m 19 1001 b -36 1043 -17 1001 -36 1015 l -36 1050 b 19 1090 -36 1076 -15 1090 l 314 1090 b 368 1050 349 1090 368 1076 l 368 1043 b 314 1001 368 1015 349 1001 l 19 1001 m 115 856 b 158 903 115 888 129 903 l 174 903 b 219 856 203 903 219 888 l 219 43 b 174 -4 219 13 203 -4 l 158 -4 b 115 43 129 -4 115 13 "},"Į":{"ha":333,"x_min":0,"x_max":0,"o":"m 136 -276 b 10 -162 61 -276 10 -232 b 132 4 10 -104 49 -44 b 115 43 119 11 115 25 l 115 856 b 158 903 115 888 129 903 l 174 903 b 219 856 203 903 219 888 l 219 43 b 204 6 219 25 214 13 b 90 -142 122 -56 90 -101 b 143 -197 90 -175 113 -197 b 196 -169 167 -197 185 -189 b 236 -214 215 -171 236 -186 b 136 -276 236 -250 193 -276 "},"Ĩ":{"ha":333,"x_min":0,"x_max":0,"o":"m 1 990 b -29 1003 -11 990 -21 994 b -33 1036 -32 1013 -33 1024 b 79 1157 -26 1099 8 1157 b 182 1108 122 1157 153 1133 b 261 1054 211 1083 235 1067 b 340 1149 303 1072 297 1149 b 371 1136 353 1149 363 1144 b 375 1099 375 1126 375 1113 b 264 983 368 1038 332 983 b 160 1029 221 983 190 1004 b 82 1083 133 1051 111 1071 b 1 990 38 1065 46 990 m 115 856 b 158 903 115 888 129 903 l 174 903 b 219 856 203 903 219 888 l 219 43 b 174 -4 219 13 203 -4 l 158 -4 b 115 43 129 -4 115 13 "},"J":{"ha":614,"x_min":0,"x_max":0,"o":"m 32 126 b 82 185 32 167 79 189 b 254 76 111 122 174 76 b 421 292 371 76 421 139 l 421 856 b 467 903 421 888 436 903 l 481 903 b 525 856 510 903 525 888 l 525 292 b 260 -15 525 83 440 -15 b 32 126 115 -15 32 72 "},"Ĵ":{"ha":614,"x_min":0,"x_max":0,"o":"m 322 967 b 283 1001 300 967 283 981 b 475 1201 283 1058 436 1188 b 667 1001 514 1188 667 1058 b 629 967 667 981 651 967 b 475 1119 601 967 567 990 b 322 967 383 990 349 967 m 32 126 b 82 185 32 167 79 189 b 254 76 111 122 174 76 b 421 292 371 76 421 139 l 421 856 b 467 903 421 888 436 903 l 481 903 b 525 856 510 903 525 888 l 525 292 b 260 -15 525 83 440 -15 b 32 126 115 -15 32 72 "},"K":{"ha":757,"x_min":0,"x_max":0,"o":"m 101 856 b 146 903 101 888 117 903 l 160 903 b 206 856 190 903 206 888 l 206 474 l 590 871 b 658 901 615 900 638 906 b 704 856 692 899 707 867 l 317 461 l 715 43 b 665 -4 719 31 700 0 b 600 24 643 -7 619 -1 l 206 442 l 206 43 b 160 -4 206 13 190 -4 l 146 -4 b 101 43 117 -4 101 13 "},"Ķ":{"ha":757,"x_min":0,"x_max":0,"o":"m 101 856 b 146 903 101 888 117 903 l 160 903 b 206 856 190 903 206 888 l 206 474 l 590 871 b 658 901 615 900 638 906 b 704 856 692 899 707 867 l 317 461 l 715 43 b 665 -4 719 31 700 0 b 600 24 643 -7 619 -1 l 206 442 l 206 43 b 160 -4 206 13 190 -4 l 146 -4 b 101 43 117 -4 101 13 m 332 -303 b 279 -281 317 -317 268 -308 l 350 -117 b 407 -72 363 -89 369 -72 l 417 -72 b 464 -111 443 -72 464 -86 l 464 -115 b 431 -172 464 -131 450 -149 l 332 -303 "},"L":{"ha":696,"x_min":0,"x_max":0,"o":"m 158 0 b 101 60 124 0 101 24 l 101 856 b 146 903 101 889 117 903 l 160 903 b 206 856 190 903 206 889 l 206 96 l 608 96 b 657 51 640 96 657 81 l 657 46 b 608 0 657 17 640 0 l 158 0 "},"Ĺ":{"ha":696,"x_min":0,"x_max":0,"o":"m 79 976 b 68 982 69 976 68 978 b 288 1196 68 996 206 1196 b 332 1153 313 1196 332 1178 b 79 976 332 1074 94 976 m 158 0 b 101 60 124 0 101 24 l 101 856 b 146 903 101 889 117 903 l 160 903 b 206 856 190 903 206 889 l 206 96 l 608 96 b 657 51 640 96 657 81 l 657 46 b 608 0 657 17 640 0 l 158 0 "},"Ľ":{"ha":696,"x_min":0,"x_max":0,"o":"m 438 707 b 411 740 419 707 411 717 l 414 886 b 468 953 414 935 426 953 l 478 953 b 518 885 515 953 528 929 l 482 739 b 453 707 476 715 471 707 l 438 707 m 158 0 b 101 60 124 0 101 24 l 101 856 b 146 903 101 889 117 903 l 160 903 b 206 856 190 903 206 889 l 206 96 l 608 96 b 657 51 640 96 657 81 l 657 46 b 608 0 657 17 640 0 l 158 0 "},"Ļ":{"ha":696,"x_min":0,"x_max":0,"o":"m 158 0 b 101 60 124 0 101 24 l 101 856 b 146 903 101 889 117 903 l 160 903 b 206 856 190 903 206 889 l 206 96 l 608 96 b 657 51 640 96 657 81 l 657 46 b 608 0 657 17 640 0 l 158 0 m 311 -303 b 258 -281 296 -317 247 -308 l 329 -117 b 386 -72 342 -89 349 -72 l 396 -72 b 443 -111 422 -72 443 -86 l 443 -115 b 410 -172 443 -131 429 -149 l 311 -303 "},"Ŀ":{"ha":700,"x_min":0,"x_max":0,"o":"m 158 0 b 101 60 124 0 101 24 l 101 856 b 146 903 101 889 117 903 l 160 903 b 206 856 190 903 206 889 l 206 96 l 608 96 b 657 51 640 96 657 81 l 657 46 b 608 0 657 17 640 0 l 158 0 m 482 432 b 422 493 443 432 422 454 l 422 506 b 482 569 422 546 443 569 l 496 569 b 557 506 536 569 557 546 l 557 493 b 496 432 557 454 536 432 l 482 432 "},"Ł":{"ha":732,"x_min":0,"x_max":0,"o":"m 178 0 b 121 60 143 0 121 24 l 121 450 l 13 404 b -10 451 7 403 -10 426 b 50 508 -10 474 4 490 l 121 539 l 121 856 b 164 903 121 889 135 903 l 179 903 b 225 856 208 903 225 889 l 225 581 l 489 690 b 511 646 496 692 511 669 b 446 581 511 622 496 599 l 225 490 l 225 96 l 628 96 b 675 51 658 96 675 81 l 675 46 b 628 0 675 17 658 0 l 178 0 "},"M":{"ha":1015,"x_min":0,"x_max":0,"o":"m 101 843 b 164 903 101 879 126 903 l 192 903 b 265 844 236 903 247 886 l 508 336 l 751 844 b 822 903 768 888 782 903 l 849 903 b 913 843 889 903 913 879 l 913 43 b 869 -4 913 13 900 -4 l 857 -4 b 814 43 828 -4 814 13 l 814 288 l 815 776 l 578 279 b 507 229 565 249 551 229 b 435 279 460 229 449 249 l 199 775 l 200 290 l 200 43 b 157 -4 200 13 188 -4 l 142 -4 b 101 43 113 -4 101 13 "},"N":{"ha":925,"x_min":0,"x_max":0,"o":"m 143 -4 b 101 43 114 -4 101 13 l 101 840 b 153 903 101 878 119 903 l 172 903 b 239 858 204 903 219 888 l 725 165 l 725 856 b 768 903 725 888 738 903 l 781 903 b 824 856 810 903 824 888 l 824 57 b 774 -4 824 19 804 -4 l 765 -4 b 706 31 732 -4 722 6 l 199 751 l 199 43 b 156 -4 199 13 185 -4 l 143 -4 "},"Ń":{"ha":925,"x_min":0,"x_max":0,"o":"m 389 976 b 378 982 379 976 378 978 b 597 1196 378 996 515 1196 b 642 1153 622 1196 642 1178 b 389 976 642 1074 404 976 m 143 -4 b 101 43 114 -4 101 13 l 101 840 b 153 903 101 878 119 903 l 172 903 b 239 858 204 903 219 888 l 725 165 l 725 856 b 768 903 725 888 738 903 l 781 903 b 824 856 810 903 824 888 l 824 57 b 774 -4 824 19 804 -4 l 765 -4 b 706 31 732 -4 722 6 l 199 751 l 199 43 b 156 -4 199 13 185 -4 l 143 -4 "},"Ň":{"ha":925,"x_min":0,"x_max":0,"o":"m 471 960 b 279 1160 432 974 279 1103 b 317 1194 279 1179 294 1194 b 471 1042 343 1194 379 1172 b 624 1194 563 1172 597 1194 b 663 1160 646 1194 663 1179 b 471 960 663 1103 510 974 m 143 -4 b 101 43 114 -4 101 13 l 101 840 b 153 903 101 878 119 903 l 172 903 b 239 858 204 903 219 888 l 725 165 l 725 856 b 768 903 725 888 738 903 l 781 903 b 824 856 810 903 824 888 l 824 57 b 774 -4 824 19 804 -4 l 765 -4 b 706 31 732 -4 722 6 l 199 751 l 199 43 b 156 -4 199 13 185 -4 l 143 -4 "},"Ņ":{"ha":925,"x_min":0,"x_max":0,"o":"m 143 -4 b 101 43 114 -4 101 13 l 101 840 b 153 903 101 878 119 903 l 172 903 b 239 858 204 903 219 888 l 725 165 l 725 856 b 768 903 725 888 738 903 l 781 903 b 824 856 810 903 824 888 l 824 57 b 774 -4 824 19 804 -4 l 765 -4 b 706 31 732 -4 722 6 l 199 751 l 199 43 b 156 -4 199 13 185 -4 l 143 -4 m 390 -303 b 338 -281 375 -317 326 -308 l 408 -117 b 465 -72 421 -89 428 -72 l 475 -72 b 522 -111 501 -72 522 -86 l 522 -115 b 489 -172 522 -131 508 -149 l 390 -303 "},"Ŋ":{"ha":925,"x_min":0,"x_max":0,"o":"m 565 -275 b 343 -136 425 -275 343 -189 b 392 -79 343 -97 389 -75 b 560 -185 421 -142 481 -185 b 725 10 671 -185 719 -126 b 704 35 717 15 711 24 l 199 751 l 199 43 b 156 -4 199 13 185 -4 l 143 -4 b 101 43 114 -4 101 13 l 101 840 b 153 903 101 878 119 903 l 172 903 b 239 858 204 903 219 888 l 725 165 l 725 856 b 768 903 725 888 738 903 l 781 903 b 824 856 810 903 824 888 l 824 31 b 565 -275 824 -176 740 -275 "},"Ñ":{"ha":925,"x_min":0,"x_max":0,"o":"m 306 990 b 275 1003 293 990 283 994 b 271 1036 272 1013 271 1024 b 383 1157 278 1099 313 1157 b 486 1108 426 1157 457 1133 b 565 1054 515 1083 539 1067 b 644 1149 607 1072 601 1149 b 675 1136 657 1149 667 1144 b 679 1099 679 1126 679 1113 b 568 983 672 1038 636 983 b 464 1029 525 983 494 1004 b 386 1083 438 1051 415 1071 b 306 990 342 1065 350 990 m 143 -4 b 101 43 114 -4 101 13 l 101 840 b 153 903 101 878 119 903 l 172 903 b 239 858 204 903 219 888 l 725 165 l 725 856 b 768 903 725 888 738 903 l 781 903 b 824 856 810 903 824 888 l 824 57 b 774 -4 824 19 804 -4 l 765 -4 b 706 31 732 -4 722 6 l 199 751 l 199 43 b 156 -4 199 13 185 -4 l 143 -4 "},"O":{"ha":1001,"x_min":0,"x_max":0,"o":"m 500 -15 b 63 447 239 -15 63 174 b 503 914 63 721 242 914 b 939 450 764 914 939 724 b 500 -15 939 176 761 -15 m 501 75 b 832 449 699 75 832 226 b 500 824 832 669 697 824 b 169 449 304 824 169 672 b 501 75 169 228 306 75 "},"Ó":{"ha":1001,"x_min":0,"x_max":0,"o":"m 419 976 b 408 982 410 976 408 978 b 628 1196 408 996 546 1196 b 672 1153 653 1196 672 1178 b 419 976 672 1074 435 976 m 500 -15 b 63 447 239 -15 63 174 b 503 914 63 721 242 914 b 939 450 764 914 939 724 b 500 -15 939 176 761 -15 m 501 75 b 832 449 699 75 832 226 b 500 824 832 669 697 824 b 169 449 304 824 169 672 b 501 75 169 228 306 75 "},"Ŏ":{"ha":1001,"x_min":0,"x_max":0,"o":"m 500 967 b 314 1108 378 967 314 1044 b 368 1163 314 1136 328 1163 b 500 1051 386 1096 426 1051 b 632 1163 575 1051 614 1096 b 688 1108 674 1163 688 1136 b 500 967 688 1047 628 967 m 500 -15 b 63 447 239 -15 63 174 b 503 914 63 721 242 914 b 939 450 764 914 939 724 b 500 -15 939 176 761 -15 m 501 75 b 832 449 699 75 832 226 b 500 824 832 669 697 824 b 169 449 304 824 169 672 b 501 75 169 228 306 75 "},"Ô":{"ha":1001,"x_min":0,"x_max":0,"o":"m 347 967 b 308 1001 325 967 308 981 b 500 1201 308 1058 461 1188 b 692 1001 539 1188 692 1058 b 654 967 692 981 676 967 b 500 1119 626 967 592 990 b 347 967 408 990 374 967 m 500 -15 b 63 447 239 -15 63 174 b 503 914 63 721 242 914 b 939 450 764 914 939 724 b 500 -15 939 176 761 -15 m 501 75 b 832 449 699 75 832 226 b 500 824 832 669 697 824 b 169 449 304 824 169 672 b 501 75 169 228 306 75 "},"Ö":{"ha":1001,"x_min":0,"x_max":0,"o":"m 375 982 b 315 1044 336 982 315 1004 b 375 1108 315 1088 336 1108 b 435 1046 414 1108 435 1088 b 375 982 435 1004 414 982 m 625 982 b 565 1044 586 982 565 1004 b 625 1108 565 1088 586 1108 b 685 1046 664 1108 685 1088 b 625 982 685 1004 664 982 m 500 -15 b 63 447 239 -15 63 174 b 503 914 63 721 242 914 b 939 450 764 914 939 724 b 500 -15 939 176 761 -15 m 501 75 b 832 449 699 75 832 226 b 500 824 832 669 697 824 b 169 449 304 824 169 672 b 501 75 169 228 306 75 "},"Ò":{"ha":1001,"x_min":0,"x_max":0,"o":"m 576 975 b 321 1154 561 975 321 1075 b 365 1197 321 1179 340 1197 b 588 982 447 1197 588 994 b 576 975 588 978 586 975 m 500 -15 b 63 447 239 -15 63 174 b 503 914 63 721 242 914 b 939 450 764 914 939 724 b 500 -15 939 176 761 -15 m 501 75 b 832 449 699 75 832 226 b 500 824 832 669 697 824 b 169 449 304 824 169 672 b 501 75 169 228 306 75 "},"Ő":{"ha":1001,"x_min":0,"x_max":0,"o":"m 340 975 b 336 981 336 975 336 978 b 533 1196 335 989 453 1196 b 575 1156 557 1196 575 1179 b 340 975 575 1076 354 974 m 579 975 b 575 981 576 975 575 976 b 772 1196 575 989 692 1196 b 814 1156 796 1196 814 1179 b 579 975 814 1076 594 974 m 500 -15 b 63 447 239 -15 63 174 b 503 914 63 721 242 914 b 939 450 764 914 939 724 b 500 -15 939 176 761 -15 m 501 75 b 832 449 699 75 832 226 b 500 824 832 669 697 824 b 169 449 304 824 169 672 b 501 75 169 228 306 75 "},"Ō":{"ha":1001,"x_min":0,"x_max":0,"o":"m 353 1001 b 297 1043 317 1001 297 1015 l 297 1050 b 353 1090 297 1076 318 1090 l 647 1090 b 701 1050 682 1090 701 1076 l 701 1043 b 647 1001 701 1015 682 1001 l 353 1001 m 500 -15 b 63 447 239 -15 63 174 b 503 914 63 721 242 914 b 939 450 764 914 939 724 b 500 -15 939 176 761 -15 m 501 75 b 832 449 699 75 832 226 b 500 824 832 669 697 824 b 169 449 304 824 169 672 b 501 75 169 228 306 75 "},"Ø":{"ha":1001,"x_min":0,"x_max":0,"o":"m 829 772 b 939 450 900 692 939 581 b 500 -15 939 176 761 -15 b 225 75 392 -15 297 17 l 110 -56 b 61 -11 104 -61 63 -43 b 89 46 61 4 68 22 l 165 133 b 63 447 100 214 63 321 b 503 914 63 721 242 914 b 769 829 607 914 699 883 l 871 946 b 918 901 875 951 918 933 b 892 844 918 886 913 868 l 829 772 m 500 825 b 168 449 303 825 168 674 b 235 211 168 356 193 274 l 706 754 b 500 825 651 800 581 825 m 501 74 b 833 449 699 74 833 225 b 760 697 833 547 807 632 l 288 151 b 501 74 344 101 417 74 "},"Ǿ":{"ha":1001,"x_min":0,"x_max":0,"o":"m 418 976 b 407 982 408 976 407 978 b 626 1196 407 996 544 1196 b 671 1153 651 1196 671 1178 b 418 976 671 1074 433 976 m 829 772 b 939 450 900 692 939 581 b 500 -15 939 176 761 -15 b 225 75 392 -15 297 17 l 110 -56 b 61 -11 104 -61 63 -43 b 89 46 61 4 68 22 l 165 133 b 63 447 100 214 63 321 b 503 914 63 721 242 914 b 769 829 607 914 699 883 l 871 946 b 918 901 875 951 918 933 b 892 844 918 886 913 868 l 829 772 m 500 825 b 168 449 303 825 168 674 b 235 211 168 356 193 274 l 706 754 b 500 825 651 800 581 825 m 501 74 b 833 449 699 74 833 225 b 760 697 833 547 807 632 l 288 151 b 501 74 344 101 417 74 "},"Õ":{"ha":1001,"x_min":0,"x_max":0,"o":"m 335 990 b 304 1003 322 990 313 994 b 300 1036 301 1013 300 1024 b 413 1157 307 1099 342 1157 b 515 1108 456 1157 486 1133 b 594 1054 544 1083 568 1067 b 674 1149 636 1072 631 1149 b 704 1136 686 1149 696 1144 b 708 1099 708 1126 708 1113 b 597 983 701 1038 665 983 b 493 1029 554 983 524 1004 b 415 1083 467 1051 444 1071 b 335 990 371 1065 379 990 m 500 -15 b 63 447 239 -15 63 174 b 503 914 63 721 242 914 b 939 450 764 914 939 724 b 500 -15 939 176 761 -15 m 501 75 b 832 449 699 75 832 226 b 500 824 832 669 697 824 b 169 449 304 824 169 672 b 501 75 169 228 306 75 "},"Œ":{"ha":1388,"x_min":0,"x_max":0,"o":"m 497 -14 b 63 447 239 -14 63 174 b 500 913 63 721 243 913 b 617 899 542 913 581 908 l 1282 899 b 1331 856 1314 899 1331 883 l 1331 849 b 1282 806 1331 819 1314 806 l 776 806 b 931 506 864 739 921 633 l 1182 506 b 1231 464 1215 506 1231 490 l 1231 458 b 1182 415 1231 429 1214 415 l 932 415 b 776 93 926 276 869 164 l 1293 93 b 1340 51 1324 93 1340 79 l 1340 44 b 1293 0 1340 15 1324 0 l 615 0 b 497 -14 579 -10 539 -14 m 500 76 b 829 449 694 76 829 226 b 499 822 829 669 693 822 b 169 449 304 822 169 672 b 500 76 169 228 306 76 "},"P":{"ha":761,"x_min":0,"x_max":0,"o":"m 146 -4 b 101 43 117 -4 101 13 l 101 838 b 158 899 101 874 124 899 l 386 899 b 718 621 599 899 718 799 b 381 339 718 439 603 339 l 206 339 l 206 43 b 160 -4 206 15 190 -4 l 146 -4 m 383 425 b 613 618 535 425 613 494 b 385 810 613 743 535 810 l 206 810 l 206 425 l 383 425 "},"Þ":{"ha":769,"x_min":0,"x_max":0,"o":"m 146 -4 b 101 43 117 -4 101 13 l 101 856 b 146 903 101 888 117 903 l 160 903 b 206 856 190 903 206 888 l 206 732 l 386 732 b 718 456 600 732 718 631 b 381 176 718 276 603 176 l 206 176 l 206 43 b 160 -4 206 13 190 -4 l 146 -4 m 385 263 b 613 453 536 263 613 331 b 386 643 613 575 536 643 l 206 643 l 206 263 "},"Q":{"ha":1001,"x_min":0,"x_max":0,"o":"m 938 28 b 878 -15 940 24 918 -15 b 824 14 861 -15 843 -6 l 764 75 b 500 -15 692 17 603 -15 b 63 447 239 -15 63 174 b 503 914 63 721 242 914 b 939 450 764 914 939 724 b 831 138 939 326 899 218 m 169 449 b 501 75 169 228 306 75 b 703 140 588 75 654 99 l 532 315 b 529 382 511 336 510 365 l 533 385 b 597 378 553 404 578 399 l 763 210 b 833 449 814 278 833 364 b 501 824 833 668 699 824 b 169 449 304 824 169 671 "},"R":{"ha":785,"x_min":0,"x_max":0,"o":"m 146 -4 b 101 47 117 -4 101 13 l 101 838 b 158 899 101 874 124 899 l 403 899 b 726 636 614 899 726 808 b 463 381 726 483 631 392 l 425 376 l 724 39 b 663 -4 729 32 706 -4 b 599 35 638 -4 618 7 l 306 371 l 204 371 l 204 43 b 158 -4 204 15 189 -4 l 146 -4 m 403 451 b 621 631 550 451 621 521 b 399 810 621 749 546 810 l 204 810 l 204 451 "},"Ŕ":{"ha":785,"x_min":0,"x_max":0,"o":"m 307 976 b 296 982 297 976 296 978 b 515 1196 296 996 433 1196 b 560 1153 540 1196 560 1178 b 307 976 560 1074 322 976 m 146 -4 b 101 47 117 -4 101 13 l 101 838 b 158 899 101 874 124 899 l 403 899 b 726 636 614 899 726 808 b 463 381 726 483 631 392 l 425 376 l 724 39 b 663 -4 729 32 706 -4 b 599 35 638 -4 618 7 l 306 371 l 204 371 l 204 43 b 158 -4 204 15 189 -4 l 146 -4 m 403 451 b 621 631 550 451 621 521 b 399 810 621 749 546 810 l 204 810 l 204 451 "},"Ř":{"ha":785,"x_min":0,"x_max":0,"o":"m 388 960 b 196 1160 349 974 196 1103 b 233 1194 196 1179 211 1194 b 388 1042 260 1194 296 1172 b 540 1194 479 1172 514 1194 b 579 1160 563 1194 579 1179 b 388 960 579 1103 426 974 m 146 -4 b 101 47 117 -4 101 13 l 101 838 b 158 899 101 874 124 899 l 403 899 b 726 636 614 899 726 808 b 463 381 726 483 631 392 l 425 376 l 724 39 b 663 -4 729 32 706 -4 b 599 35 638 -4 618 7 l 306 371 l 204 371 l 204 43 b 158 -4 204 15 189 -4 l 146 -4 m 403 451 b 621 631 550 451 621 521 b 399 810 621 749 546 810 l 204 810 l 204 451 "},"Ŗ":{"ha":785,"x_min":0,"x_max":0,"o":"m 146 -4 b 101 47 117 -4 101 13 l 101 838 b 158 899 101 874 124 899 l 403 899 b 726 636 614 899 726 808 b 463 381 726 483 631 392 l 425 376 l 724 39 b 663 -4 729 32 706 -4 b 599 35 638 -4 618 7 l 306 371 l 204 371 l 204 43 b 158 -4 204 15 189 -4 l 146 -4 m 403 451 b 621 631 550 451 621 521 b 399 810 621 749 546 810 l 204 810 l 204 451 m 326 -303 b 274 -281 311 -317 263 -308 l 344 -117 b 401 -72 357 -89 364 -72 l 411 -72 b 458 -111 438 -72 458 -86 l 458 -115 b 425 -172 458 -131 444 -149 l 326 -303 "},"S":{"ha":740,"x_min":0,"x_max":0,"o":"m 93 79 b 50 164 64 108 50 140 b 100 222 50 201 96 226 b 369 72 142 146 229 72 b 583 236 501 72 583 133 b 346 410 583 351 472 379 b 72 664 208 444 72 490 b 375 914 72 811 200 914 b 624 833 492 914 576 876 b 667 754 651 807 667 778 b 615 694 667 714 618 690 b 375 826 576 764 494 826 b 174 667 257 826 174 764 b 397 503 174 557 268 535 b 686 242 543 468 686 414 b 371 -15 686 85 563 -15 b 93 79 239 -15 144 28 "},"":{"ha":740,"x_min":0,"x_max":0,"o":"m 93 79 b 371 -15 144 28 239 -15 b 686 242 563 -15 686 85 b 397 503 686 414 543 468 b 174 667 268 535 174 557 b 375 826 174 764 257 826 b 615 694 494 826 576 764 b 667 754 618 690 667 714 b 624 833 667 778 651 807 b 375 914 576 876 492 914 b 72 664 200 914 72 811 b 346 410 72 490 208 444 b 583 236 472 379 583 351 b 369 72 583 133 501 72 b 100 222 229 72 142 146 b 50 164 96 226 50 201 b 93 79 50 140 64 108 "},"Ś":{"ha":740,"x_min":0,"x_max":0,"o":"m 300 976 b 289 982 290 976 289 978 b 508 1196 289 996 426 1196 b 553 1153 533 1196 553 1178 b 300 976 553 1074 315 976 m 93 79 b 50 164 64 108 50 140 b 100 222 50 201 96 226 b 369 72 142 146 229 72 b 583 236 501 72 583 133 b 346 410 583 351 472 379 b 72 664 208 444 72 490 b 375 914 72 811 200 914 b 624 833 492 914 576 876 b 667 754 651 807 667 778 b 615 694 667 714 618 690 b 375 826 576 764 494 826 b 174 667 257 826 174 764 b 397 503 174 557 268 535 b 686 242 543 468 686 414 b 371 -15 686 85 563 -15 b 93 79 239 -15 144 28 "},"Š":{"ha":740,"x_min":0,"x_max":0,"o":"m 382 960 b 190 1160 343 974 190 1103 b 228 1194 190 1179 206 1194 b 382 1042 254 1194 290 1172 b 535 1194 474 1172 508 1194 b 574 1160 557 1194 574 1179 b 382 960 574 1103 421 974 m 93 79 b 50 164 64 108 50 140 b 100 222 50 201 96 226 b 369 72 142 146 229 72 b 583 236 501 72 583 133 b 346 410 583 351 472 379 b 72 664 208 444 72 490 b 375 914 72 811 200 914 b 624 833 492 914 576 876 b 667 754 651 807 667 778 b 615 694 667 714 618 690 b 375 826 576 764 494 826 b 174 667 257 826 174 764 b 397 503 174 557 268 535 b 686 242 543 468 686 414 b 371 -15 686 85 563 -15 b 93 79 239 -15 144 28 "},"Ş":{"ha":740,"x_min":0,"x_max":0,"o":"m 342 -292 b 214 -207 265 -292 214 -251 b 253 -168 214 -179 235 -169 b 339 -211 271 -193 301 -211 b 415 -140 382 -211 415 -189 b 332 -14 415 -89 378 -46 b 94 79 219 -6 140 33 b 50 164 64 108 50 140 b 100 222 50 201 96 226 b 369 72 142 146 229 72 b 583 236 503 72 583 133 b 346 410 583 351 472 379 b 72 664 210 444 72 490 b 375 914 72 810 200 914 b 622 833 492 914 575 876 b 667 756 651 807 667 778 b 615 694 667 714 618 692 b 376 826 576 764 494 826 b 174 667 257 826 174 764 b 397 503 174 557 268 535 b 686 242 543 468 686 414 b 450 -8 686 108 597 15 b 413 -12 438 -11 425 -11 b 492 -160 465 -56 492 -106 b 342 -292 492 -247 422 -292 "},"Ŝ":{"ha":740,"x_min":0,"x_max":0,"o":"m 229 967 b 189 1001 207 967 189 981 b 382 1201 189 1058 343 1188 b 574 1001 421 1188 574 1058 b 536 967 574 981 557 967 b 382 1119 508 967 474 990 b 229 967 289 990 256 967 m 93 79 b 50 164 64 108 50 140 b 100 222 50 201 96 226 b 369 72 142 146 229 72 b 583 236 501 72 583 133 b 346 410 583 351 472 379 b 72 664 208 444 72 490 b 375 914 72 811 200 914 b 624 833 492 914 576 876 b 667 754 651 807 667 778 b 615 694 667 714 618 690 b 375 826 576 764 494 826 b 174 667 257 826 174 764 b 397 503 174 557 268 535 b 686 242 543 468 686 414 b 371 -15 686 85 563 -15 b 93 79 239 -15 144 28 "},"Ș":{"ha":740,"x_min":0,"x_max":0,"o":"m 93 79 b 50 164 64 108 50 140 b 100 222 50 201 96 226 b 369 72 142 146 229 72 b 583 236 501 72 583 133 b 346 410 583 351 472 379 b 72 664 208 444 72 490 b 375 914 72 811 200 914 b 624 833 492 914 576 876 b 667 754 651 807 667 778 b 615 694 667 714 618 690 b 375 826 576 764 494 826 b 174 667 257 826 174 764 b 397 503 174 557 268 535 b 686 242 543 468 686 414 b 371 -15 686 85 563 -15 b 93 79 239 -15 144 28 m 308 -303 b 256 -281 293 -317 244 -308 l 326 -117 b 383 -72 339 -89 346 -72 l 393 -72 b 440 -111 419 -72 440 -86 l 440 -115 b 407 -172 440 -131 426 -149 l 308 -303 "},"ẞ":{"ha":775,"x_min":0,"x_max":0,"o":"m 489 528 b 753 253 656 469 753 400 b 497 -15 753 82 649 -15 b 347 21 442 -15 383 -4 b 289 104 310 46 289 76 b 332 160 289 133 314 158 b 486 71 358 101 414 71 b 651 251 608 71 651 153 b 443 453 651 365 575 406 b 383 517 400 468 383 483 b 415 582 383 544 413 578 l 592 814 l 407 814 b 194 536 269 814 194 681 l 194 43 b 150 -4 194 13 178 -4 l 138 -4 b 94 43 107 -4 94 13 l 94 528 b 408 899 94 747 207 899 l 629 899 b 683 789 715 899 714 832 l 489 528 "},"Ə":{"ha":960,"x_min":0,"x_max":0,"o":"m 469 -15 b 64 388 226 -15 64 150 l 64 403 b 101 446 64 432 71 446 l 790 446 b 789 472 790 454 790 464 b 463 824 782 679 653 824 b 186 668 329 824 233 758 b 125 726 181 665 125 676 b 186 824 125 750 144 789 b 463 914 240 871 335 914 b 897 447 724 914 897 722 b 469 -15 897 178 735 -15 m 472 72 b 783 361 640 72 754 189 l 169 361 b 472 72 175 179 304 72 "},"T":{"ha":786,"x_min":0,"x_max":0,"o":"m 342 804 l 76 804 b 29 849 46 804 29 819 l 29 854 b 76 899 29 883 46 899 l 710 899 b 758 854 742 899 758 883 l 758 849 b 710 804 758 819 742 804 l 446 804 l 446 43 b 400 -4 446 13 431 -4 l 386 -4 b 342 43 357 -4 342 13 "},"Ŧ":{"ha":786,"x_min":0,"x_max":0,"o":"m 386 -4 b 342 43 357 -4 342 13 l 342 404 l 151 404 b 110 442 119 404 110 418 l 110 451 b 151 489 110 474 121 489 l 342 489 l 342 804 l 76 804 b 29 849 46 804 29 819 l 29 854 b 76 899 29 883 46 899 l 710 899 b 758 854 742 899 758 883 l 758 849 b 710 804 758 819 742 804 l 446 804 l 446 489 l 635 489 b 678 451 665 489 678 474 l 678 440 b 635 404 678 418 665 404 l 446 404 l 446 43 b 400 -4 446 13 431 -4 l 386 -4 "},"Ť":{"ha":786,"x_min":0,"x_max":0,"o":"m 393 960 b 201 1160 354 974 201 1103 b 239 1194 201 1179 217 1194 b 393 1042 265 1194 301 1172 b 546 1194 485 1172 519 1194 b 585 1160 568 1194 585 1179 b 393 960 585 1103 432 974 m 342 804 l 76 804 b 29 849 46 804 29 819 l 29 854 b 76 899 29 883 46 899 l 710 899 b 758 854 742 899 758 883 l 758 849 b 710 804 758 819 742 804 l 446 804 l 446 43 b 400 -4 446 13 431 -4 l 386 -4 b 342 43 357 -4 342 13 "},"U":{"ha":872,"x_min":0,"x_max":0,"o":"m 89 856 b 133 903 89 888 106 903 l 149 903 b 194 856 178 903 194 888 l 194 356 b 438 79 194 174 275 79 b 679 357 601 79 679 171 l 679 856 b 724 903 679 889 694 903 l 742 903 b 783 856 771 903 783 889 l 783 357 b 435 -15 783 114 663 -15 b 89 354 208 -15 89 111 "},"Ú":{"ha":872,"x_min":0,"x_max":0,"o":"m 354 976 b 343 982 344 976 343 978 b 563 1196 343 996 481 1196 b 607 1153 588 1196 607 1178 b 354 976 607 1074 369 976 m 89 856 b 133 903 89 888 106 903 l 149 903 b 194 856 178 903 194 888 l 194 356 b 438 79 194 174 275 79 b 679 357 601 79 679 171 l 679 856 b 724 903 679 889 694 903 l 742 903 b 783 856 771 903 783 889 l 783 357 b 435 -15 783 114 663 -15 b 89 354 208 -15 89 111 "},"Ŭ":{"ha":872,"x_min":0,"x_max":0,"o":"m 436 967 b 250 1108 314 967 250 1044 b 304 1163 250 1136 264 1163 b 436 1051 322 1096 363 1051 b 568 1163 511 1051 550 1096 b 624 1108 610 1163 624 1136 b 436 967 624 1047 564 967 m 89 856 b 133 903 89 888 106 903 l 149 903 b 194 856 178 903 194 888 l 194 356 b 438 79 194 174 275 79 b 679 357 601 79 679 171 l 679 856 b 724 903 679 889 694 903 l 742 903 b 783 856 771 903 783 889 l 783 357 b 435 -15 783 114 663 -15 b 89 354 208 -15 89 111 "},"Û":{"ha":872,"x_min":0,"x_max":0,"o":"m 283 967 b 244 1001 261 967 244 981 b 436 1201 244 1058 397 1188 b 628 1001 475 1188 628 1058 b 590 967 628 981 613 967 b 436 1119 563 967 528 990 b 283 967 344 990 310 967 m 89 856 b 133 903 89 888 106 903 l 149 903 b 194 856 178 903 194 888 l 194 356 b 438 79 194 174 275 79 b 679 357 601 79 679 171 l 679 856 b 724 903 679 889 694 903 l 742 903 b 783 856 771 903 783 889 l 783 357 b 435 -15 783 114 663 -15 b 89 354 208 -15 89 111 "},"Ü":{"ha":872,"x_min":0,"x_max":0,"o":"m 311 982 b 251 1044 272 982 251 1004 b 311 1108 251 1088 272 1108 b 371 1046 350 1108 371 1088 b 311 982 371 1004 350 982 m 561 982 b 501 1044 522 982 501 1004 b 561 1108 501 1088 522 1108 b 621 1046 600 1108 621 1088 b 561 982 621 1004 600 982 m 89 856 b 133 903 89 888 106 903 l 149 903 b 194 856 178 903 194 888 l 194 356 b 438 79 194 174 275 79 b 679 357 601 79 679 171 l 679 856 b 724 903 679 889 694 903 l 742 903 b 783 856 771 903 783 889 l 783 357 b 435 -15 783 114 663 -15 b 89 354 208 -15 89 111 "},"Ù":{"ha":872,"x_min":0,"x_max":0,"o":"m 513 975 b 257 1154 497 975 257 1075 b 301 1197 257 1179 276 1197 b 524 982 383 1197 524 994 b 513 975 524 978 522 975 m 89 856 b 133 903 89 888 106 903 l 149 903 b 194 856 178 903 194 888 l 194 356 b 438 79 194 174 275 79 b 679 357 601 79 679 171 l 679 856 b 724 903 679 889 694 903 l 742 903 b 783 856 771 903 783 889 l 783 357 b 435 -15 783 114 663 -15 b 89 354 208 -15 89 111 "},"Ű":{"ha":872,"x_min":0,"x_max":0,"o":"m 276 975 b 272 981 272 975 272 978 b 469 1196 271 989 389 1196 b 511 1156 493 1196 511 1179 b 276 975 511 1076 290 974 m 515 975 b 511 981 513 975 511 976 b 708 1196 511 989 628 1196 b 750 1156 732 1196 750 1179 b 515 975 750 1076 531 974 m 89 856 b 133 903 89 888 106 903 l 149 903 b 194 856 178 903 194 888 l 194 356 b 438 79 194 174 275 79 b 679 357 601 79 679 171 l 679 856 b 724 903 679 889 694 903 l 742 903 b 783 856 771 903 783 889 l 783 357 b 435 -15 783 114 663 -15 b 89 354 208 -15 89 111 "},"Ū":{"ha":872,"x_min":0,"x_max":0,"o":"m 289 1001 b 233 1043 253 1001 233 1015 l 233 1050 b 289 1090 233 1076 254 1090 l 583 1090 b 638 1050 618 1090 638 1076 l 638 1043 b 583 1001 638 1015 618 1001 l 289 1001 m 89 856 b 133 903 89 888 106 903 l 149 903 b 194 856 178 903 194 888 l 194 356 b 438 79 194 174 275 79 b 679 357 601 79 679 171 l 679 856 b 724 903 679 889 694 903 l 742 903 b 783 856 771 903 783 889 l 783 357 b 435 -15 783 114 663 -15 b 89 354 208 -15 89 111 "},"Ų":{"ha":872,"x_min":0,"x_max":0,"o":"m 578 -239 b 451 -126 504 -239 451 -196 b 508 -10 451 -85 469 -46 b 432 -15 485 -12 460 -15 b 89 354 207 -14 89 113 l 89 856 b 133 903 89 888 106 903 l 149 903 b 194 856 178 903 194 888 l 194 356 b 438 79 194 174 275 79 b 679 357 601 79 679 171 l 679 856 b 724 903 679 889 694 903 l 742 903 b 783 856 771 903 783 889 l 783 357 b 639 35 783 201 733 92 b 533 -106 561 -24 533 -67 b 585 -161 533 -139 556 -161 b 639 -133 608 -161 628 -151 b 678 -178 657 -133 678 -149 b 578 -239 678 -214 636 -239 "},"Ů":{"ha":872,"x_min":0,"x_max":0,"o":"m 436 965 b 278 1114 343 965 278 1026 b 438 1264 278 1201 346 1264 b 596 1114 531 1264 596 1203 b 436 965 596 1028 528 965 m 436 1028 b 528 1114 488 1028 528 1064 b 436 1201 528 1165 488 1201 b 346 1114 385 1201 346 1165 b 436 1028 346 1064 386 1028 m 89 856 b 133 903 89 888 106 903 l 149 903 b 194 856 178 903 194 888 l 194 356 b 438 79 194 174 275 79 b 679 357 601 79 679 171 l 679 856 b 724 903 679 889 694 903 l 742 903 b 783 856 771 903 783 889 l 783 357 b 435 -15 783 114 663 -15 b 89 354 208 -15 89 111 "},"Ũ":{"ha":872,"x_min":0,"x_max":0,"o":"m 271 990 b 240 1003 258 990 249 994 b 236 1036 238 1013 236 1024 b 349 1157 243 1099 278 1157 b 451 1108 392 1157 422 1133 b 531 1054 481 1083 504 1067 b 610 1149 572 1072 567 1149 b 640 1136 622 1149 632 1144 b 644 1099 644 1126 644 1113 b 533 983 638 1038 601 983 b 429 1029 490 983 460 1004 b 351 1083 403 1051 381 1071 b 271 990 307 1065 315 990 m 89 856 b 133 903 89 888 106 903 l 149 903 b 194 856 178 903 194 888 l 194 356 b 438 79 194 174 275 79 b 679 357 601 79 679 171 l 679 856 b 724 903 679 889 694 903 l 742 903 b 783 856 771 903 783 889 l 783 357 b 435 -15 783 114 663 -15 b 89 354 208 -15 89 111 "},"V":{"ha":825,"x_min":0,"x_max":0,"o":"m 413 -8 b 344 31 369 -8 356 6 l 21 871 b 76 903 18 879 46 901 b 143 854 106 906 131 892 l 414 106 l 688 854 b 751 903 700 894 726 906 b 806 871 781 901 808 879 l 481 31 b 413 -8 471 6 456 -8 "},"W":{"ha":1225,"x_min":0,"x_max":0,"o":"m 346 -8 b 274 33 299 -8 279 3 l 65 875 b 124 903 65 882 88 903 b 186 842 149 903 176 889 l 350 107 l 542 721 b 614 772 551 754 572 772 b 685 721 657 772 675 756 l 875 108 l 1043 842 b 1103 903 1053 889 1078 903 b 1157 875 1138 903 1160 882 l 951 33 b 878 -8 944 3 925 -8 b 807 35 833 -8 815 6 l 614 656 l 414 35 b 346 -8 407 6 390 -8 "},"Ẃ":{"ha":1225,"x_min":0,"x_max":0,"o":"m 531 976 b 519 982 521 976 519 978 b 739 1196 519 996 657 1196 b 783 1153 764 1196 783 1178 b 531 976 783 1074 546 976 m 346 -8 b 274 33 299 -8 279 3 l 65 875 b 124 903 65 882 88 903 b 186 842 149 903 176 889 l 350 107 l 542 721 b 614 772 551 754 572 772 b 685 721 657 772 675 756 l 875 108 l 1043 842 b 1103 903 1053 889 1078 903 b 1157 875 1138 903 1160 882 l 951 33 b 878 -8 944 3 925 -8 b 807 35 833 -8 815 6 l 614 656 l 414 35 b 346 -8 407 6 390 -8 "},"Ŵ":{"ha":1225,"x_min":0,"x_max":0,"o":"m 458 967 b 419 1001 438 967 419 981 b 611 1201 419 1058 572 1188 b 804 1001 650 1188 804 1058 b 765 967 804 981 788 967 b 611 1119 739 967 703 990 b 458 967 519 990 486 967 m 346 -8 b 274 33 299 -8 279 3 l 65 875 b 124 903 65 882 88 903 b 186 842 149 903 176 889 l 350 107 l 542 721 b 614 772 551 754 572 772 b 685 721 657 772 675 756 l 875 108 l 1043 842 b 1103 903 1053 889 1078 903 b 1157 875 1138 903 1160 882 l 951 33 b 878 -8 944 3 925 -8 b 807 35 833 -8 815 6 l 614 656 l 414 35 b 346 -8 407 6 390 -8 "},"Ẅ":{"ha":1225,"x_min":0,"x_max":0,"o":"m 486 982 b 426 1044 447 982 426 1004 b 486 1108 426 1088 447 1108 b 546 1046 526 1108 546 1088 b 486 982 546 1004 525 982 m 736 982 b 676 1044 699 982 676 1004 b 738 1108 676 1088 699 1108 b 797 1046 776 1108 797 1088 b 736 982 797 1004 775 982 m 346 -8 b 274 33 299 -8 279 3 l 65 875 b 124 903 65 882 88 903 b 186 842 149 903 176 889 l 350 107 l 542 721 b 614 772 551 754 572 772 b 685 721 657 772 675 756 l 875 108 l 1043 842 b 1103 903 1053 889 1078 903 b 1157 875 1138 903 1160 882 l 951 33 b 878 -8 944 3 925 -8 b 807 35 833 -8 815 6 l 614 656 l 414 35 b 346 -8 407 6 390 -8 "},"Ẁ":{"ha":1225,"x_min":0,"x_max":0,"o":"m 688 975 b 433 1154 674 975 433 1075 b 478 1197 433 1179 451 1197 b 700 981 560 1197 700 994 b 688 975 700 978 697 975 m 346 -8 b 274 33 299 -8 279 3 l 65 875 b 124 903 65 882 88 903 b 186 842 149 903 176 889 l 350 107 l 542 721 b 614 772 551 754 572 772 b 685 721 657 772 675 756 l 875 108 l 1043 842 b 1103 903 1053 889 1078 903 b 1157 875 1138 903 1160 882 l 951 33 b 878 -8 944 3 925 -8 b 807 35 833 -8 815 6 l 614 656 l 414 35 b 346 -8 407 6 390 -8 "},"X":{"ha":794,"x_min":0,"x_max":0,"o":"m 332 454 l 40 860 b 99 903 36 867 60 903 b 156 868 122 903 143 890 l 400 519 l 650 868 b 703 906 665 894 682 906 b 758 863 739 906 763 869 l 463 453 l 761 42 b 703 -3 767 35 742 -3 b 646 33 681 -3 660 10 l 394 390 l 139 32 b 86 -6 124 6 107 -6 b 31 39 50 -6 25 31 "},"Y":{"ha":754,"x_min":0,"x_max":0,"o":"m 369 -4 b 325 43 340 -4 325 13 l 325 378 l 10 861 b 72 903 6 871 29 903 b 125 865 92 903 113 893 l 378 467 l 629 865 b 685 903 646 894 667 903 b 744 861 725 903 747 869 l 429 378 l 429 43 b 383 -4 429 11 414 -4 l 369 -4 "},"Ý":{"ha":754,"x_min":0,"x_max":0,"o":"m 296 976 b 285 982 286 976 285 978 b 504 1196 285 996 422 1196 b 549 1153 529 1196 549 1178 b 296 976 549 1074 311 976 m 369 -4 b 325 43 340 -4 325 13 l 325 378 l 10 861 b 72 903 6 871 29 903 b 125 865 92 903 113 893 l 378 467 l 629 865 b 685 903 646 894 667 903 b 744 861 725 903 747 869 l 429 378 l 429 43 b 383 -4 429 11 414 -4 l 369 -4 "},"Ŷ":{"ha":754,"x_min":0,"x_max":0,"o":"m 224 967 b 185 1001 201 967 185 981 b 376 1201 185 1058 338 1188 b 568 1001 415 1188 568 1058 b 531 967 568 981 553 967 b 376 1119 503 967 468 990 b 224 967 285 990 250 967 m 369 -4 b 325 43 340 -4 325 13 l 325 378 l 10 861 b 72 903 6 871 29 903 b 125 865 92 903 113 893 l 378 467 l 629 865 b 685 903 646 894 667 903 b 744 861 725 903 747 869 l 429 378 l 429 43 b 383 -4 429 11 414 -4 l 369 -4 "},"Ÿ":{"ha":754,"x_min":0,"x_max":0,"o":"m 251 982 b 192 1044 213 982 192 1004 b 251 1108 192 1088 213 1108 b 311 1046 290 1108 311 1088 b 251 982 311 1004 290 982 m 501 982 b 442 1044 463 982 442 1004 b 501 1108 442 1088 463 1108 b 561 1046 540 1108 561 1088 b 501 982 561 1004 540 982 m 369 -4 b 325 43 340 -4 325 13 l 325 378 l 10 861 b 72 903 6 871 29 903 b 125 865 92 903 113 893 l 378 467 l 629 865 b 685 903 646 894 667 903 b 744 861 725 903 747 869 l 429 378 l 429 43 b 383 -4 429 11 414 -4 l 369 -4 "},"Ỳ":{"ha":754,"x_min":0,"x_max":0,"o":"m 453 975 b 197 1154 438 975 197 1075 b 242 1197 197 1179 217 1197 b 464 982 324 1197 464 994 b 453 975 464 978 463 975 m 369 -4 b 325 43 340 -4 325 13 l 325 378 l 10 861 b 72 903 6 871 29 903 b 125 865 92 903 113 893 l 378 467 l 629 865 b 685 903 646 894 667 903 b 744 861 725 903 747 869 l 429 378 l 429 43 b 383 -4 429 11 414 -4 l 369 -4 "},"Z":{"ha":807,"x_min":0,"x_max":0,"o":"m 63 63 b 110 160 63 94 72 111 l 613 806 l 115 806 b 68 849 85 806 68 819 l 68 856 b 115 899 68 885 85 899 l 663 899 b 733 847 714 899 733 875 l 733 838 b 686 744 733 806 715 781 l 181 93 l 704 93 b 751 50 735 93 751 79 l 751 43 b 704 0 751 14 735 0 l 133 0 b 63 53 83 0 63 25 "},"Ź":{"ha":807,"x_min":0,"x_max":0,"o":"m 326 976 b 315 982 317 976 315 978 b 535 1196 315 996 453 1196 b 579 1153 560 1196 579 1178 b 326 976 579 1074 342 976 m 63 63 b 110 160 63 94 72 111 l 613 806 l 115 806 b 68 849 85 806 68 819 l 68 856 b 115 899 68 885 85 899 l 663 899 b 733 847 714 899 733 875 l 733 838 b 686 744 733 806 715 781 l 181 93 l 704 93 b 751 50 735 93 751 79 l 751 43 b 704 0 751 14 735 0 l 133 0 b 63 53 83 0 63 25 "},"Ž":{"ha":807,"x_min":0,"x_max":0,"o":"m 407 960 b 215 1160 368 974 215 1103 b 253 1194 215 1179 231 1194 b 407 1042 279 1194 315 1172 b 560 1194 499 1172 533 1194 b 599 1160 582 1194 599 1179 b 407 960 599 1103 446 974 m 63 63 b 110 160 63 94 72 111 l 613 806 l 115 806 b 68 849 85 806 68 819 l 68 856 b 115 899 68 885 85 899 l 663 899 b 733 847 714 899 733 875 l 733 838 b 686 744 733 806 715 781 l 181 93 l 704 93 b 751 50 735 93 751 79 l 751 43 b 704 0 751 14 735 0 l 133 0 b 63 53 83 0 63 25 "},"Ż":{"ha":807,"x_min":0,"x_max":0,"o":"m 407 982 b 343 1046 367 982 343 1004 b 408 1110 343 1088 367 1110 b 471 1046 447 1110 471 1088 b 407 982 471 1004 447 982 m 63 63 b 110 160 63 94 72 111 l 613 806 l 115 806 b 68 849 85 806 68 819 l 68 856 b 115 899 68 885 85 899 l 663 899 b 733 847 714 899 733 875 l 733 838 b 686 744 733 806 715 781 l 181 93 l 704 93 b 751 50 735 93 751 79 l 751 43 b 704 0 751 14 735 0 l 133 0 b 63 53 83 0 63 25 "},"Ţ":{"ha":786,"x_min":0,"x_max":0,"o":"m 396 -292 b 268 -207 319 -292 268 -251 b 307 -168 268 -179 289 -169 b 394 -211 325 -193 356 -211 b 469 -140 436 -211 469 -189 b 371 -3 469 -83 424 -36 b 342 43 351 3 342 17 l 342 804 l 76 804 b 29 849 46 804 29 819 l 29 854 b 76 899 29 883 46 899 l 710 899 b 758 854 742 899 758 883 l 758 849 b 710 804 758 819 742 804 l 446 804 l 446 43 b 433 10 446 28 442 17 b 546 -160 508 -36 546 -96 b 396 -292 546 -247 476 -292 "},"Ț":{"ha":786,"x_min":0,"x_max":0,"o":"m 342 804 l 76 804 b 29 849 46 804 29 819 l 29 854 b 76 899 29 883 46 899 l 710 899 b 758 854 742 899 758 883 l 758 849 b 710 804 758 819 742 804 l 446 804 l 446 43 b 400 -4 446 13 431 -4 l 386 -4 b 342 43 357 -4 342 13 m 331 -303 b 278 -281 315 -317 267 -308 l 349 -117 b 406 -72 361 -89 368 -72 l 415 -72 b 463 -111 442 -72 463 -86 l 463 -115 b 429 -172 463 -131 449 -149 l 331 -303 "},"Ạ":{"ha":833,"x_min":0,"x_max":0,"o":"m 71 -4 b 19 26 40 -3 17 19 l 342 871 b 417 906 350 893 368 906 b 492 871 465 906 483 893 l 815 26 b 761 -4 818 18 793 -3 b 696 44 735 -7 710 6 l 601 289 l 229 289 l 133 43 b 71 -4 121 3 94 -7 m 574 375 l 415 797 l 256 375 m 417 -231 b 353 -168 376 -231 353 -208 b 418 -103 353 -126 376 -103 b 481 -167 457 -103 481 -125 b 417 -231 481 -208 457 -231 "},"Ẹ":{"ha":781,"x_min":0,"x_max":0,"o":"m 158 0 b 101 60 124 0 101 24 l 101 838 b 158 899 101 874 124 899 l 675 899 b 724 856 707 899 724 883 l 724 849 b 675 806 724 819 707 806 l 206 806 l 206 506 l 565 506 b 615 464 599 506 615 490 l 615 458 b 565 415 615 429 599 415 l 206 415 l 206 93 l 686 93 b 735 51 718 93 735 79 l 735 44 b 686 0 735 15 718 0 l 158 0 m 418 -231 b 354 -168 378 -231 354 -208 b 419 -103 354 -126 378 -103 b 482 -167 458 -103 482 -125 b 418 -231 482 -208 458 -231 "},"Ị":{"ha":333,"x_min":0,"x_max":0,"o":"m 115 856 b 158 903 115 888 129 903 l 174 903 b 219 856 203 903 219 888 l 219 43 b 174 -4 219 13 203 -4 l 158 -4 b 115 43 129 -4 115 13 m 167 -231 b 103 -168 126 -231 103 -208 b 168 -103 103 -126 126 -103 b 231 -167 207 -103 231 -125 b 167 -231 231 -208 207 -231 "},"Ỵ":{"ha":754,"x_min":0,"x_max":0,"o":"m 369 -4 b 325 43 340 -4 325 13 l 325 378 l 10 861 b 72 903 6 871 29 903 b 125 865 92 903 113 893 l 378 467 l 629 865 b 685 903 646 894 667 903 b 744 861 725 903 747 869 l 429 378 l 429 43 b 383 -4 429 11 414 -4 l 369 -4 m 376 -231 b 313 -168 336 -231 313 -208 b 378 -103 313 -126 336 -103 b 440 -167 417 -103 440 -125 b 376 -231 440 -208 417 -231 "},"Ỹ":{"ha":754,"x_min":0,"x_max":0,"o":"m 211 990 b 181 1003 199 990 189 994 b 176 1036 178 1013 176 1024 b 289 1157 183 1099 218 1157 b 392 1108 332 1157 363 1133 b 471 1054 421 1083 444 1067 b 550 1149 513 1072 507 1149 b 581 1136 563 1149 572 1144 b 585 1099 585 1126 585 1113 b 474 983 578 1038 542 983 b 369 1029 431 983 400 1004 b 292 1083 343 1051 321 1071 b 211 990 247 1065 256 990 m 369 -4 b 325 43 340 -4 325 13 l 325 378 l 10 861 b 72 903 6 871 29 903 b 125 865 92 903 113 893 l 378 467 l 629 865 b 685 903 646 894 667 903 b 744 861 725 903 747 869 l 429 378 l 429 43 b 383 -4 429 11 414 -4 l 369 -4 "},"a":{"ha":699,"x_min":0,"x_max":0,"o":"m 47 171 b 501 389 47 321 189 385 l 517 389 l 517 417 b 338 592 517 529 451 592 b 135 474 232 592 168 540 b 74 525 132 472 74 475 b 114 599 74 544 88 574 b 343 678 157 640 233 678 b 615 415 519 678 615 579 l 615 6 b 579 -6 615 1 597 -6 b 521 58 550 -6 526 8 b 518 119 519 78 518 99 b 272 -14 474 39 383 -14 b 47 171 133 -14 47 58 m 517 324 l 493 322 b 147 174 251 317 147 275 b 292 61 147 104 203 61 b 517 260 419 61 517 147 "},"á":{"ha":699,"x_min":0,"x_max":0,"o":"m 247 763 b 235 768 238 763 235 765 b 446 992 235 782 364 992 b 489 947 471 992 489 972 b 247 763 489 868 261 763 m 47 171 b 501 389 47 321 189 385 l 517 389 l 517 417 b 338 592 517 529 451 592 b 135 474 232 592 168 540 b 74 525 132 472 74 475 b 114 599 74 544 88 574 b 343 678 157 640 233 678 b 615 415 519 678 615 579 l 615 6 b 579 -6 615 1 597 -6 b 521 58 550 -6 526 8 b 518 119 519 78 518 99 b 272 -14 474 39 383 -14 b 47 171 133 -14 47 58 m 517 324 l 493 322 b 147 174 251 317 147 275 b 292 61 147 104 203 61 b 517 260 419 61 517 147 "},"ă":{"ha":699,"x_min":0,"x_max":0,"o":"m 343 757 b 164 901 226 757 164 836 b 218 956 164 929 178 956 b 343 842 235 886 274 842 b 468 956 414 842 451 886 b 522 901 508 956 522 929 b 343 757 522 839 465 757 m 47 171 b 501 389 47 321 189 385 l 517 389 l 517 417 b 338 592 517 529 451 592 b 135 474 232 592 168 540 b 74 525 132 472 74 475 b 114 599 74 544 88 574 b 343 678 157 640 233 678 b 615 415 519 678 615 579 l 615 6 b 579 -6 615 1 597 -6 b 521 58 550 -6 526 8 b 518 119 519 78 518 99 b 272 -14 474 39 383 -14 b 47 171 133 -14 47 58 m 517 324 l 493 322 b 147 174 251 317 147 275 b 292 61 147 104 203 61 b 517 260 419 61 517 147 "},"â":{"ha":699,"x_min":0,"x_max":0,"o":"m 197 763 b 160 797 176 763 160 778 b 343 999 160 856 304 985 b 526 797 382 985 526 856 b 490 763 526 778 511 763 b 343 918 464 763 433 786 b 197 763 251 786 224 763 m 47 171 b 501 389 47 321 189 385 l 517 389 l 517 417 b 338 592 517 529 451 592 b 135 474 232 592 168 540 b 74 525 132 472 74 475 b 114 599 74 544 88 574 b 343 678 157 640 233 678 b 615 415 519 678 615 579 l 615 6 b 579 -6 615 1 597 -6 b 521 58 550 -6 526 8 b 518 119 519 78 518 99 b 272 -14 474 39 383 -14 b 47 171 133 -14 47 58 m 517 324 l 493 322 b 147 174 251 317 147 275 b 292 61 147 104 203 61 b 517 260 419 61 517 147 "},"ä":{"ha":699,"x_min":0,"x_max":0,"o":"m 225 808 b 165 869 186 808 165 829 b 225 933 165 911 186 933 b 285 871 264 933 285 911 b 225 808 285 829 264 808 m 461 808 b 401 869 422 808 401 829 b 461 933 401 911 422 933 b 521 871 500 933 521 911 b 461 808 521 829 500 808 m 47 171 b 501 389 47 321 189 385 l 517 389 l 517 417 b 338 592 517 529 451 592 b 135 474 232 592 168 540 b 74 525 132 472 74 475 b 114 599 74 544 88 574 b 343 678 157 640 233 678 b 615 415 519 678 615 579 l 615 6 b 579 -6 615 1 597 -6 b 521 58 550 -6 526 8 b 518 119 519 78 518 99 b 272 -14 474 39 383 -14 b 47 171 133 -14 47 58 m 517 324 l 493 322 b 147 174 251 317 147 275 b 292 61 147 104 203 61 b 517 260 419 61 517 147 "},"à":{"ha":699,"x_min":0,"x_max":0,"o":"m 439 763 b 197 947 425 763 197 868 b 240 992 197 972 215 992 b 451 768 322 992 451 782 b 439 763 451 765 449 763 m 47 171 b 501 389 47 321 189 385 l 517 389 l 517 417 b 338 592 517 529 451 592 b 135 474 232 592 168 540 b 74 525 132 472 74 475 b 114 599 74 544 88 574 b 343 678 157 640 233 678 b 615 415 519 678 615 579 l 615 6 b 579 -6 615 1 597 -6 b 521 58 550 -6 526 8 b 518 119 519 78 518 99 b 272 -14 474 39 383 -14 b 47 171 133 -14 47 58 m 517 324 l 493 322 b 147 174 251 317 147 275 b 292 61 147 104 203 61 b 517 260 419 61 517 147 "},"ā":{"ha":699,"x_min":0,"x_max":0,"o":"m 208 824 b 154 865 174 824 154 838 l 154 872 b 208 913 154 897 175 913 l 478 913 b 532 872 513 913 532 897 l 532 865 b 478 824 532 838 513 824 l 208 824 m 47 171 b 501 389 47 321 189 385 l 517 389 l 517 417 b 338 592 517 529 451 592 b 135 474 232 592 168 540 b 74 525 132 472 74 475 b 114 599 74 544 88 574 b 343 678 157 640 233 678 b 615 415 519 678 615 579 l 615 6 b 579 -6 615 1 597 -6 b 521 58 550 -6 526 8 b 518 119 519 78 518 99 b 272 -14 474 39 383 -14 b 47 171 133 -14 47 58 m 517 324 l 493 322 b 147 174 251 317 147 275 b 292 61 147 104 203 61 b 517 260 419 61 517 147 "},"ą":{"ha":699,"x_min":0,"x_max":0,"o":"m 539 -276 b 413 -164 464 -276 413 -233 b 542 7 413 -104 453 -42 b 524 53 532 15 526 31 b 518 119 519 74 518 96 b 272 -14 474 39 383 -14 b 47 171 133 -14 47 58 b 501 389 47 321 189 385 l 517 389 b 515 421 517 401 517 411 b 338 592 515 531 450 592 b 135 474 232 592 168 540 b 74 525 132 472 74 475 b 114 599 74 544 88 574 b 343 678 157 640 233 678 b 615 415 519 678 615 579 l 615 6 b 604 -1 615 3 611 1 b 493 -143 524 -60 493 -104 b 544 -199 493 -175 515 -199 b 599 -171 568 -199 588 -189 b 639 -215 618 -171 639 -186 b 539 -276 639 -251 596 -276 m 292 61 b 517 260 419 61 517 147 l 517 324 l 493 322 b 147 174 251 317 147 275 b 292 61 147 104 203 61 "},"å":{"ha":699,"x_min":0,"x_max":0,"o":"m 343 736 b 185 888 250 736 185 799 b 344 1040 185 978 253 1040 b 501 888 438 1040 501 978 b 343 736 501 800 435 736 m 343 799 b 432 888 394 799 432 836 b 343 979 432 940 394 979 b 253 888 292 979 253 940 b 343 799 253 838 293 799 m 47 171 b 501 389 47 321 189 385 l 517 389 l 517 417 b 338 592 517 529 451 592 b 135 474 232 592 168 540 b 74 525 132 472 74 475 b 114 599 74 544 88 574 b 343 678 157 640 233 678 b 615 415 519 678 615 579 l 615 6 b 579 -6 615 1 597 -6 b 521 58 550 -6 526 8 b 518 119 519 78 518 99 b 272 -14 474 39 383 -14 b 47 171 133 -14 47 58 m 517 324 l 493 322 b 147 174 251 317 147 275 b 292 61 147 104 203 61 b 517 260 419 61 517 147 "},"ǻ":{"ha":699,"x_min":0,"x_max":0,"o":"m 339 742 b 183 893 247 742 183 803 b 324 1042 183 975 240 1035 b 443 1188 343 1074 393 1140 b 532 1243 475 1219 507 1243 b 576 1203 557 1243 576 1226 b 508 1113 576 1175 549 1142 b 386 1039 468 1082 421 1057 b 497 893 453 1022 497 967 b 339 742 497 804 431 742 m 339 803 b 428 893 389 803 428 840 b 339 983 428 946 389 983 b 251 893 290 983 251 946 b 339 803 251 842 290 803 m 272 -14 b 47 171 133 -14 47 58 b 501 389 47 321 189 385 l 517 389 b 515 421 517 401 517 411 b 338 592 515 531 450 592 b 135 474 232 592 168 540 b 74 525 132 472 74 475 b 114 599 74 544 88 574 b 343 678 157 640 233 678 b 615 415 519 678 615 579 l 615 6 b 579 -6 615 1 597 -6 b 521 58 550 -6 526 8 b 518 119 519 78 518 99 b 272 -14 474 39 383 -14 m 292 61 b 517 260 419 61 517 147 l 517 324 l 493 322 b 147 174 251 317 147 275 b 292 61 147 104 203 61 "},"ã":{"ha":699,"x_min":0,"x_max":0,"o":"m 186 786 b 154 799 174 786 164 790 b 150 833 150 807 150 821 b 257 954 157 900 196 954 b 357 907 299 954 329 931 b 432 849 388 879 408 861 b 508 946 472 867 469 946 b 539 935 521 946 532 942 b 544 897 543 924 544 910 b 438 779 538 831 499 779 b 338 825 396 779 367 800 b 264 883 308 850 289 871 b 186 786 226 864 225 786 m 47 171 b 501 389 47 321 189 385 l 517 389 l 517 417 b 338 592 517 529 451 592 b 135 474 232 592 168 540 b 74 525 132 472 74 475 b 114 599 74 544 88 574 b 343 678 157 640 233 678 b 615 415 519 678 615 579 l 615 6 b 579 -6 615 1 597 -6 b 521 58 550 -6 526 8 b 518 119 519 78 518 99 b 272 -14 474 39 383 -14 b 47 171 133 -14 47 58 m 517 324 l 493 322 b 147 174 251 317 147 275 b 292 61 147 104 203 61 b 517 260 419 61 517 147 "},"æ":{"ha":1181,"x_min":0,"x_max":0,"o":"m 274 -14 b 47 171 133 -14 47 58 b 501 390 47 321 189 385 l 517 390 l 517 417 b 338 593 517 529 451 593 b 135 474 232 593 168 540 b 74 525 132 472 74 475 b 114 597 74 544 88 574 b 340 678 157 640 232 678 b 575 524 463 678 543 622 b 833 678 624 619 717 678 b 1136 350 1014 678 1136 546 l 1136 342 b 1101 310 1136 318 1126 310 l 603 310 b 607 269 604 296 604 282 b 844 68 626 147 719 68 b 1058 190 965 68 1025 126 b 1114 138 1063 193 1114 182 b 1074 65 1114 119 1101 93 b 844 -15 1033 25 953 -15 b 554 165 701 -15 599 53 b 274 -14 514 57 406 -14 m 1036 382 b 832 597 1031 511 951 597 b 606 382 713 597 624 508 m 292 61 b 517 260 419 61 517 143 l 517 324 l 493 324 b 147 174 251 318 147 276 b 292 61 147 104 203 61 "},"ǽ":{"ha":1181,"x_min":0,"x_max":0,"o":"m 497 763 b 485 768 488 763 485 765 b 696 992 485 782 614 992 b 739 947 721 992 739 972 b 497 763 739 868 511 763 m 274 -14 b 47 171 133 -14 47 58 b 501 390 47 321 189 385 l 517 390 l 517 417 b 338 593 517 529 451 593 b 135 474 232 593 168 540 b 74 525 132 472 74 475 b 114 597 74 544 88 574 b 340 678 157 640 232 678 b 575 524 463 678 543 622 b 833 678 624 619 717 678 b 1136 350 1014 678 1136 546 l 1136 342 b 1101 310 1136 318 1126 310 l 603 310 b 607 269 604 296 604 282 b 844 68 626 147 719 68 b 1058 190 965 68 1025 126 b 1114 138 1063 193 1114 182 b 1074 65 1114 119 1101 93 b 844 -15 1033 25 953 -15 b 554 165 701 -15 599 53 b 274 -14 514 57 406 -14 m 1036 382 b 832 597 1031 511 951 597 b 606 382 713 597 624 508 m 292 61 b 517 260 419 61 517 143 l 517 324 l 493 324 b 147 174 251 318 147 276 b 292 61 147 104 203 61 "},"b":{"ha":783,"x_min":0,"x_max":0,"o":"m 188 39 b 146 -4 186 7 169 -4 l 135 -4 b 90 46 108 -4 90 7 l 90 936 b 125 947 90 940 106 947 b 189 858 157 947 189 931 l 189 540 b 433 678 240 624 319 678 b 736 333 604 678 736 540 b 428 -15 736 126 607 -15 b 188 122 306 -15 222 49 m 638 332 b 414 593 638 486 542 593 b 188 433 301 593 225 529 l 188 283 b 411 69 189 163 288 69 b 638 332 546 69 638 175 "},"":{"ha":783,"x_min":0,"x_max":0,"o":"m 188 122 b 428 -15 222 49 306 -15 b 736 333 607 -15 736 126 b 433 678 736 540 604 678 b 189 540 319 678 240 624 l 189 858 b 125 947 189 931 157 947 b 90 936 106 947 90 940 l 90 46 b 135 -4 90 7 108 -4 l 146 -4 b 188 39 169 -4 186 7 m 638 332 b 411 69 638 175 546 69 b 188 283 288 69 189 163 l 188 433 b 414 593 225 529 301 593 b 638 332 542 593 638 486 "},"c":{"ha":700,"x_min":0,"x_max":0,"o":"m 47 333 b 382 678 47 532 186 678 b 603 597 486 678 558 640 b 657 497 640 563 657 522 b 593 450 657 453 597 444 b 383 592 564 526 504 592 b 146 333 244 592 146 483 b 383 71 146 181 243 71 b 593 213 503 71 564 136 b 657 164 596 218 657 211 b 603 67 657 142 640 103 b 381 -15 560 21 486 -15 b 47 333 186 -15 47 131 "},"ć":{"ha":700,"x_min":0,"x_max":0,"o":"m 286 763 b 274 768 276 763 274 765 b 485 992 274 782 403 992 b 528 947 510 992 528 972 b 286 763 528 868 300 763 m 47 333 b 382 678 47 532 186 678 b 603 597 486 678 558 640 b 657 497 640 563 657 522 b 593 450 657 453 597 444 b 383 592 564 526 504 592 b 146 333 244 592 146 483 b 383 71 146 181 243 71 b 593 213 503 71 564 136 b 657 164 596 218 657 211 b 603 67 657 142 640 103 b 381 -15 560 21 486 -15 b 47 333 186 -15 47 131 "},"č":{"ha":700,"x_min":0,"x_max":0,"o":"m 382 756 b 199 957 343 769 199 900 b 236 993 199 978 215 993 b 382 838 263 993 292 969 b 528 993 472 969 501 993 b 565 957 549 993 565 978 b 382 756 565 900 421 769 m 47 333 b 382 678 47 532 186 678 b 603 597 486 678 558 640 b 657 497 640 563 657 522 b 593 450 657 453 597 444 b 383 592 564 526 504 592 b 146 333 244 592 146 483 b 383 71 146 181 243 71 b 593 213 503 71 564 136 b 657 164 596 218 657 211 b 603 67 657 142 640 103 b 381 -15 560 21 486 -15 b 47 333 186 -15 47 131 "},"ç":{"ha":699,"x_min":0,"x_max":0,"o":"m 343 -306 b 208 -212 258 -306 208 -251 b 243 -169 208 -185 221 -172 b 333 -224 256 -186 286 -224 b 415 -149 376 -224 415 -204 b 288 -3 415 -92 346 -26 b 47 333 143 35 47 164 b 382 678 47 532 186 678 b 603 597 486 678 558 640 b 657 497 640 563 657 522 b 593 450 657 453 597 444 b 383 592 564 526 504 592 b 146 333 244 592 146 483 b 383 71 146 181 243 71 b 593 213 503 71 564 136 b 657 164 596 218 657 211 b 606 68 657 142 642 104 b 451 -10 571 33 521 3 b 400 -14 435 -12 418 -14 b 497 -174 450 -47 497 -104 b 343 -306 497 -268 418 -306 "},"ĉ":{"ha":700,"x_min":0,"x_max":0,"o":"m 236 763 b 199 797 215 763 199 778 b 382 999 199 856 343 985 b 565 797 421 985 565 856 b 529 763 565 778 550 763 b 382 918 503 763 472 786 b 236 763 290 786 263 763 m 47 333 b 382 678 47 532 186 678 b 603 597 486 678 558 640 b 657 497 640 563 657 522 b 593 450 657 453 597 444 b 383 592 564 526 504 592 b 146 333 244 592 146 483 b 383 71 146 181 243 71 b 593 213 503 71 564 136 b 657 164 596 218 657 211 b 603 67 657 142 640 103 b 381 -15 560 21 486 -15 b 47 333 186 -15 47 131 "},"ċ":{"ha":700,"x_min":0,"x_max":0,"o":"m 382 808 b 318 871 342 808 318 831 b 383 935 318 913 342 935 b 446 872 422 935 446 913 b 382 808 446 831 422 808 m 47 333 b 382 678 47 532 186 678 b 603 597 486 678 558 640 b 657 497 640 563 657 522 b 593 450 657 453 597 444 b 383 592 564 526 504 592 b 146 333 244 592 146 483 b 383 71 146 181 243 71 b 593 213 503 71 564 136 b 657 164 596 218 657 211 b 603 67 657 142 640 103 b 381 -15 560 21 486 -15 b 47 333 186 -15 47 131 "},"d":{"ha":783,"x_min":0,"x_max":0,"o":"m 353 -15 b 47 332 178 -15 47 124 b 356 678 47 538 178 678 b 594 550 474 678 557 618 l 594 936 b 629 947 594 940 610 947 b 694 858 663 947 694 931 l 694 43 b 650 -4 694 7 676 -4 l 640 -4 b 597 40 615 -4 597 7 b 596 126 596 68 596 96 b 353 -15 549 42 469 -15 m 594 435 b 372 593 558 531 485 593 b 147 332 239 593 147 489 b 371 69 147 178 240 69 b 594 286 494 69 594 163 "},"ð":{"ha":769,"x_min":0,"x_max":0,"o":"m 508 842 b 713 388 628 756 713 600 b 375 -15 713 133 581 -15 b 54 299 183 -15 54 101 b 368 604 54 485 182 604 b 613 476 479 604 572 543 b 424 794 597 610 535 725 l 275 710 b 222 721 250 696 232 703 l 218 728 b 235 779 204 747 208 765 l 353 843 b 140 897 282 878 222 893 b 213 965 132 897 139 965 b 443 893 276 965 353 943 l 583 972 b 639 961 611 988 625 979 l 642 958 b 622 901 656 939 651 918 l 508 842 m 606 303 b 611 388 608 329 611 358 b 383 522 581 454 488 522 b 154 299 238 522 154 442 b 376 69 154 153 242 69 b 606 303 514 69 589 164 "},"ď":{"ha":875,"x_min":0,"x_max":0,"o":"m 806 704 b 779 738 788 704 779 714 l 781 883 b 835 950 782 932 794 950 l 846 950 b 885 882 882 950 896 926 l 850 736 b 821 704 844 713 839 704 l 806 704 m 353 -15 b 47 332 178 -15 47 124 b 356 678 47 538 178 678 b 594 550 474 678 557 618 l 594 936 b 629 947 594 940 610 947 b 694 858 663 947 694 931 l 694 43 b 650 -4 694 7 676 -4 l 640 -4 b 597 40 615 -4 597 7 b 596 126 596 68 596 96 b 353 -15 549 42 469 -15 m 371 69 b 594 286 494 69 594 163 l 594 435 b 372 593 558 531 485 593 b 147 332 239 593 147 489 b 371 69 147 178 240 69 "},"đ":{"ha":783,"x_min":0,"x_max":0,"o":"m 353 -15 b 47 331 178 -15 47 124 b 356 675 47 535 178 675 b 594 547 474 675 557 617 l 594 746 l 457 746 b 411 781 428 746 411 757 l 411 788 b 457 824 411 813 428 824 l 594 824 l 594 938 b 629 949 594 940 610 949 b 689 886 657 949 683 936 b 693 824 692 868 693 846 l 754 824 b 800 788 782 824 800 813 l 800 781 b 754 746 800 757 782 746 l 694 746 l 694 43 b 650 -4 694 7 676 -4 l 640 -4 b 597 40 615 -4 599 7 b 596 126 596 68 596 97 b 353 -15 549 42 469 -15 m 371 69 b 594 286 494 69 594 163 l 594 432 b 372 590 558 529 485 590 b 147 332 239 590 147 486 b 371 69 147 176 240 69 "},"e":{"ha":725,"x_min":0,"x_max":0,"o":"m 47 328 b 375 678 47 529 185 678 b 679 351 560 678 679 547 l 679 342 b 644 310 679 318 669 310 l 143 310 b 144 290 143 304 143 297 b 386 68 157 157 253 68 b 601 190 510 68 568 126 b 658 138 607 193 658 182 b 606 56 658 117 642 85 b 385 -15 564 19 488 -15 b 47 328 183 -15 47 125 m 581 382 b 375 597 575 511 496 597 b 146 382 254 597 164 508 l 581 382 "},"é":{"ha":725,"x_min":0,"x_max":0,"o":"m 279 763 b 267 768 269 763 267 765 b 478 992 267 782 396 992 b 521 947 503 992 521 972 b 279 763 521 868 293 763 m 47 328 b 375 678 47 529 185 678 b 679 351 560 678 679 547 l 679 342 b 644 310 679 318 669 310 l 143 310 b 144 290 143 304 143 297 b 386 68 157 157 253 68 b 601 190 510 68 568 126 b 658 138 607 193 658 182 b 606 56 658 117 642 85 b 385 -15 564 19 488 -15 b 47 328 183 -15 47 125 m 581 382 b 375 597 575 511 496 597 b 146 382 254 597 164 508 l 581 382 "},"ĕ":{"ha":725,"x_min":0,"x_max":0,"o":"m 375 757 b 196 901 258 757 196 836 b 250 956 196 929 210 956 b 375 842 267 886 306 842 b 500 956 446 842 483 886 b 554 901 540 956 554 929 b 375 757 554 839 497 757 m 47 328 b 375 678 47 529 185 678 b 679 351 560 678 679 547 l 679 342 b 644 310 679 318 669 310 l 143 310 b 144 290 143 304 143 297 b 386 68 157 157 253 68 b 601 190 510 68 568 126 b 658 138 607 193 658 182 b 606 56 658 117 642 85 b 385 -15 564 19 488 -15 b 47 328 183 -15 47 125 m 581 382 b 375 597 575 511 496 597 b 146 382 254 597 164 508 l 581 382 "},"ě":{"ha":725,"x_min":0,"x_max":0,"o":"m 375 756 b 192 957 336 769 192 900 b 229 993 192 978 208 993 b 375 838 256 993 285 969 b 521 993 465 969 494 993 b 558 957 542 993 558 978 b 375 756 558 900 414 769 m 47 328 b 375 678 47 529 185 678 b 679 351 560 678 679 547 l 679 342 b 644 310 679 318 669 310 l 143 310 b 144 290 143 304 143 297 b 386 68 157 157 253 68 b 601 190 510 68 568 126 b 658 138 607 193 658 182 b 606 56 658 117 642 85 b 385 -15 564 19 488 -15 b 47 328 183 -15 47 125 m 581 382 b 375 597 575 511 496 597 b 146 382 254 597 164 508 l 581 382 "},"ê":{"ha":725,"x_min":0,"x_max":0,"o":"m 229 763 b 192 797 208 763 192 778 b 375 999 192 856 336 985 b 558 797 414 985 558 856 b 522 763 558 778 543 763 b 375 918 496 763 465 786 b 229 763 283 786 256 763 m 47 328 b 375 678 47 529 185 678 b 679 351 560 678 679 547 l 679 342 b 644 310 679 318 669 310 l 143 310 b 144 290 143 304 143 297 b 386 68 157 157 253 68 b 601 190 510 68 568 126 b 658 138 607 193 658 182 b 606 56 658 117 642 85 b 385 -15 564 19 488 -15 b 47 328 183 -15 47 125 m 581 382 b 375 597 575 511 496 597 b 146 382 254 597 164 508 l 581 382 "},"ë":{"ha":725,"x_min":0,"x_max":0,"o":"m 257 808 b 197 869 218 808 197 829 b 257 933 197 911 218 933 b 317 871 296 933 317 911 b 257 808 317 829 296 808 m 493 808 b 433 869 454 808 433 829 b 493 933 433 911 454 933 b 553 871 532 933 553 911 b 493 808 553 829 532 808 m 47 328 b 375 678 47 529 185 678 b 679 351 560 678 679 547 l 679 342 b 644 310 679 318 669 310 l 143 310 b 144 290 143 304 143 297 b 386 68 157 157 253 68 b 601 190 510 68 568 126 b 658 138 607 193 658 182 b 606 56 658 117 642 85 b 385 -15 564 19 488 -15 b 47 328 183 -15 47 125 m 581 382 b 375 597 575 511 496 597 b 146 382 254 597 164 508 l 581 382 "},"ė":{"ha":725,"x_min":0,"x_max":0,"o":"m 375 808 b 311 871 335 808 311 831 b 376 935 311 913 335 935 b 439 872 415 935 439 913 b 375 808 439 831 415 808 m 47 328 b 375 678 47 529 185 678 b 679 351 560 678 679 547 l 679 342 b 644 310 679 318 669 310 l 143 310 b 144 290 143 304 143 297 b 386 68 157 157 253 68 b 601 190 510 68 568 126 b 658 138 607 193 658 182 b 606 56 658 117 642 85 b 385 -15 564 19 488 -15 b 47 328 183 -15 47 125 m 581 382 b 375 597 575 511 496 597 b 146 382 254 597 164 508 l 581 382 "},"è":{"ha":725,"x_min":0,"x_max":0,"o":"m 471 763 b 229 947 457 763 229 868 b 272 992 229 972 247 992 b 483 768 354 992 483 782 b 471 763 483 765 481 763 m 47 328 b 375 678 47 529 185 678 b 679 351 560 678 679 547 l 679 342 b 644 310 679 318 669 310 l 143 310 b 144 290 143 304 143 297 b 386 68 157 157 253 68 b 601 190 510 68 568 126 b 658 138 607 193 658 182 b 606 56 658 117 642 85 b 385 -15 564 19 488 -15 b 47 328 183 -15 47 125 m 581 382 b 375 597 575 511 496 597 b 146 382 254 597 164 508 l 581 382 "},"ē":{"ha":725,"x_min":0,"x_max":0,"o":"m 240 824 b 186 865 206 824 186 838 l 186 872 b 240 913 186 897 207 913 l 510 913 b 564 872 544 913 564 897 l 564 865 b 510 824 564 838 544 824 l 240 824 m 47 328 b 375 678 47 529 185 678 b 679 351 560 678 679 547 l 679 342 b 644 310 679 318 669 310 l 143 310 b 144 290 143 304 143 297 b 386 68 157 157 253 68 b 601 190 510 68 568 126 b 658 138 607 193 658 182 b 606 56 658 117 642 85 b 385 -15 564 19 488 -15 b 47 328 183 -15 47 125 m 581 382 b 375 597 575 511 496 597 b 146 382 254 597 164 508 l 581 382 "},"ę":{"ha":725,"x_min":0,"x_max":0,"o":"m 489 -254 b 363 -142 414 -254 363 -211 b 432 -12 363 -97 385 -51 b 379 -15 415 -14 397 -15 b 47 328 181 -12 47 128 b 375 678 47 529 185 678 b 679 351 560 678 679 547 l 679 342 b 644 310 679 318 669 310 l 143 310 b 146 278 143 299 146 288 b 386 68 163 150 257 68 b 601 190 510 68 568 126 b 658 138 607 193 658 182 b 622 71 658 122 647 97 b 556 22 607 54 585 36 b 444 -121 474 -37 444 -82 b 496 -176 444 -154 465 -176 b 550 -149 519 -176 538 -167 b 589 -193 568 -149 589 -164 b 489 -254 589 -229 547 -254 m 581 382 b 375 597 575 511 496 597 b 146 382 254 597 164 508 "},"ə":{"ha":725,"x_min":0,"x_max":0,"o":"m 350 -15 b 46 311 165 -15 46 115 l 46 319 b 81 351 46 343 56 351 l 582 351 b 581 382 582 363 581 372 b 339 593 564 510 469 593 b 124 472 215 593 157 535 b 68 525 118 469 68 481 b 119 607 68 544 85 576 b 340 678 161 643 238 678 b 678 333 542 678 678 538 b 350 -15 678 132 540 -15 m 350 65 b 579 279 471 65 561 154 l 144 279 b 350 65 150 151 229 65 "},"f":{"ha":449,"x_min":0,"x_max":0,"o":"m 149 578 l 56 578 b 13 617 24 578 13 592 l 13 625 b 56 663 13 650 24 663 l 149 663 l 149 729 b 342 960 149 883 219 960 b 454 926 394 960 431 947 b 476 879 469 914 476 897 b 451 835 476 849 454 832 b 351 875 432 857 392 875 b 244 721 279 875 244 829 l 244 663 l 372 663 b 417 625 404 663 417 649 l 417 617 b 372 578 417 592 404 578 l 247 578 l 247 43 b 204 -4 247 8 231 -4 l 193 -4 b 149 43 167 -4 149 7 "},"g":{"ha":639,"x_min":0,"x_max":0,"o":"m 308 -292 b -1 -111 101 -292 -1 -231 b 215 76 -1 -14 94 54 b 174 143 192 90 174 111 b 214 214 174 172 190 197 b 46 432 113 246 46 329 b 314 678 46 569 160 678 b 471 632 372 678 428 661 l 521 707 b 586 747 540 740 563 750 b 635 703 618 743 636 711 l 525 586 b 585 436 561 546 585 494 b 315 199 585 301 471 199 b 279 200 303 199 292 199 b 263 164 265 190 263 178 b 443 85 264 119 331 113 b 642 -93 539 61 642 14 b 308 -292 642 -217 519 -292 m 314 268 b 485 435 414 268 485 335 b 313 603 485 533 417 603 b 143 435 213 603 143 535 b 314 268 143 335 214 268 m 311 -219 b 544 -100 457 -219 544 -178 b 399 8 544 -39 475 -11 b 317 28 371 15 343 21 b 96 -110 199 18 96 -32 b 311 -219 96 -181 171 -219 "},"ğ":{"ha":639,"x_min":0,"x_max":0,"o":"m 311 757 b 132 901 194 757 132 836 b 186 956 132 929 146 956 b 311 842 203 886 242 842 b 436 956 382 842 419 886 b 490 901 476 956 490 929 b 311 757 490 839 433 757 m 308 -292 b -1 -112 101 -292 -1 -231 b 215 76 -1 -14 94 54 b 174 143 192 90 174 111 b 214 214 174 172 190 197 b 46 432 113 246 46 329 b 314 678 46 569 160 678 b 472 631 372 678 428 661 l 522 703 b 586 742 542 736 563 744 b 633 699 618 739 636 706 l 526 583 b 585 436 561 544 585 493 b 315 199 585 301 472 199 b 279 200 303 199 292 199 b 265 164 267 190 264 178 b 443 85 268 118 333 113 b 642 -93 540 60 642 14 b 308 -292 642 -217 519 -292 m 314 268 b 485 435 414 268 485 335 b 313 603 485 533 417 603 b 143 435 213 603 143 535 b 314 268 143 335 214 268 m 311 -219 b 544 -100 457 -219 544 -178 b 399 8 544 -39 475 -11 b 317 28 372 15 343 21 b 96 -110 199 18 96 -32 b 311 -219 96 -181 171 -219 "},"ĝ":{"ha":639,"x_min":0,"x_max":0,"o":"m 165 763 b 128 797 144 763 128 778 b 311 999 128 856 272 985 b 494 797 350 985 494 856 b 458 763 494 778 479 763 b 311 918 432 763 401 786 b 165 763 219 786 192 763 m 308 -292 b -1 -112 101 -292 -1 -231 b 215 76 -1 -14 94 54 b 174 143 192 90 174 111 b 214 214 174 172 190 197 b 46 432 113 246 46 329 b 314 678 46 569 160 678 b 472 631 372 678 428 661 l 522 703 b 586 742 542 736 563 744 b 633 699 618 739 636 706 l 526 583 b 585 436 561 544 585 493 b 315 199 585 301 472 199 b 279 200 303 199 292 199 b 265 164 267 190 264 178 b 443 85 268 118 333 113 b 642 -93 540 60 642 14 b 308 -292 642 -217 519 -292 m 314 268 b 485 435 414 268 485 335 b 313 603 485 533 417 603 b 143 435 213 603 143 535 b 314 268 143 335 214 268 m 311 -219 b 544 -100 457 -219 544 -178 b 399 8 544 -39 475 -11 b 317 28 372 15 343 21 b 96 -110 199 18 96 -32 b 311 -219 96 -181 171 -219 "},"ģ":{"ha":639,"x_min":0,"x_max":0,"o":"m 303 764 b 254 803 276 764 254 778 l 254 807 b 289 863 254 821 269 839 l 388 993 b 440 972 403 1007 451 999 l 369 808 b 313 764 357 779 350 764 l 303 764 m 308 -292 b -1 -112 101 -292 -1 -231 b 215 76 -1 -14 94 54 b 174 143 192 90 174 111 b 214 214 174 172 190 197 b 46 432 113 246 46 329 b 314 678 46 569 160 678 b 472 631 372 678 428 661 l 522 703 b 586 742 542 736 563 744 b 633 699 618 739 636 706 l 526 583 b 585 436 561 544 585 493 b 315 199 585 301 472 199 b 279 200 303 199 292 199 b 265 164 267 190 264 178 b 443 85 268 118 333 113 b 642 -93 540 60 642 14 b 308 -292 642 -217 519 -292 m 314 268 b 485 435 414 268 485 335 b 313 603 485 533 417 603 b 143 435 213 603 143 535 b 314 268 143 335 214 268 m 311 -219 b 544 -100 457 -219 544 -178 b 399 8 544 -39 475 -11 b 317 28 372 15 343 21 b 96 -110 199 18 96 -32 b 311 -219 96 -181 171 -219 "},"ġ":{"ha":639,"x_min":0,"x_max":0,"o":"m 311 808 b 247 871 271 808 247 831 b 313 935 247 913 271 935 b 375 872 351 935 375 913 b 311 808 375 831 351 808 m 308 -292 b -1 -112 101 -292 -1 -231 b 215 76 -1 -14 94 54 b 174 143 192 90 174 111 b 214 214 174 172 190 197 b 46 432 113 246 46 329 b 314 678 46 569 160 678 b 472 631 372 678 428 661 l 522 703 b 586 742 542 736 563 744 b 633 699 618 739 636 706 l 526 583 b 585 436 561 544 585 493 b 315 199 585 301 472 199 b 279 200 303 199 292 199 b 265 164 267 190 264 178 b 443 85 268 118 333 113 b 642 -93 540 60 642 14 b 308 -292 642 -217 519 -292 m 314 268 b 485 435 414 268 485 335 b 313 603 485 533 417 603 b 143 435 213 603 143 535 b 314 268 143 335 214 268 m 311 -219 b 544 -100 457 -219 544 -178 b 399 8 544 -39 475 -11 b 317 28 372 15 343 21 b 96 -110 199 18 96 -32 b 311 -219 96 -181 171 -219 "},"h":{"ha":751,"x_min":0,"x_max":0,"o":"m 413 678 b 668 389 585 678 668 560 l 668 43 b 625 -4 668 7 650 -4 l 613 -4 b 568 43 586 -4 568 7 l 568 382 b 393 588 568 510 506 588 b 189 383 275 588 190 507 l 189 43 b 146 -4 189 7 171 -4 l 133 -4 b 89 43 107 -4 89 7 l 89 936 b 125 947 89 940 106 947 b 189 858 157 947 189 931 l 189 542 b 413 678 231 624 308 678 "},"ħ":{"ha":751,"x_min":0,"x_max":0,"o":"m 413 675 b 668 388 585 675 668 557 l 668 43 b 625 -4 668 7 650 -4 l 613 -4 b 568 43 586 -4 568 7 l 568 379 b 393 586 568 508 506 586 b 189 381 275 586 190 506 l 189 43 b 146 -4 189 7 171 -4 l 133 -4 b 89 43 107 -4 89 7 l 89 747 l 29 747 b -17 782 0 747 -17 758 l -17 789 b 29 822 -17 811 1 822 l 89 822 l 89 938 b 125 949 89 940 106 949 b 189 865 157 949 188 932 l 189 822 l 328 822 b 372 789 357 822 372 811 l 372 782 b 328 747 372 758 357 747 l 189 747 l 189 539 b 413 675 229 619 307 675 "},"ĥ":{"ha":751,"x_min":0,"x_max":0,"o":"m 288 969 b 133 1122 260 969 225 993 b -19 969 42 993 7 969 b -58 1004 -42 969 -58 983 b 133 1204 -58 1061 94 1190 b 325 1004 172 1190 325 1061 b 288 969 325 983 310 969 m 413 678 b 668 389 585 678 668 560 l 668 43 b 625 -4 668 7 650 -4 l 613 -4 b 568 43 586 -4 568 7 l 568 382 b 393 588 568 510 506 588 b 189 383 275 588 190 507 l 189 43 b 146 -4 189 7 171 -4 l 133 -4 b 89 43 107 -4 89 7 l 89 936 b 125 947 89 940 106 947 b 189 858 157 947 189 931 l 189 542 b 413 678 231 624 308 678 "},"i":{"ha":292,"x_min":0,"x_max":0,"o":"m 83 871 b 147 935 83 913 107 935 b 211 871 188 935 211 913 b 146 808 211 831 186 808 b 83 871 107 808 83 831 m 96 619 b 140 668 96 656 114 668 l 151 668 b 196 619 178 668 196 657 l 196 43 b 151 -4 196 7 178 -4 l 140 -4 b 96 43 114 -4 96 7 "},"ı":{"ha":292,"x_min":0,"x_max":0,"o":"m 140 -4 b 96 43 114 -4 96 7 l 96 619 b 140 668 96 656 114 668 l 151 668 b 196 619 178 668 196 657 l 196 43 b 151 -4 196 7 178 -4 l 140 -4 "},"í":{"ha":292,"x_min":0,"x_max":0,"o":"m 50 763 b 38 768 40 763 38 765 b 249 992 38 782 167 992 b 292 947 274 992 292 972 b 50 763 292 868 64 763 m 140 -4 b 96 43 114 -4 96 7 l 96 619 b 140 668 96 656 114 668 l 151 668 b 196 619 178 668 196 657 l 196 43 b 151 -4 196 7 178 -4 l 140 -4 "},"ĭ":{"ha":292,"x_min":0,"x_max":0,"o":"m 146 757 b -33 901 29 757 -33 836 b 21 956 -33 929 -19 956 b 146 842 38 886 76 842 b 271 956 217 842 254 886 b 325 901 311 956 325 929 b 146 757 325 839 268 757 m 140 -4 b 96 43 114 -4 96 7 l 96 619 b 140 668 96 656 114 668 l 151 668 b 196 619 178 668 196 657 l 196 43 b 151 -4 196 7 178 -4 l 140 -4 "},"î":{"ha":292,"x_min":0,"x_max":0,"o":"m 0 763 b -37 797 -21 763 -37 778 b 146 999 -37 856 107 985 b 329 797 185 985 329 856 b 293 763 329 778 314 763 b 146 918 267 763 236 786 b 0 763 54 786 26 763 m 140 -4 b 96 43 114 -4 96 7 l 96 619 b 140 668 96 656 114 668 l 151 668 b 196 619 178 668 196 657 l 196 43 b 151 -4 196 7 178 -4 l 140 -4 "},"ï":{"ha":292,"x_min":0,"x_max":0,"o":"m 28 808 b -32 869 -11 808 -32 829 b 28 933 -32 911 -11 933 b 88 871 67 933 88 911 b 28 808 88 829 67 808 m 263 808 b 204 869 224 808 204 829 b 263 933 204 911 224 933 b 322 871 303 933 322 911 b 263 808 322 829 301 808 m 140 -4 b 96 43 114 -4 96 7 l 96 619 b 140 668 96 656 114 668 l 151 668 b 196 619 178 668 196 657 l 196 43 b 151 -4 196 7 178 -4 l 140 -4 "},"ì":{"ha":292,"x_min":0,"x_max":0,"o":"m 242 763 b 0 947 228 763 0 868 b 43 992 0 972 18 992 b 254 768 125 992 254 782 b 242 763 254 765 251 763 m 140 -4 b 96 43 114 -4 96 7 l 96 619 b 140 668 96 656 114 668 l 151 668 b 196 619 178 668 196 657 l 196 43 b 151 -4 196 7 178 -4 l 140 -4 "},"ĳ":{"ha":583,"x_min":0,"x_max":0,"o":"m 83 871 b 147 935 83 913 107 935 b 211 871 188 935 211 913 b 146 808 211 831 186 808 b 83 871 107 808 83 831 m 375 871 b 440 935 375 913 399 935 b 503 871 479 935 503 913 b 438 808 503 831 479 808 b 375 871 399 808 375 831 m 96 619 b 140 668 96 656 114 668 l 151 668 b 196 619 178 668 196 657 l 196 43 b 151 -4 196 7 178 -4 l 140 -4 b 96 43 114 -4 96 7 m 199 -232 b 182 -194 188 -221 182 -208 b 208 -146 182 -165 206 -143 b 297 -183 226 -164 257 -183 b 388 -62 360 -183 388 -144 l 388 619 b 432 668 388 656 406 668 l 443 668 b 488 619 469 668 488 657 l 488 -67 b 307 -268 488 -197 425 -268 b 199 -232 257 -268 218 -253 "},"ī":{"ha":292,"x_min":0,"x_max":0,"o":"m 11 824 b -43 865 -24 824 -43 838 l -43 872 b 11 913 -43 897 -22 913 l 281 913 b 335 872 315 913 335 897 l 335 865 b 281 824 335 838 315 824 l 11 824 m 140 -4 b 96 43 114 -4 96 7 l 96 619 b 140 668 96 656 114 668 l 151 668 b 196 619 178 668 196 657 l 196 43 b 151 -4 196 7 178 -4 l 140 -4 "},"į":{"ha":292,"x_min":0,"x_max":0,"o":"m 144 821 b 83 883 106 821 83 842 b 147 946 83 925 106 946 b 210 883 188 946 210 925 b 144 821 210 842 186 821 m 113 -276 b -14 -162 39 -276 -14 -232 b 110 4 -14 -104 25 -44 b 96 43 101 13 96 24 l 96 619 b 140 668 96 656 114 668 l 151 668 b 196 619 178 668 196 657 l 196 43 b 178 3 196 21 189 8 b 68 -142 97 -57 68 -103 b 119 -197 68 -175 90 -197 b 174 -169 143 -197 163 -189 b 213 -214 192 -171 213 -186 b 113 -276 213 -250 171 -276 "},"ĩ":{"ha":292,"x_min":0,"x_max":0,"o":"m -11 786 b -42 797 -24 786 -33 790 b -46 835 -46 807 -47 821 b 61 954 -40 901 -1 954 b 160 907 101 954 132 931 b 233 851 188 882 210 864 b 311 946 278 869 271 946 b 342 935 324 946 333 942 b 346 901 346 925 347 914 b 240 779 340 832 301 779 b 139 825 199 779 169 800 b 67 881 111 850 90 868 b -11 786 26 863 28 786 m 140 -4 b 96 43 114 -4 96 7 l 96 619 b 140 668 96 656 114 668 l 151 668 b 196 619 178 668 196 657 l 196 43 b 151 -4 196 7 178 -4 l 140 -4 "},"j":{"ha":292,"x_min":0,"x_max":0,"o":"m 83 871 b 147 935 83 913 107 935 b 211 871 188 935 211 913 b 146 808 211 831 188 808 b 83 871 107 808 83 831 m -93 -232 b -110 -194 -104 -221 -110 -208 b -83 -146 -110 -165 -86 -143 b 6 -183 -65 -164 -35 -183 b 96 -62 68 -183 96 -144 l 96 619 b 140 668 96 656 114 668 l 151 668 b 196 619 178 668 196 657 l 196 -67 b 15 -268 196 -197 133 -268 b -93 -232 -35 -268 -74 -253 "},"ȷ":{"ha":292,"x_min":0,"x_max":0,"o":"m 15 -268 b -93 -232 -35 -268 -74 -253 b -110 -194 -104 -221 -110 -208 b -83 -146 -110 -165 -86 -143 b 6 -183 -65 -164 -35 -183 b 96 -62 68 -183 96 -144 l 96 619 b 140 668 96 656 114 668 l 151 668 b 196 619 178 668 196 657 l 196 -67 b 15 -268 196 -197 133 -268 "},"ĵ":{"ha":292,"x_min":0,"x_max":0,"o":"m 0 763 b -37 797 -21 763 -37 778 b 146 999 -37 856 107 985 b 329 797 185 985 329 856 b 293 763 329 778 314 763 b 146 918 267 763 236 786 b 0 763 54 786 26 763 m 15 -268 b -93 -232 -35 -268 -74 -253 b -110 -194 -104 -221 -110 -208 b -83 -146 -110 -165 -86 -143 b 6 -183 -65 -164 -35 -183 b 96 -62 68 -183 96 -144 l 96 619 b 140 668 96 656 114 668 l 151 668 b 196 619 178 668 196 657 l 196 -67 b 15 -268 196 -197 133 -268 "},"k":{"ha":615,"x_min":0,"x_max":0,"o":"m 90 936 b 125 947 90 940 106 947 b 189 858 157 947 189 931 l 189 361 l 451 631 b 513 668 472 656 494 667 b 565 626 549 669 568 635 l 293 351 l 601 39 b 547 -6 604 29 585 -7 b 486 32 526 -4 507 7 l 189 332 l 189 43 b 146 -4 189 7 171 -4 l 133 -4 b 90 43 108 -4 90 6 "},"ķ":{"ha":615,"x_min":0,"x_max":0,"o":"m 90 936 b 125 947 90 940 106 947 b 189 858 157 947 189 931 l 189 361 l 451 631 b 513 668 472 656 494 667 b 565 626 549 669 568 635 l 293 351 l 601 39 b 547 -6 604 29 585 -7 b 486 32 526 -4 507 7 l 189 332 l 189 43 b 146 -4 189 7 171 -4 l 133 -4 b 90 43 108 -4 90 6 m 261 -303 b 208 -281 246 -317 197 -308 l 279 -117 b 336 -72 292 -89 299 -72 l 346 -72 b 393 -111 372 -72 393 -86 l 393 -115 b 360 -172 393 -131 379 -149 l 261 -303 "},"ĸ":{"ha":617,"x_min":0,"x_max":0,"o":"m 550 -8 b 488 29 529 -8 510 1 l 189 333 l 189 43 b 144 -4 189 7 171 -4 l 133 -4 b 90 43 108 -4 90 6 l 90 663 b 125 675 90 667 106 675 b 189 585 157 675 189 657 l 189 360 l 453 636 b 517 674 475 664 496 674 b 565 632 550 674 568 640 l 293 350 l 601 35 b 550 -8 604 26 586 -8 "},"l":{"ha":292,"x_min":0,"x_max":0,"o":"m 140 -4 b 96 43 114 -4 96 7 l 96 936 b 132 947 96 940 113 947 b 196 858 164 947 196 931 l 196 43 b 151 -4 196 7 178 -4 l 140 -4 "},"ĺ":{"ha":292,"x_min":0,"x_max":0,"o":"m 47 978 b 36 983 38 978 36 981 b 257 1200 36 997 176 1200 b 303 1157 283 1200 303 1182 b 47 978 303 1078 63 978 m 140 -4 b 96 43 114 -4 96 7 l 96 936 b 132 947 96 940 113 947 b 196 858 164 947 196 931 l 196 43 b 151 -4 196 7 178 -4 l 140 -4 "},"ľ":{"ha":378,"x_min":0,"x_max":0,"o":"m 307 707 b 281 740 289 707 281 717 l 282 886 b 336 953 283 935 296 953 l 347 953 b 386 885 383 953 397 929 l 351 739 b 322 707 346 715 340 707 l 307 707 m 140 -4 b 96 43 114 -4 96 7 l 96 936 b 132 947 96 940 113 947 b 196 858 164 947 196 931 l 196 43 b 151 -4 196 7 178 -4 l 140 -4 "},"ļ":{"ha":292,"x_min":0,"x_max":0,"o":"m 140 -4 b 96 43 114 -4 96 7 l 96 936 b 132 947 96 940 113 947 b 196 858 164 947 196 931 l 196 43 b 151 -4 196 7 178 -4 l 140 -4 m 85 -303 b 32 -281 69 -317 21 -308 l 103 -117 b 160 -72 115 -89 122 -72 l 169 -72 b 217 -111 196 -72 217 -86 l 217 -115 b 183 -172 217 -131 203 -149 l 85 -303 "},"ŀ":{"ha":494,"x_min":0,"x_max":0,"o":"m 140 -4 b 96 43 114 -4 96 7 l 96 936 b 132 947 96 940 113 947 b 196 858 164 947 196 931 l 196 43 b 151 -4 196 7 178 -4 l 140 -4 m 389 413 b 329 474 350 413 329 435 l 329 486 b 389 549 329 526 350 549 l 403 549 b 464 486 444 549 464 526 l 464 474 b 403 413 464 435 443 413 l 389 413 "},"ł":{"ha":444,"x_min":0,"x_max":0,"o":"m 214 -4 b 168 43 188 -4 168 7 l 168 465 l 69 411 b 42 453 65 410 44 433 b 90 518 38 474 47 497 l 168 561 l 168 936 b 204 947 168 940 185 947 b 268 858 238 947 268 931 l 268 608 l 379 668 b 406 628 383 669 403 646 b 356 561 410 606 399 583 l 268 511 l 268 43 b 225 -4 268 7 250 -4 l 214 -4 "},"m":{"ha":1176,"x_min":0,"x_max":0,"o":"m 847 678 b 1093 399 1010 678 1093 574 l 1093 43 b 1049 -4 1093 7 1075 -4 l 1038 -4 b 993 43 1011 -4 993 7 l 993 390 b 826 589 993 518 936 589 b 642 457 749 589 674 539 l 642 43 b 597 -4 642 7 622 -4 l 586 -4 b 542 43 560 -4 542 7 l 542 399 b 375 589 542 519 486 589 b 189 457 299 589 224 539 l 189 43 b 146 -4 189 7 171 -4 l 133 -4 b 89 43 108 -4 89 7 l 89 657 b 125 668 89 660 106 668 b 186 586 156 668 183 653 l 188 553 b 397 678 231 626 306 678 b 617 531 510 678 585 621 b 847 678 657 617 738 678 "},"n":{"ha":751,"x_min":0,"x_max":0,"o":"m 414 678 b 668 390 585 678 668 560 l 668 43 b 625 -4 668 7 650 -4 l 613 -4 b 568 43 586 -4 568 7 l 568 382 b 394 589 568 510 507 589 b 189 456 297 589 225 535 l 189 43 b 146 -4 189 7 171 -4 l 133 -4 b 89 43 107 -4 89 7 l 89 657 b 125 668 89 660 106 668 b 186 585 156 668 183 653 l 186 546 b 414 678 231 625 308 678 "},"ń":{"ha":751,"x_min":0,"x_max":0,"o":"m 283 763 b 271 768 274 763 271 765 b 482 992 271 782 400 992 b 525 947 507 992 525 972 b 283 763 525 868 297 763 m 414 678 b 668 390 585 678 668 560 l 668 43 b 625 -4 668 7 650 -4 l 613 -4 b 568 43 586 -4 568 7 l 568 382 b 394 589 568 510 507 589 b 189 456 297 589 225 535 l 189 43 b 146 -4 189 7 171 -4 l 133 -4 b 89 43 107 -4 89 7 l 89 657 b 125 668 89 660 106 668 b 186 585 156 668 183 653 l 186 546 b 414 678 231 625 308 678 "},"ň":{"ha":751,"x_min":0,"x_max":0,"o":"m 379 756 b 196 957 340 769 196 900 b 233 993 196 978 213 993 b 379 838 260 993 289 969 b 525 993 469 969 499 993 b 563 957 546 993 563 978 b 379 756 563 900 418 769 m 414 678 b 668 390 585 678 668 560 l 668 43 b 625 -4 668 7 650 -4 l 613 -4 b 568 43 586 -4 568 7 l 568 382 b 394 589 568 510 507 589 b 189 456 297 589 225 535 l 189 43 b 146 -4 189 7 171 -4 l 133 -4 b 89 43 107 -4 89 7 l 89 657 b 125 668 89 660 106 668 b 186 585 156 668 183 653 l 186 546 b 414 678 231 625 308 678 "},"ņ":{"ha":751,"x_min":0,"x_max":0,"o":"m 414 678 b 668 390 585 678 668 560 l 668 43 b 625 -4 668 7 650 -4 l 613 -4 b 568 43 586 -4 568 7 l 568 382 b 394 589 568 510 507 589 b 189 456 297 589 225 535 l 189 43 b 146 -4 189 7 171 -4 l 133 -4 b 89 43 107 -4 89 7 l 89 657 b 125 668 89 660 106 668 b 186 585 156 668 183 653 l 186 546 b 414 678 231 625 308 678 m 400 -72 b 447 -111 426 -72 447 -86 l 447 -115 b 414 -172 447 -131 433 -149 l 315 -303 b 263 -281 300 -317 251 -308 l 333 -117 b 390 -72 346 -89 353 -72 l 400 -72 "},"ŋ":{"ha":751,"x_min":0,"x_max":0,"o":"m 488 -268 b 383 -236 440 -268 404 -256 b 363 -194 371 -225 363 -210 b 389 -146 363 -165 386 -143 b 478 -183 407 -164 438 -183 b 568 -62 540 -183 568 -146 l 568 382 b 394 589 568 508 507 589 b 189 456 297 589 225 535 l 189 43 b 146 -4 189 15 179 -4 l 133 -4 b 89 43 101 -4 89 15 l 89 657 b 125 668 89 660 106 668 b 181 608 151 668 175 656 b 186 547 183 590 186 569 b 414 678 231 624 307 678 b 668 390 582 678 668 561 l 668 -47 b 488 -268 668 -189 615 -268 "},"ñ":{"ha":751,"x_min":0,"x_max":0,"o":"m 222 786 b 190 799 210 786 200 790 b 186 833 186 807 186 821 b 293 954 193 900 232 954 b 393 907 335 954 365 931 b 468 849 424 879 444 861 b 544 946 508 867 506 946 b 575 935 557 946 568 942 b 581 897 579 924 581 910 b 474 779 574 831 535 779 b 374 825 432 779 403 800 b 300 883 344 850 325 871 b 222 786 263 864 261 786 m 414 678 b 668 390 585 678 668 560 l 668 43 b 625 -4 668 7 650 -4 l 613 -4 b 568 43 586 -4 568 7 l 568 382 b 394 589 568 510 507 589 b 189 456 297 589 225 535 l 189 43 b 146 -4 189 7 171 -4 l 133 -4 b 89 43 107 -4 89 7 l 89 657 b 125 668 89 660 106 668 b 186 585 156 668 183 653 l 186 546 b 414 678 231 625 308 678 "},"o":{"ha":768,"x_min":0,"x_max":0,"o":"m 47 332 b 385 678 47 533 186 678 b 719 329 581 678 719 532 b 383 -15 719 129 581 -15 b 47 332 185 -15 47 131 m 622 329 b 385 593 622 482 524 593 b 144 332 246 593 144 485 b 385 69 144 179 246 69 b 622 329 522 69 622 178 "},"ó":{"ha":768,"x_min":0,"x_max":0,"o":"m 288 763 b 275 768 278 763 275 765 b 486 992 275 782 404 992 b 529 947 511 992 529 972 b 288 763 529 868 301 763 m 47 332 b 385 678 47 533 186 678 b 719 329 581 678 719 532 b 383 -15 719 129 581 -15 b 47 332 185 -15 47 131 m 622 329 b 385 593 622 482 524 593 b 144 332 246 593 144 485 b 385 69 144 179 246 69 b 622 329 522 69 622 178 "},"ŏ":{"ha":768,"x_min":0,"x_max":0,"o":"m 383 757 b 204 901 267 757 204 836 b 258 956 204 929 218 956 b 383 842 275 886 314 842 b 508 956 454 842 492 886 b 563 901 549 956 563 929 b 383 757 563 839 506 757 m 47 332 b 385 678 47 533 186 678 b 719 329 581 678 719 532 b 383 -15 719 129 581 -15 b 47 332 185 -15 47 131 m 622 329 b 385 593 622 482 524 593 b 144 332 246 593 144 485 b 385 69 144 179 246 69 b 622 329 522 69 622 178 "},"ô":{"ha":768,"x_min":0,"x_max":0,"o":"m 238 763 b 200 797 217 763 200 778 b 383 999 200 856 344 985 b 567 797 422 985 567 856 b 531 763 567 778 551 763 b 383 918 504 763 474 786 b 238 763 292 786 264 763 m 47 332 b 385 678 47 533 186 678 b 719 329 581 678 719 532 b 383 -15 719 129 581 -15 b 47 332 185 -15 47 131 m 622 329 b 385 593 622 482 524 593 b 144 332 246 593 144 485 b 385 69 144 179 246 69 b 622 329 522 69 622 178 "},"ö":{"ha":768,"x_min":0,"x_max":0,"o":"m 265 808 b 206 869 226 808 206 829 b 265 933 206 911 226 933 b 325 871 304 933 325 911 b 265 808 325 829 304 808 m 501 808 b 442 869 463 808 442 829 b 501 933 442 911 463 933 b 561 871 540 933 561 911 b 501 808 561 829 540 808 m 47 332 b 385 678 47 533 186 678 b 719 329 581 678 719 532 b 383 -15 719 129 581 -15 b 47 332 185 -15 47 131 m 622 329 b 385 593 622 482 524 593 b 144 332 246 593 144 485 b 385 69 144 179 246 69 b 622 329 522 69 622 178 "},"ò":{"ha":768,"x_min":0,"x_max":0,"o":"m 479 763 b 238 947 465 763 238 868 b 281 992 238 972 256 992 b 492 768 363 992 492 782 b 479 763 492 765 489 763 m 47 332 b 385 678 47 533 186 678 b 719 329 581 678 719 532 b 383 -15 719 129 581 -15 b 47 332 185 -15 47 131 m 622 329 b 385 593 622 482 524 593 b 144 332 246 593 144 485 b 385 69 144 179 246 69 b 622 329 522 69 622 178 "},"ő":{"ha":768,"x_min":0,"x_max":0,"o":"m 222 763 b 218 768 219 764 218 765 b 415 990 218 776 335 990 b 457 950 439 990 457 974 b 222 763 457 869 238 761 m 460 763 b 456 768 457 764 456 765 b 651 990 454 776 572 990 b 693 950 675 990 693 974 b 460 763 693 871 475 761 m 47 332 b 385 678 47 533 186 678 b 719 329 581 678 719 532 b 383 -15 719 129 581 -15 b 47 332 185 -15 47 131 m 622 329 b 385 593 622 482 524 593 b 144 332 246 593 144 485 b 385 69 144 179 246 69 b 622 329 522 69 622 178 "},"ō":{"ha":768,"x_min":0,"x_max":0,"o":"m 249 824 b 194 865 214 824 194 838 l 194 872 b 249 913 194 897 215 913 l 518 913 b 572 872 553 913 572 897 l 572 865 b 518 824 572 838 553 824 l 249 824 m 47 332 b 385 678 47 533 186 678 b 719 329 581 678 719 532 b 383 -15 719 129 581 -15 b 47 332 185 -15 47 131 m 622 329 b 385 593 622 482 524 593 b 144 332 246 593 144 485 b 385 69 144 179 246 69 b 622 329 522 69 622 178 "},"ø":{"ha":768,"x_min":0,"x_max":0,"o":"m 640 561 b 719 329 690 503 719 422 b 385 -15 719 129 581 -15 b 185 46 306 -15 238 7 l 96 -53 b 51 -14 90 -58 51 -42 b 78 39 51 0 58 17 l 129 96 b 47 332 78 156 47 238 b 385 678 47 533 186 678 b 588 613 464 678 533 654 l 678 714 b 721 675 682 718 721 703 b 694 622 721 663 714 646 m 385 594 b 143 332 244 594 143 486 b 196 167 143 268 163 211 l 533 543 b 385 594 493 576 443 594 m 385 67 b 624 329 524 67 624 176 b 574 492 624 392 606 447 l 239 117 b 385 67 278 85 328 67 "},"ǿ":{"ha":768,"x_min":0,"x_max":0,"o":"m 288 763 b 275 768 278 763 275 765 b 486 992 275 782 404 992 b 529 947 511 992 529 972 b 288 763 529 868 301 763 m 640 561 b 719 329 690 503 719 422 b 385 -15 719 129 581 -15 b 185 46 306 -15 238 7 l 96 -53 b 51 -14 90 -58 51 -42 b 78 39 51 0 58 17 l 129 96 b 47 332 78 156 47 238 b 385 678 47 533 186 678 b 588 613 464 678 533 654 l 678 714 b 721 675 682 718 721 703 b 694 622 721 663 714 646 m 385 594 b 143 332 244 594 143 486 b 196 167 143 268 163 211 l 533 543 b 385 594 493 576 443 594 m 385 67 b 624 329 524 67 624 176 b 574 492 624 392 606 447 l 239 117 b 385 67 278 85 328 67 "},"õ":{"ha":768,"x_min":0,"x_max":0,"o":"m 226 786 b 194 799 214 786 204 790 b 190 833 190 807 190 821 b 297 954 197 900 236 954 b 397 907 339 954 369 931 b 472 849 428 879 449 861 b 549 946 513 867 510 946 b 579 935 561 946 572 942 b 585 897 583 924 585 910 b 478 779 578 831 539 779 b 378 825 436 779 407 800 b 304 883 349 850 329 871 b 226 786 267 864 265 786 m 47 332 b 385 678 47 533 186 678 b 719 329 581 678 719 532 b 383 -15 719 129 581 -15 b 47 332 185 -15 47 131 m 622 329 b 385 593 622 482 524 593 b 144 332 246 593 144 485 b 385 69 144 179 246 69 b 622 329 522 69 622 178 "},"œ":{"ha":1292,"x_min":0,"x_max":0,"o":"m 382 -15 b 47 332 186 -15 47 131 b 382 678 47 533 186 678 b 665 496 513 678 617 606 b 944 678 713 607 815 678 b 1246 351 1125 678 1246 546 l 1246 342 b 1211 310 1246 318 1238 310 l 714 310 b 715 283 714 301 714 292 b 954 68 729 153 825 68 b 1168 190 1075 68 1136 126 b 1225 138 1175 193 1225 182 b 1179 61 1225 118 1210 89 b 954 -15 1139 22 1060 -15 b 663 163 815 -15 710 51 b 382 -15 615 56 513 -15 m 1147 382 b 943 597 1142 511 1063 597 b 715 382 824 597 733 508 m 382 69 b 618 331 518 69 618 178 b 382 593 618 482 519 593 b 144 332 246 593 144 485 b 382 69 144 179 244 69 "},"p":{"ha":783,"x_min":0,"x_max":0,"o":"m 431 678 b 736 333 604 678 736 540 b 428 -15 736 126 607 -15 b 189 124 307 -15 224 51 l 189 -221 b 146 -268 189 -256 171 -268 l 135 -268 b 90 -221 108 -268 90 -256 l 90 657 b 125 668 90 660 106 668 b 186 593 154 668 182 651 b 188 536 186 576 188 554 b 431 678 236 622 315 678 m 410 69 b 638 332 546 69 638 175 b 413 593 638 486 542 593 b 188 433 301 593 225 529 l 188 286 b 410 69 188 164 288 69 "},"þ":{"ha":793,"x_min":0,"x_max":0,"o":"m 135 -268 b 90 -221 108 -268 90 -256 l 90 936 b 125 947 90 940 106 947 b 189 858 158 947 189 931 l 189 539 b 432 678 239 624 319 678 b 736 333 604 678 736 540 b 428 -15 736 125 607 -15 b 189 121 308 -15 224 50 l 189 -221 b 146 -268 189 -256 171 -268 l 135 -268 m 410 69 b 638 332 546 69 638 175 b 414 593 638 486 542 593 b 189 435 301 593 226 529 l 189 279 b 410 69 192 160 290 69 "},"q":{"ha":783,"x_min":0,"x_max":0,"o":"m 658 668 b 694 657 676 668 694 660 l 694 -221 b 649 -268 694 -256 676 -268 l 639 -268 b 594 -221 611 -268 594 -256 l 594 124 b 353 -15 549 43 468 -15 b 47 332 178 -15 47 124 b 357 678 47 538 178 678 b 596 544 472 678 558 619 l 596 586 b 658 668 600 654 629 668 m 594 433 b 372 593 558 529 485 593 b 147 332 239 593 147 489 b 371 69 147 178 240 69 b 594 288 494 69 594 164 "},"r":{"ha":476,"x_min":0,"x_max":0,"o":"m 358 678 b 457 606 418 678 457 649 b 426 551 457 565 429 549 b 347 579 410 568 383 579 b 189 306 239 579 189 472 l 189 43 b 146 -4 189 8 171 -4 l 135 -4 b 89 43 107 -4 89 7 l 89 657 b 125 668 89 660 104 668 b 183 601 153 668 178 654 b 186 529 185 578 186 554 b 358 678 213 629 274 678 "},"ŕ":{"ha":476,"x_min":0,"x_max":0,"o":"m 115 763 b 103 768 106 763 103 765 b 314 992 103 782 232 992 b 357 947 339 992 357 972 b 115 763 357 868 129 763 m 358 678 b 457 606 418 678 457 649 b 426 551 457 565 429 549 b 347 579 410 568 383 579 b 189 306 239 579 189 472 l 189 43 b 146 -4 189 8 171 -4 l 135 -4 b 89 43 107 -4 89 7 l 89 657 b 125 668 89 660 104 668 b 183 601 153 668 178 654 b 186 529 185 578 186 554 b 358 678 213 629 274 678 "},"ř":{"ha":476,"x_min":0,"x_max":0,"o":"m 211 756 b 28 957 172 769 28 900 b 65 993 28 978 44 993 b 211 838 92 993 121 969 b 357 993 301 969 331 993 b 394 957 378 993 394 978 b 211 756 394 900 250 769 m 358 678 b 457 606 418 678 457 649 b 426 551 457 565 429 549 b 347 579 410 568 383 579 b 189 306 239 579 189 472 l 189 43 b 146 -4 189 8 171 -4 l 135 -4 b 89 43 107 -4 89 7 l 89 657 b 125 668 89 660 104 668 b 183 601 153 668 178 654 b 186 529 185 578 186 554 b 358 678 213 629 274 678 "},"ŗ":{"ha":476,"x_min":0,"x_max":0,"o":"m 358 678 b 457 606 418 678 457 649 b 426 551 457 565 429 549 b 347 579 410 568 383 579 b 189 306 239 579 189 472 l 189 43 b 146 -4 189 8 171 -4 l 135 -4 b 89 43 107 -4 89 7 l 89 657 b 125 668 89 660 104 668 b 183 601 153 668 178 654 b 186 529 185 578 186 554 b 358 678 213 629 274 678 m 164 -72 b 211 -111 190 -72 211 -86 l 211 -115 b 178 -172 211 -131 197 -149 l 79 -303 b 26 -281 64 -317 15 -308 l 97 -117 b 154 -72 110 -89 117 -72 l 164 -72 "},"s":{"ha":618,"x_min":0,"x_max":0,"o":"m 79 54 b 39 121 51 78 39 100 b 82 169 39 156 78 171 b 307 65 124 110 199 65 b 472 175 411 65 472 110 b 288 293 472 253 400 268 b 58 478 186 314 58 343 b 310 678 58 596 157 678 b 526 603 417 678 489 643 b 551 550 542 588 551 567 b 508 500 551 515 511 497 b 311 599 472 556 400 599 b 151 489 210 599 151 553 b 331 375 151 417 221 400 b 569 186 439 351 569 322 b 306 -15 569 65 468 -15 b 79 54 197 -15 122 17 "},"":{"ha":618,"x_min":0,"x_max":0,"o":"m 79 54 b 306 -15 122 17 197 -15 b 569 186 468 -15 569 65 b 331 375 569 322 439 351 b 151 489 221 400 151 417 b 311 599 151 553 210 599 b 508 500 400 599 472 556 b 551 550 511 497 551 515 b 526 603 551 567 542 588 b 310 678 489 643 417 678 b 58 478 157 678 58 596 b 288 293 58 343 186 314 b 472 175 400 268 472 253 b 307 65 472 110 411 65 b 82 169 199 65 124 110 b 39 121 78 171 39 156 b 79 54 39 100 51 78 "},"ś":{"ha":618,"x_min":0,"x_max":0,"o":"m 215 763 b 203 768 206 763 203 765 b 414 992 203 782 332 992 b 457 947 439 992 457 972 b 215 763 457 868 229 763 m 79 54 b 39 121 51 78 39 100 b 82 169 39 156 78 171 b 307 65 124 110 199 65 b 472 175 411 65 472 110 b 288 293 472 253 400 268 b 58 478 186 314 58 343 b 310 678 58 596 157 678 b 526 603 417 678 489 643 b 551 550 542 588 551 567 b 508 500 551 515 511 497 b 311 599 472 556 400 599 b 151 489 210 599 151 553 b 331 375 151 417 221 400 b 569 186 439 351 569 322 b 306 -15 569 65 468 -15 b 79 54 197 -15 122 17 "},"š":{"ha":618,"x_min":0,"x_max":0,"o":"m 311 756 b 128 957 272 769 128 900 b 165 993 128 978 144 993 b 311 838 192 993 221 969 b 457 993 401 969 431 993 b 494 957 478 993 494 978 b 311 756 494 900 350 769 m 79 54 b 39 121 51 78 39 100 b 82 169 39 156 78 171 b 307 65 124 110 199 65 b 472 175 411 65 472 110 b 288 293 472 253 400 268 b 58 478 186 314 58 343 b 310 678 58 596 157 678 b 526 603 417 678 489 643 b 551 550 542 588 551 567 b 508 500 551 515 511 497 b 311 599 472 556 400 599 b 151 489 210 599 151 553 b 331 375 151 417 221 400 b 569 186 439 351 569 322 b 306 -15 569 65 468 -15 b 79 54 197 -15 122 17 "},"ş":{"ha":618,"x_min":0,"x_max":0,"o":"m 281 -292 b 153 -207 204 -292 153 -251 b 192 -168 153 -179 174 -169 b 279 -211 210 -193 240 -211 b 354 -140 321 -211 354 -189 b 271 -12 354 -89 318 -46 b 79 54 181 -7 117 21 b 39 121 51 78 39 100 b 82 169 39 156 78 171 b 307 65 124 110 199 65 b 472 175 411 65 472 110 b 288 293 472 253 400 268 b 58 478 186 314 58 343 b 310 678 58 596 157 678 b 526 603 417 678 489 643 b 551 550 542 588 551 567 b 508 500 551 515 511 497 b 311 599 472 556 400 599 b 151 489 210 599 151 553 b 331 375 151 417 221 400 b 569 186 439 351 569 322 b 389 -6 569 89 501 17 b 350 -11 376 -8 363 -10 b 431 -160 404 -54 431 -104 b 281 -292 431 -247 361 -292 "},"ŝ":{"ha":618,"x_min":0,"x_max":0,"o":"m 165 763 b 128 797 144 763 128 778 b 311 999 128 856 272 985 b 494 797 350 985 494 856 b 458 763 494 778 479 763 b 311 918 432 763 401 786 b 165 763 219 786 192 763 m 79 54 b 39 121 51 78 39 100 b 82 169 39 156 78 171 b 307 65 124 110 199 65 b 472 175 411 65 472 110 b 288 293 472 253 400 268 b 58 478 186 314 58 343 b 310 678 58 596 157 678 b 526 603 417 678 489 643 b 551 550 542 588 551 567 b 508 500 551 515 511 497 b 311 599 472 556 400 599 b 151 489 210 599 151 553 b 331 375 151 417 221 400 b 569 186 439 351 569 322 b 306 -15 569 65 468 -15 b 79 54 197 -15 122 17 "},"ș":{"ha":618,"x_min":0,"x_max":0,"o":"m 79 54 b 39 121 51 78 39 100 b 82 169 39 156 78 171 b 307 65 124 110 199 65 b 472 175 411 65 472 110 b 288 293 472 253 400 268 b 58 478 186 314 58 343 b 310 678 58 596 157 678 b 526 603 417 678 489 643 b 551 550 542 588 551 567 b 508 500 551 515 511 497 b 311 599 472 556 400 599 b 151 489 210 599 151 553 b 331 375 151 417 221 400 b 569 186 439 351 569 322 b 306 -15 569 65 468 -15 b 79 54 197 -15 122 17 m 242 -303 b 189 -281 226 -317 178 -308 l 260 -117 b 317 -72 272 -89 279 -72 l 326 -72 b 374 -111 353 -72 374 -86 l 374 -115 b 340 -172 374 -131 360 -149 l 242 -303 "},"ß":{"ha":731,"x_min":0,"x_max":0,"o":"m 286 31 b 251 89 263 49 251 71 b 285 139 251 121 282 142 b 432 69 314 101 356 69 b 589 238 519 69 589 142 b 379 451 589 335 538 411 b 313 521 332 465 313 483 b 335 575 313 550 331 572 b 539 724 468 576 539 619 b 372 872 539 813 476 872 b 189 643 257 872 189 801 l 189 43 b 146 -6 189 8 172 -6 l 135 -6 b 89 43 107 -6 89 8 l 89 639 b 374 957 89 853 196 957 b 636 735 533 957 636 864 b 421 526 636 613 565 540 b 688 238 617 478 688 374 b 440 -15 688 93 581 -15 b 286 31 368 -15 315 4 "},"t":{"ha":476,"x_min":0,"x_max":0,"o":"m 314 -15 b 132 193 192 -15 132 53 l 132 578 l 67 578 b 24 615 35 578 24 592 l 24 625 b 67 663 24 649 35 663 l 132 663 l 132 779 b 176 828 132 814 150 828 l 188 828 b 231 779 214 828 231 815 l 231 663 l 399 663 b 442 625 429 663 442 650 l 442 617 b 397 578 442 592 429 578 l 229 578 l 229 208 b 328 69 229 111 258 69 b 426 121 372 69 406 90 b 454 75 431 124 454 110 b 429 24 454 58 447 40 b 314 -15 406 1 368 -15 "},"ŧ":{"ha":478,"x_min":0,"x_max":0,"o":"m 315 -15 b 133 193 192 -15 133 53 l 133 349 l 79 349 b 32 388 49 349 32 360 l 32 394 b 79 433 32 422 50 433 l 133 433 l 133 579 l 68 579 b 24 617 36 579 24 592 l 24 625 b 68 663 24 651 36 663 l 133 663 l 133 781 b 178 829 133 815 151 829 l 188 829 b 231 781 214 829 231 817 l 231 663 l 399 663 b 443 626 431 663 443 651 l 443 617 b 399 579 443 592 431 579 l 231 579 l 231 433 l 381 433 b 428 394 411 433 428 422 l 428 388 b 381 349 428 360 411 349 l 231 349 l 231 207 b 329 69 231 110 260 69 b 428 121 374 69 407 90 b 456 75 432 124 456 108 b 428 22 456 58 447 39 b 315 -15 404 0 367 -15 "},"ť":{"ha":483,"x_min":0,"x_max":0,"o":"m 349 725 b 322 758 331 725 322 735 l 324 903 b 378 971 325 953 338 971 l 389 971 b 428 901 425 971 438 946 l 393 757 b 364 725 388 733 381 725 l 349 725 m 314 -15 b 132 193 192 -15 132 53 l 132 578 l 67 578 b 24 615 35 578 24 592 l 24 625 b 67 663 24 649 35 663 l 132 663 l 132 779 b 176 828 132 814 150 828 l 188 828 b 231 779 214 828 231 815 l 231 663 l 399 663 b 442 625 429 663 442 650 l 442 617 b 397 578 442 592 429 578 l 229 578 l 229 208 b 328 69 229 111 258 69 b 426 121 372 69 406 90 b 454 75 431 124 454 110 b 429 24 454 58 447 40 b 314 -15 406 1 368 -15 "},"ţ":{"ha":476,"x_min":0,"x_max":0,"o":"m 261 -292 b 133 -207 183 -292 133 -251 b 172 -168 133 -179 153 -169 b 258 -211 190 -193 219 -211 b 333 -140 300 -211 333 -189 b 232 -1 333 -83 286 -35 b 132 193 165 24 132 88 l 132 578 l 67 578 b 24 615 35 578 24 592 l 24 625 b 67 663 24 649 35 663 l 132 663 l 132 779 b 176 828 132 814 150 828 l 188 828 b 231 779 214 828 231 815 l 231 663 l 399 663 b 442 625 429 663 442 650 l 442 617 b 397 578 442 592 429 578 l 229 578 l 229 208 b 328 69 229 111 258 69 b 426 121 372 69 406 90 b 454 75 431 124 454 110 b 429 24 454 58 447 40 b 371 -8 415 10 396 -1 b 332 -14 358 -11 346 -12 b 410 -160 383 -56 410 -107 b 261 -292 410 -247 340 -292 "},"ț":{"ha":476,"x_min":0,"x_max":0,"o":"m 314 -15 b 132 193 192 -15 132 53 l 132 578 l 67 578 b 24 615 35 578 24 592 l 24 625 b 67 663 24 649 35 663 l 132 663 l 132 779 b 176 828 132 814 150 828 l 188 828 b 231 779 214 828 231 815 l 231 663 l 399 663 b 442 625 429 663 442 650 l 442 617 b 397 578 442 592 429 578 l 229 578 l 229 208 b 328 69 229 111 258 69 b 426 121 372 69 406 90 b 454 75 431 124 454 110 b 429 24 454 58 447 40 b 314 -15 406 1 368 -15 m 226 -303 b 174 -281 211 -317 163 -308 l 244 -117 b 301 -72 257 -89 264 -72 l 311 -72 b 358 -111 338 -72 358 -86 l 358 -115 b 325 -172 358 -131 344 -149 l 226 -303 "},"u":{"ha":751,"x_min":0,"x_max":0,"o":"m 618 668 b 663 621 644 668 663 657 l 663 6 b 626 -6 663 3 646 -6 b 568 60 599 -6 574 8 b 565 114 567 78 565 96 b 338 -15 521 40 444 -15 b 83 274 167 -15 83 103 l 83 621 b 128 668 83 657 101 668 l 139 668 b 183 621 165 668 183 657 l 183 281 b 358 74 183 153 246 74 b 563 208 454 74 526 128 l 563 621 b 606 668 563 657 581 668 l 618 668 "},"ú":{"ha":751,"x_min":0,"x_max":0,"o":"m 276 763 b 264 768 267 763 264 765 b 475 992 264 782 393 992 b 518 947 500 992 518 972 b 276 763 518 868 290 763 m 618 668 b 663 621 644 668 663 657 l 663 6 b 626 -6 663 3 646 -6 b 568 60 599 -6 574 8 b 565 114 567 78 565 96 b 338 -15 521 40 444 -15 b 83 274 167 -15 83 103 l 83 621 b 128 668 83 657 101 668 l 139 668 b 183 621 165 668 183 657 l 183 281 b 358 74 183 153 246 74 b 563 208 454 74 526 128 l 563 621 b 606 668 563 657 581 668 l 618 668 "},"ŭ":{"ha":751,"x_min":0,"x_max":0,"o":"m 372 757 b 193 901 256 757 193 836 b 247 956 193 929 207 956 b 372 842 264 886 303 842 b 497 956 443 842 481 886 b 551 901 538 956 551 929 b 372 757 551 839 494 757 m 618 668 b 663 621 644 668 663 657 l 663 6 b 626 -6 663 3 646 -6 b 568 60 599 -6 574 8 b 565 114 567 78 565 96 b 338 -15 521 40 444 -15 b 83 274 167 -15 83 103 l 83 621 b 128 668 83 657 101 668 l 139 668 b 183 621 165 668 183 657 l 183 281 b 358 74 183 153 246 74 b 563 208 454 74 526 128 l 563 621 b 606 668 563 657 581 668 l 618 668 "},"û":{"ha":751,"x_min":0,"x_max":0,"o":"m 226 763 b 189 797 206 763 189 778 b 372 999 189 856 333 985 b 556 797 411 985 556 856 b 519 763 556 778 540 763 b 372 918 493 763 463 786 b 226 763 281 786 253 763 m 618 668 b 663 621 644 668 663 657 l 663 6 b 626 -6 663 3 646 -6 b 568 60 599 -6 574 8 b 565 114 567 78 565 96 b 338 -15 521 40 444 -15 b 83 274 167 -15 83 103 l 83 621 b 128 668 83 657 101 668 l 139 668 b 183 621 165 668 183 657 l 183 281 b 358 74 183 153 246 74 b 563 208 454 74 526 128 l 563 621 b 606 668 563 657 581 668 l 618 668 "},"ü":{"ha":751,"x_min":0,"x_max":0,"o":"m 254 808 b 194 869 215 808 194 829 b 254 933 194 911 215 933 b 314 871 293 933 314 911 b 254 808 314 829 293 808 m 490 808 b 431 869 451 808 431 829 b 490 933 431 911 451 933 b 550 871 529 933 550 911 b 490 808 550 829 529 808 m 618 668 b 663 621 644 668 663 657 l 663 6 b 626 -6 663 3 646 -6 b 568 60 599 -6 574 8 b 565 114 567 78 565 96 b 338 -15 521 40 444 -15 b 83 274 167 -15 83 103 l 83 621 b 128 668 83 657 101 668 l 139 668 b 183 621 165 668 183 657 l 183 281 b 358 74 183 153 246 74 b 563 208 454 74 526 128 l 563 621 b 606 668 563 657 581 668 l 618 668 "},"ù":{"ha":751,"x_min":0,"x_max":0,"o":"m 468 763 b 226 947 454 763 226 868 b 269 992 226 972 244 992 b 481 768 351 992 481 782 b 468 763 481 765 478 763 m 618 668 b 663 621 644 668 663 657 l 663 6 b 626 -6 663 3 646 -6 b 568 60 599 -6 574 8 b 565 114 567 78 565 96 b 338 -15 521 40 444 -15 b 83 274 167 -15 83 103 l 83 621 b 128 668 83 657 101 668 l 139 668 b 183 621 165 668 183 657 l 183 281 b 358 74 183 153 246 74 b 563 208 454 74 526 128 l 563 621 b 606 668 563 657 581 668 l 618 668 "},"ű":{"ha":751,"x_min":0,"x_max":0,"o":"m 211 763 b 207 768 208 764 207 765 b 404 990 207 776 324 990 b 446 950 428 990 446 974 b 211 763 446 869 226 761 m 444 768 b 640 990 443 776 561 990 b 682 950 664 990 682 974 b 449 763 682 871 464 761 b 444 768 446 764 444 765 m 618 668 b 663 621 644 668 663 657 l 663 6 b 626 -6 663 3 646 -6 b 568 60 599 -6 574 8 b 565 114 567 78 565 96 b 338 -15 521 40 444 -15 b 83 274 167 -15 83 103 l 83 621 b 128 668 83 657 101 668 l 139 668 b 183 621 165 668 183 657 l 183 281 b 358 74 183 153 246 74 b 563 208 454 74 526 128 l 563 621 b 606 668 563 657 581 668 l 618 668 "},"ū":{"ha":751,"x_min":0,"x_max":0,"o":"m 238 824 b 183 865 203 824 183 838 l 183 872 b 238 913 183 897 204 913 l 507 913 b 561 872 542 913 561 897 l 561 865 b 507 824 561 838 542 824 l 238 824 m 618 668 b 663 621 644 668 663 657 l 663 6 b 626 -6 663 3 646 -6 b 568 60 599 -6 574 8 b 565 114 567 78 565 96 b 338 -15 521 40 444 -15 b 83 274 167 -15 83 103 l 83 621 b 128 668 83 657 101 668 l 139 668 b 183 621 165 668 183 657 l 183 281 b 358 74 183 153 246 74 b 563 208 454 74 526 128 l 563 621 b 606 668 563 657 581 668 l 618 668 "},"ạ":{"ha":699,"x_min":0,"x_max":0,"o":"m 47 171 b 501 389 47 321 189 385 l 517 389 l 517 417 b 338 592 517 529 451 592 b 135 474 232 592 168 540 b 74 525 132 472 74 475 b 114 599 74 544 88 574 b 343 678 157 640 233 678 b 615 415 519 678 615 579 l 615 6 b 579 -6 615 1 597 -6 b 521 58 550 -6 526 8 b 518 119 519 78 518 99 b 272 -14 474 39 383 -14 b 47 171 133 -14 47 58 m 517 324 l 493 322 b 147 174 251 317 147 275 b 292 61 147 104 203 61 b 517 260 419 61 517 147 m 340 -231 b 276 -168 300 -231 276 -208 b 342 -103 276 -126 300 -103 b 404 -167 381 -103 404 -125 b 340 -231 404 -208 381 -231 "},"ẹ":{"ha":725,"x_min":0,"x_max":0,"o":"m 47 328 b 375 678 47 529 185 678 b 679 351 560 678 679 547 l 679 342 b 644 310 679 318 669 310 l 143 310 b 144 290 143 304 143 297 b 386 68 157 157 253 68 b 601 190 510 68 568 126 b 658 138 607 193 658 182 b 606 56 658 117 642 85 b 385 -15 564 19 488 -15 b 47 328 183 -15 47 125 m 581 382 b 375 597 575 511 496 597 b 146 382 254 597 164 508 l 581 382 m 376 -231 b 313 -168 336 -231 313 -208 b 378 -103 313 -126 336 -103 b 440 -167 417 -103 440 -125 b 376 -231 440 -208 417 -231 "},"ẽ":{"ha":725,"x_min":0,"x_max":0,"o":"m 218 786 b 186 799 206 786 196 790 b 182 833 182 807 182 821 b 289 954 189 900 228 954 b 389 907 331 954 361 931 b 464 849 419 879 440 861 b 540 946 504 867 501 946 b 571 935 553 946 564 942 b 576 897 575 924 576 910 b 469 779 569 831 531 779 b 369 825 428 779 399 800 b 296 883 340 850 321 871 b 218 786 258 864 257 786 m 47 328 b 375 678 47 529 185 678 b 679 351 560 678 679 547 l 679 342 b 644 310 679 318 669 310 l 143 310 b 144 290 143 304 143 297 b 386 68 157 157 253 68 b 601 190 510 68 568 126 b 658 138 607 193 658 182 b 606 56 658 117 642 85 b 385 -15 564 19 488 -15 b 47 328 183 -15 47 125 m 581 382 b 375 597 575 511 496 597 b 146 382 254 597 164 508 l 581 382 "},"ị":{"ha":292,"x_min":0,"x_max":0,"o":"m 146 808 b 82 871 106 808 82 831 b 147 935 82 913 106 935 b 210 872 186 935 210 913 b 146 808 210 831 186 808 m 140 -4 b 96 43 114 -4 96 7 l 96 619 b 140 668 96 656 114 668 l 151 668 b 196 619 178 668 196 657 l 196 43 b 151 -4 196 7 178 -4 l 140 -4 m 146 -231 b 82 -168 106 -231 82 -208 b 147 -103 82 -126 106 -103 b 210 -167 186 -103 210 -125 b 146 -231 210 -208 186 -231 "},"ọ":{"ha":768,"x_min":0,"x_max":0,"o":"m 47 332 b 385 678 47 533 186 678 b 719 329 581 678 719 532 b 383 -15 719 129 581 -15 b 47 332 185 -15 47 131 m 622 329 b 385 593 622 482 524 593 b 144 332 246 593 144 485 b 385 69 144 179 246 69 b 622 329 522 69 622 178 m 383 -231 b 319 -168 343 -231 319 -208 b 385 -103 319 -126 343 -103 b 447 -167 424 -103 447 -125 b 383 -231 447 -208 424 -231 "},"ỵ":{"ha":650,"x_min":0,"x_max":0,"o":"m 246 -267 b 194 -239 218 -267 193 -246 l 308 38 b 258 69 282 39 268 46 l 18 639 b 72 669 17 647 42 669 b 135 610 97 668 119 653 l 338 103 l 517 606 b 585 668 532 657 560 669 b 633 640 610 668 635 647 l 311 -207 b 246 -267 296 -254 272 -267 m 497 -231 b 433 -168 457 -231 433 -208 b 499 -103 433 -126 457 -103 b 561 -167 538 -103 561 -125 b 497 -231 561 -208 538 -231 "},"ỹ":{"ha":650,"x_min":0,"x_max":0,"o":"m 168 786 b 136 799 156 786 146 790 b 132 833 132 807 132 821 b 239 954 139 900 178 954 b 339 907 281 954 311 931 b 414 849 369 879 390 861 b 490 946 454 867 451 946 b 521 935 503 946 514 942 b 526 897 525 924 526 910 b 419 779 519 831 481 779 b 319 825 378 779 349 800 b 246 883 290 850 271 871 b 168 786 208 864 207 786 m 246 -267 b 194 -239 218 -267 193 -246 l 308 38 b 258 69 282 39 268 46 l 18 639 b 72 669 17 647 42 669 b 135 610 97 668 119 653 l 338 103 l 517 606 b 585 668 532 657 560 669 b 633 640 610 668 635 647 l 311 -207 b 246 -267 296 -254 272 -267 "},"ų":{"ha":751,"x_min":0,"x_max":0,"o":"m 588 -276 b 461 -162 513 -276 461 -232 b 589 7 461 -103 501 -42 b 567 63 578 17 569 35 b 565 114 567 79 565 97 b 338 -15 521 40 444 -15 b 83 274 167 -15 83 103 l 83 619 b 128 668 83 656 101 668 l 139 668 b 183 619 165 668 183 657 l 183 281 b 358 74 183 153 246 74 b 563 208 454 74 526 128 l 563 619 b 606 668 563 656 581 668 l 618 668 b 663 619 644 668 663 657 l 663 6 b 656 1 663 4 660 3 b 542 -143 574 -58 542 -103 b 594 -197 542 -175 564 -197 b 649 -169 618 -197 636 -187 b 688 -214 667 -171 688 -186 b 588 -276 688 -250 644 -276 "},"ů":{"ha":751,"x_min":0,"x_max":0,"o":"m 372 736 b 214 888 279 736 214 799 b 374 1040 214 978 282 1040 b 531 888 467 1040 531 978 b 372 736 531 800 464 736 m 372 979 b 282 888 321 979 282 940 b 372 799 282 838 322 799 b 461 888 424 799 461 836 b 372 979 461 940 424 979 m 618 668 b 663 621 644 668 663 657 l 663 6 b 626 -6 663 3 646 -6 b 568 60 599 -6 574 8 b 565 114 567 78 565 96 b 338 -15 521 40 444 -15 b 83 274 167 -15 83 103 l 83 621 b 128 668 83 657 101 668 l 139 668 b 183 621 165 668 183 657 l 183 281 b 358 74 183 153 246 74 b 563 208 454 74 526 128 l 563 621 b 606 668 563 657 581 668 l 618 668 "},"ũ":{"ha":751,"x_min":0,"x_max":0,"o":"m 215 786 b 183 799 203 786 193 790 b 179 833 179 807 179 821 b 286 954 186 900 225 954 b 386 907 328 954 358 931 b 461 849 417 879 438 861 b 538 946 501 867 499 946 b 568 935 550 946 561 942 b 574 897 572 924 574 910 b 467 779 567 831 528 779 b 367 825 425 779 396 800 b 293 883 338 850 318 871 b 215 786 256 864 254 786 m 618 668 b 663 621 644 668 663 657 l 663 6 b 626 -6 663 3 646 -6 b 568 60 599 -6 574 8 b 565 114 567 78 565 96 b 338 -15 521 40 444 -15 b 83 274 167 -15 83 103 l 83 621 b 128 668 83 657 101 668 l 139 668 b 183 621 165 668 183 657 l 183 281 b 358 74 183 153 246 74 b 563 208 454 74 526 128 l 563 621 b 606 668 563 657 581 668 l 618 668 "},"v":{"ha":654,"x_min":0,"x_max":0,"o":"m 19 639 b 72 669 19 647 43 669 b 138 607 99 668 121 654 l 328 89 l 519 607 b 585 668 536 656 561 669 b 635 639 614 667 635 647 l 392 28 b 326 -7 383 3 364 -7 b 263 25 289 -7 272 1 "},"w":{"ha":936,"x_min":0,"x_max":0,"o":"m 261 -7 b 196 28 219 -7 203 3 l 35 640 b 92 669 33 646 64 669 b 147 608 114 668 138 654 l 265 94 l 406 533 b 471 571 413 560 431 571 b 536 533 511 571 528 560 l 675 96 l 792 608 b 849 668 801 657 828 669 b 903 640 878 668 903 644 l 742 28 b 676 -7 736 3 718 -7 b 613 31 633 -7 622 3 l 469 465 l 324 31 b 261 -7 315 3 303 -7 "},"":{"ha":936,"x_min":0,"x_max":0,"o":"m 261 -7 b 324 31 303 -7 315 3 l 469 465 l 613 31 b 676 -7 622 3 633 -7 b 742 28 718 -7 736 3 l 903 640 b 849 668 903 644 878 668 b 792 608 828 669 801 657 l 675 96 l 536 533 b 471 571 528 560 511 571 b 406 533 431 571 413 560 l 265 94 l 147 608 b 92 669 138 654 114 668 b 35 640 64 669 33 646 l 196 28 b 261 -7 203 3 219 -7 "},"ẃ":{"ha":936,"x_min":0,"x_max":0,"o":"m 372 763 b 360 768 363 763 360 765 b 571 992 360 782 489 992 b 614 947 596 992 614 972 b 372 763 614 868 386 763 m 261 -7 b 196 28 219 -7 203 3 l 35 640 b 92 669 33 646 64 669 b 147 608 114 668 138 654 l 265 94 l 406 533 b 471 571 413 560 431 571 b 536 533 511 571 528 560 l 675 96 l 792 608 b 849 668 801 657 828 669 b 903 640 878 668 903 644 l 742 28 b 676 -7 736 3 718 -7 b 613 31 633 -7 622 3 l 469 465 l 324 31 b 261 -7 315 3 303 -7 "},"ŵ":{"ha":936,"x_min":0,"x_max":0,"o":"m 322 763 b 285 797 301 763 285 778 b 468 999 285 856 429 985 b 651 797 507 985 651 856 b 615 763 651 778 636 763 b 468 918 589 763 558 786 b 322 763 376 786 349 763 m 261 -7 b 196 28 219 -7 203 3 l 35 640 b 92 669 33 646 64 669 b 147 608 114 668 138 654 l 265 94 l 406 533 b 471 571 413 560 431 571 b 536 533 511 571 528 560 l 675 96 l 792 608 b 849 668 801 657 828 669 b 903 640 878 668 903 644 l 742 28 b 676 -7 736 3 718 -7 b 613 31 633 -7 622 3 l 469 465 l 324 31 b 261 -7 315 3 303 -7 "},"ẅ":{"ha":936,"x_min":0,"x_max":0,"o":"m 350 808 b 290 869 311 808 290 829 b 350 933 290 911 311 933 b 410 871 389 933 410 911 b 350 808 410 829 389 808 m 586 808 b 526 869 547 808 526 829 b 586 933 526 911 547 933 b 646 871 625 933 646 911 b 586 808 646 829 625 808 m 261 -7 b 196 28 219 -7 203 3 l 35 640 b 92 669 33 646 64 669 b 147 608 114 668 138 654 l 265 94 l 406 533 b 471 571 413 560 431 571 b 536 533 511 571 528 560 l 675 96 l 792 608 b 849 668 801 657 828 669 b 903 640 878 668 903 644 l 742 28 b 676 -7 736 3 718 -7 b 613 31 633 -7 622 3 l 469 465 l 324 31 b 261 -7 315 3 303 -7 "},"ẁ":{"ha":936,"x_min":0,"x_max":0,"o":"m 564 763 b 322 947 550 763 322 868 b 365 992 322 972 340 992 b 576 768 447 992 576 782 b 564 763 576 765 574 763 m 261 -7 b 196 28 219 -7 203 3 l 35 640 b 92 669 33 646 64 669 b 147 608 114 668 138 654 l 265 94 l 406 533 b 471 571 413 560 431 571 b 536 533 511 571 528 560 l 675 96 l 792 608 b 849 668 801 657 828 669 b 903 640 878 668 903 644 l 742 28 b 676 -7 736 3 718 -7 b 613 31 633 -7 622 3 l 469 465 l 324 31 b 261 -7 315 3 303 -7 "},"x":{"ha":643,"x_min":0,"x_max":0,"o":"m 258 332 l 35 631 b 86 668 32 636 51 668 b 153 624 118 668 135 653 l 324 389 l 492 622 b 557 668 513 657 533 668 b 610 631 593 668 614 635 l 385 332 l 607 33 b 554 -6 611 26 592 -6 b 490 39 524 -6 507 11 l 318 275 l 150 40 b 85 -6 132 11 113 -6 b 32 33 50 -6 28 28 "},"y":{"ha":650,"x_min":0,"x_max":0,"o":"m 246 -267 b 194 -239 218 -267 193 -246 l 308 38 b 258 69 282 39 268 46 l 18 639 b 72 669 17 647 42 669 b 135 610 97 668 119 653 l 338 103 l 517 606 b 585 668 532 657 560 669 b 633 640 610 668 635 647 l 311 -207 b 246 -267 296 -254 272 -267 "},"":{"ha":650,"x_min":0,"x_max":0,"o":"m 246 -267 b 311 -207 272 -267 296 -254 l 633 640 b 585 668 635 647 610 668 b 517 606 560 669 532 657 l 338 103 l 135 610 b 72 669 119 653 97 668 b 18 639 42 669 17 647 l 258 69 b 308 38 268 46 282 39 l 194 -239 b 246 -267 193 -246 218 -267 "},"ý":{"ha":650,"x_min":0,"x_max":0,"o":"m 229 763 b 217 768 219 763 217 765 b 428 992 217 782 346 992 b 471 947 453 992 471 972 b 229 763 471 868 243 763 m 246 -267 b 194 -239 218 -267 193 -246 l 308 38 b 258 69 282 39 268 46 l 18 639 b 72 669 17 647 42 669 b 135 610 97 668 119 653 l 338 103 l 517 606 b 585 668 532 657 560 669 b 633 640 610 668 635 647 l 311 -207 b 246 -267 296 -254 272 -267 "},"ŷ":{"ha":650,"x_min":0,"x_max":0,"o":"m 179 763 b 142 797 158 763 142 778 b 325 999 142 856 286 985 b 508 797 364 985 508 856 b 472 763 508 778 493 763 b 325 918 446 763 415 786 b 179 763 233 786 206 763 m 246 -267 b 194 -239 218 -267 193 -246 l 308 38 b 258 69 282 39 268 46 l 18 639 b 72 669 17 647 42 669 b 135 610 97 668 119 653 l 338 103 l 517 606 b 585 668 532 657 560 669 b 633 640 610 668 635 647 l 311 -207 b 246 -267 296 -254 272 -267 "},"ÿ":{"ha":650,"x_min":0,"x_max":0,"o":"m 207 808 b 147 869 168 808 147 829 b 207 933 147 911 168 933 b 267 871 246 933 267 911 b 207 808 267 829 246 808 m 443 808 b 383 869 404 808 383 829 b 443 933 383 911 404 933 b 503 871 482 933 503 911 b 443 808 503 829 482 808 m 246 -267 b 194 -239 218 -267 193 -246 l 308 38 b 258 69 282 39 268 46 l 18 639 b 72 669 17 647 42 669 b 135 610 97 668 119 653 l 338 103 l 517 606 b 585 668 532 657 560 669 b 633 640 610 668 635 647 l 311 -207 b 246 -267 296 -254 272 -267 "},"ỳ":{"ha":650,"x_min":0,"x_max":0,"o":"m 421 763 b 179 947 407 763 179 868 b 222 992 179 972 197 992 b 433 768 304 992 433 782 b 421 763 433 765 431 763 m 246 -267 b 194 -239 218 -267 193 -246 l 308 38 b 258 69 282 39 268 46 l 18 639 b 72 669 17 647 42 669 b 135 610 97 668 119 653 l 338 103 l 517 606 b 585 668 532 657 560 669 b 633 640 610 668 635 647 l 311 -207 b 246 -267 296 -254 272 -267 "},"z":{"ha":639,"x_min":0,"x_max":0,"o":"m 49 50 b 81 113 49 71 57 83 l 456 579 l 97 579 b 51 617 65 579 51 592 l 51 626 b 97 663 51 650 65 663 l 539 663 b 583 624 572 663 583 644 l 583 617 b 553 557 583 599 575 586 l 171 83 l 547 83 b 594 46 581 83 594 71 l 594 38 b 547 0 594 13 581 0 l 93 0 b 49 40 61 0 49 18 "},"ź":{"ha":639,"x_min":0,"x_max":0,"o":"m 225 763 b 213 768 215 763 213 765 b 424 992 213 782 342 992 b 467 947 449 992 467 972 b 225 763 467 868 239 763 m 49 50 b 81 113 49 71 57 83 l 456 579 l 97 579 b 51 617 65 579 51 592 l 51 626 b 97 663 51 650 65 663 l 539 663 b 583 624 572 663 583 644 l 583 617 b 553 557 583 599 575 586 l 171 83 l 547 83 b 594 46 581 83 594 71 l 594 38 b 547 0 594 13 581 0 l 93 0 b 49 40 61 0 49 18 "},"ž":{"ha":639,"x_min":0,"x_max":0,"o":"m 321 756 b 138 957 282 769 138 900 b 175 993 138 978 154 993 b 321 838 201 993 231 969 b 467 993 411 969 440 993 b 504 957 488 993 504 978 b 321 756 504 900 360 769 m 49 50 b 81 113 49 71 57 83 l 456 579 l 97 579 b 51 617 65 579 51 592 l 51 626 b 97 663 51 650 65 663 l 539 663 b 583 624 572 663 583 644 l 583 617 b 553 557 583 599 575 586 l 171 83 l 547 83 b 594 46 581 83 594 71 l 594 38 b 547 0 594 13 581 0 l 93 0 b 49 40 61 0 49 18 "},"ż":{"ha":639,"x_min":0,"x_max":0,"o":"m 321 808 b 257 871 281 808 257 831 b 322 935 257 913 281 935 b 385 872 361 935 385 913 b 321 808 385 831 361 808 m 49 50 b 81 113 49 71 57 83 l 456 579 l 97 579 b 51 617 65 579 51 592 l 51 626 b 97 663 51 650 65 663 l 539 663 b 583 624 572 663 583 644 l 583 617 b 553 557 583 599 575 586 l 171 83 l 547 83 b 594 46 581 83 594 71 l 594 38 b 547 0 594 13 581 0 l 93 0 b 49 40 61 0 49 18 "},"ﬀ":{"ha":899,"x_min":0,"x_max":0,"o":"m 149 578 l 56 578 b 13 617 24 578 13 592 l 13 625 b 56 663 13 650 24 663 l 149 663 l 149 729 b 342 960 149 883 219 960 b 454 926 394 960 431 947 b 476 879 469 914 476 897 b 451 835 476 849 454 832 b 351 875 432 857 392 875 b 244 721 279 875 244 829 l 244 663 l 372 663 b 417 625 404 663 417 649 l 417 617 b 372 578 417 592 404 578 l 247 578 l 247 43 b 204 -4 247 8 231 -4 l 193 -4 b 149 43 167 -4 149 7 m 599 578 l 506 578 b 463 617 474 578 463 592 l 463 625 b 506 663 463 650 474 663 l 599 663 l 599 729 b 792 960 599 883 669 960 b 904 926 844 960 881 947 b 926 879 919 914 926 897 b 901 835 926 849 904 832 b 801 875 882 857 842 875 b 694 721 729 875 694 829 l 694 663 l 822 663 b 867 625 854 663 867 649 l 867 617 b 822 578 867 592 854 578 l 697 578 l 697 43 b 654 -4 697 8 681 -4 l 643 -4 b 599 43 617 -4 599 7 "},"ﬃ":{"ha":1193,"x_min":0,"x_max":0,"o":"m 149 578 l 56 578 b 13 617 24 578 13 592 l 13 625 b 56 663 13 650 24 663 l 149 663 l 149 729 b 342 960 149 883 219 960 b 454 926 394 960 431 947 b 476 879 469 914 476 897 b 451 835 476 849 454 832 b 351 875 432 857 392 875 b 244 721 279 875 244 829 l 244 663 l 372 663 b 417 625 404 663 417 649 l 417 617 b 372 578 417 592 404 578 l 247 578 l 247 43 b 204 -4 247 8 231 -4 l 193 -4 b 149 43 167 -4 149 7 m 599 578 l 506 578 b 463 617 474 578 463 592 l 463 625 b 506 663 463 650 474 663 l 599 663 l 599 729 b 792 960 599 883 669 960 b 904 926 844 960 881 947 b 926 879 919 914 926 897 b 901 835 926 849 904 832 b 801 875 882 857 842 875 b 694 721 729 875 694 829 l 694 663 l 822 663 b 867 625 854 663 867 649 l 867 617 b 822 578 867 592 854 578 l 697 578 l 697 43 b 654 -4 697 8 681 -4 l 643 -4 b 599 43 617 -4 599 7 m 985 871 b 1049 935 985 913 1008 935 b 1113 871 1089 935 1113 913 b 1047 808 1113 831 1088 808 b 985 871 1008 808 985 831 m 997 619 b 1042 668 997 656 1015 668 l 1053 668 b 1097 619 1079 668 1097 657 l 1097 43 b 1053 -4 1097 7 1079 -4 l 1042 -4 b 997 43 1015 -4 997 7 "},"ﬄ":{"ha":1190,"x_min":0,"x_max":0,"o":"m 149 578 l 56 578 b 13 617 24 578 13 592 l 13 625 b 56 663 13 650 24 663 l 149 663 l 149 729 b 342 960 149 883 219 960 b 454 926 394 960 431 947 b 476 879 469 914 476 897 b 451 835 476 849 454 832 b 351 875 432 857 392 875 b 244 721 279 875 244 829 l 244 663 l 372 663 b 417 625 404 663 417 649 l 417 617 b 372 578 417 592 404 578 l 247 578 l 247 43 b 204 -4 247 8 231 -4 l 193 -4 b 149 43 167 -4 149 7 m 599 578 l 506 578 b 463 617 474 578 463 592 l 463 625 b 506 663 463 650 474 663 l 599 663 l 599 729 b 792 960 599 883 669 960 b 904 926 844 960 881 947 b 926 879 919 914 926 897 b 901 835 926 849 904 832 b 801 875 882 857 842 875 b 694 721 729 875 694 829 l 694 663 l 822 663 b 867 625 854 663 867 649 l 867 617 b 822 578 867 592 854 578 l 697 578 l 697 43 b 654 -4 697 8 681 -4 l 643 -4 b 599 43 617 -4 599 7 m 1039 -4 b 994 43 1013 -4 994 7 l 994 936 b 1031 947 994 940 1011 947 b 1094 858 1063 947 1094 931 l 1094 43 b 1050 -4 1094 7 1076 -4 l 1039 -4 "},"ﬁ":{"ha":743,"x_min":0,"x_max":0,"o":"m 149 578 l 56 578 b 13 617 24 578 13 592 l 13 625 b 56 663 13 650 24 663 l 149 663 l 149 729 b 342 960 149 883 219 960 b 454 926 394 960 431 947 b 476 879 469 914 476 897 b 451 835 476 849 454 832 b 351 875 432 857 392 875 b 244 721 279 875 244 829 l 244 663 l 372 663 b 417 625 404 663 417 649 l 417 617 b 372 578 417 592 404 578 l 247 578 l 247 43 b 204 -4 247 8 231 -4 l 193 -4 b 149 43 167 -4 149 7 m 535 871 b 599 935 535 913 558 935 b 663 871 639 935 663 913 b 597 808 663 831 638 808 b 535 871 558 808 535 831 m 547 619 b 592 668 547 656 565 668 l 603 668 b 647 619 629 668 647 657 l 647 43 b 603 -4 647 7 629 -4 l 592 -4 b 547 43 565 -4 547 7 "},"ﬂ":{"ha":740,"x_min":0,"x_max":0,"o":"m 149 578 l 56 578 b 13 617 24 578 13 592 l 13 625 b 56 663 13 650 24 663 l 149 663 l 149 729 b 342 960 149 883 219 960 b 454 926 394 960 431 947 b 476 879 469 914 476 897 b 451 835 476 849 454 832 b 351 875 432 857 392 875 b 244 721 279 875 244 829 l 244 663 l 372 663 b 417 625 404 663 417 649 l 417 617 b 372 578 417 592 404 578 l 247 578 l 247 43 b 204 -4 247 8 231 -4 l 193 -4 b 149 43 167 -4 149 7 m 589 -4 b 544 43 563 -4 544 7 l 544 936 b 581 947 544 940 561 947 b 644 858 613 947 644 931 l 644 43 b 600 -4 644 7 626 -4 l 589 -4 "},"ª":{"ha":581,"x_min":0,"x_max":0,"o":"m 235 358 b 44 506 118 358 44 414 b 417 685 44 613 124 672 l 417 701 b 274 838 415 785 368 838 b 117 746 194 838 144 796 b 67 789 114 743 67 749 b 107 857 67 807 81 833 b 281 914 142 888 197 914 b 506 692 433 914 506 829 l 506 376 b 474 365 506 372 490 365 b 421 425 449 365 425 376 b 419 460 421 436 421 447 b 235 358 386 399 315 358 m 254 426 b 418 563 346 426 418 489 l 418 629 b 132 511 183 618 132 576 b 254 426 132 458 179 426 "},"º":{"ha":642,"x_min":0,"x_max":0,"o":"m 321 358 b 53 635 165 358 53 476 b 322 914 53 792 169 914 b 589 636 476 914 589 794 b 321 358 589 479 474 358 m 321 435 b 503 636 428 435 503 519 b 322 838 503 753 426 838 b 139 636 215 838 139 753 b 321 435 139 521 217 435 "},"μ":{"ha":757,"x_min":0,"x_max":0,"o":"m 624 668 b 668 619 650 668 668 657 l 668 6 b 632 -6 668 3 651 -6 b 578 56 608 -6 585 7 b 571 108 574 72 572 90 b 379 -15 535 40 476 -15 b 189 94 288 -15 221 32 l 189 -221 b 144 -268 189 -256 171 -268 l 135 -268 b 90 -221 108 -268 90 -256 l 90 619 b 133 668 90 656 107 668 l 144 668 b 189 619 171 668 189 657 l 189 267 b 379 75 189 149 265 75 b 568 210 474 75 535 128 l 568 619 b 613 668 568 656 586 668 l 624 668 "},"π":{"ha":1018,"x_min":0,"x_max":0,"o":"m 507 -15 b 64 447 258 -15 64 175 b 508 914 64 717 263 914 b 957 451 760 914 957 724 b 507 -15 957 182 753 -15 m 510 46 b 890 450 724 46 890 211 b 507 854 890 685 719 854 b 131 449 293 854 131 689 b 510 46 131 214 296 46 m 396 197 b 365 236 375 197 365 213 l 365 636 b 406 681 365 663 381 681 l 531 681 b 707 525 643 681 707 626 b 532 368 707 422 643 368 l 440 368 l 440 232 b 407 197 440 211 429 197 l 396 197 m 531 431 b 633 524 597 431 633 465 b 528 615 633 583 596 615 l 439 615 l 439 431 "},"⁰":{"ha":469,"x_min":0,"x_max":0,"o":"m 233 524 b 28 761 106 524 28 611 l 28 810 b 235 1049 28 958 107 1049 b 440 811 363 1049 440 960 l 440 763 b 233 524 440 613 363 524 m 235 596 b 354 756 310 596 354 653 l 354 817 b 233 976 354 918 310 976 b 115 817 158 976 115 919 l 115 756 b 235 596 115 654 158 596 "},"¹":{"ha":468,"x_min":0,"x_max":0,"o":"m 108 532 b 67 567 82 532 67 543 l 67 569 b 108 607 67 596 82 607 l 210 607 l 210 926 b 139 896 193 907 167 896 b 83 915 118 896 96 903 b 64 956 71 925 64 940 b 90 999 64 985 86 1000 b 144 976 103 985 119 976 b 222 1043 182 976 218 1003 l 253 1043 b 293 1000 278 1043 293 1029 l 293 607 l 379 607 b 419 569 406 607 419 596 l 419 567 b 378 532 419 543 406 532 l 108 532 "},"²":{"ha":468,"x_min":0,"x_max":0,"o":"m 110 532 b 54 579 68 532 54 544 l 54 603 b 210 788 54 706 125 747 b 332 894 276 819 332 843 b 233 976 332 942 296 976 b 115 879 161 976 126 928 b 54 919 114 876 54 874 b 103 1004 54 944 71 979 b 240 1049 135 1031 181 1049 b 417 897 353 1049 417 989 b 272 739 417 807 350 774 b 132 619 203 707 139 686 b 129 606 131 615 129 611 l 382 606 b 424 572 411 606 424 593 l 424 568 b 382 532 424 543 411 532 l 110 532 "},"³":{"ha":468,"x_min":0,"x_max":0,"o":"m 221 524 b 94 557 167 524 125 538 b 33 636 54 579 33 611 b 88 679 33 682 85 683 b 219 592 103 628 150 592 b 338 681 289 592 338 628 b 226 764 338 733 294 764 l 190 764 b 150 794 161 764 150 775 l 150 800 b 190 829 150 819 163 829 l 235 829 b 326 901 289 829 326 858 b 219 979 326 949 283 979 b 99 901 153 979 114 942 b 47 944 97 899 47 901 b 97 1014 47 968 65 994 b 221 1049 126 1033 169 1049 b 406 911 340 1049 406 997 b 318 803 406 854 372 818 b 418 675 381 783 418 739 b 221 524 418 581 346 524 "},"⁴":{"ha":469,"x_min":0,"x_max":0,"o":"m 317 528 b 281 571 293 528 281 544 l 281 667 l 78 667 b 25 706 44 667 25 683 l 25 721 b 46 771 26 738 32 750 l 221 1008 b 297 1044 239 1038 251 1044 b 360 986 343 1044 360 1028 l 360 736 l 414 736 b 450 703 440 736 450 725 l 450 700 b 414 667 450 676 440 667 l 360 667 l 360 571 b 322 528 360 542 349 528 l 317 528 m 283 735 l 282 979 l 101 735 "},"⁵":{"ha":468,"x_min":0,"x_max":0,"o":"m 226 524 b 92 558 169 524 124 538 b 43 621 61 576 43 600 b 82 664 43 649 79 667 b 225 592 111 619 161 592 b 343 689 297 592 343 629 b 229 785 343 747 299 785 b 117 750 183 785 142 769 b 63 804 81 753 63 768 l 63 988 b 108 1039 63 1019 78 1039 l 357 1039 b 400 1004 385 1039 400 1028 l 400 1000 b 357 965 400 976 385 965 l 139 965 l 139 826 b 242 847 165 838 199 847 b 424 690 350 847 424 788 b 226 524 424 588 347 524 "},"⁶":{"ha":469,"x_min":0,"x_max":0,"o":"m 247 524 b 42 758 119 524 42 613 l 42 807 b 256 1049 42 960 122 1049 b 371 1019 304 1049 343 1036 b 417 954 401 1001 417 976 b 372 914 417 919 374 913 b 260 978 354 947 319 978 b 128 808 176 978 128 918 l 128 783 b 269 847 154 819 206 847 b 435 704 368 847 432 792 l 435 697 b 247 524 435 594 360 524 m 247 588 b 354 690 311 588 354 631 l 354 696 b 250 788 353 756 314 788 b 129 722 196 788 154 756 b 135 685 131 708 132 696 b 247 588 149 625 185 588 "},"⁷":{"ha":468,"x_min":0,"x_max":0,"o":"m 163 529 b 118 561 133 529 114 556 l 339 961 l 89 961 b 47 997 61 961 47 972 l 47 1004 b 89 1039 47 1029 61 1039 l 369 1039 b 429 994 421 1039 429 1018 l 429 988 b 401 921 429 967 413 942 l 208 561 b 163 529 196 536 178 529 "},"⁸":{"ha":469,"x_min":0,"x_max":0,"o":"m 233 524 b 35 669 108 524 35 581 b 143 793 35 729 69 774 b 51 908 79 811 51 851 b 235 1049 51 992 122 1049 b 417 908 349 1049 417 994 b 325 794 417 853 388 813 b 433 669 399 775 433 731 b 233 524 433 582 358 524 m 235 817 b 338 899 299 817 338 849 b 233 983 338 949 300 983 b 131 899 168 983 131 950 b 235 817 131 850 171 817 m 235 589 b 350 678 310 589 350 625 b 233 768 350 731 306 768 b 118 678 161 768 118 731 b 235 589 118 625 161 589 "},"⁹":{"ha":469,"x_min":0,"x_max":0,"o":"m 214 524 b 100 550 165 524 128 535 b 50 617 67 568 50 593 b 94 657 50 651 93 658 b 210 593 113 622 149 593 b 335 693 278 593 319 626 b 342 758 339 713 342 735 l 342 782 b 201 717 317 744 267 717 b 36 871 101 717 36 775 b 222 1049 36 971 110 1049 b 426 814 349 1049 426 963 l 426 764 b 214 524 426 607 351 524 m 221 774 b 342 840 274 774 315 803 l 342 851 b 224 982 336 922 297 982 b 115 875 160 982 115 933 b 221 774 115 810 154 774 "},"⁄":{"ha":188,"x_min":0,"x_max":0,"o":"m -225 -39 b -265 -8 -231 -44 -267 -39 b -239 54 -265 14 -261 24 b 57 424 -214 89 -51 288 b 411 881 167 563 404 868 b 453 850 415 883 453 882 b 424 788 453 833 444 814 b 131 418 400 754 238 556 b -225 -39 21 279 -217 -26 "},"½":{"ha":1125,"x_min":0,"x_max":0,"o":"m 108 393 b 67 428 82 393 67 404 l 67 431 b 108 468 67 457 82 468 l 210 468 l 210 788 b 139 757 193 768 167 757 b 83 776 118 757 96 764 b 64 817 71 786 64 801 b 90 860 64 846 86 861 b 144 838 103 846 119 838 b 222 904 182 838 218 864 l 253 904 b 293 861 278 904 293 890 l 293 468 l 379 468 b 419 431 406 468 419 457 l 419 428 b 378 393 419 404 406 393 l 108 393 m 243 -39 b 203 -8 238 -44 201 -39 b 229 54 203 14 207 24 b 525 424 254 89 417 288 b 879 881 635 563 872 868 b 921 850 883 883 921 882 b 892 788 921 833 913 814 b 599 418 868 754 706 556 b 243 -39 489 279 251 -26 m 765 0 b 710 47 724 0 710 13 l 710 69 b 865 254 710 174 781 215 b 988 363 932 288 988 310 b 889 444 988 410 951 444 b 771 347 817 444 782 396 b 710 388 769 343 710 342 b 758 472 710 413 726 447 b 896 517 790 499 836 517 b 1072 365 1008 517 1072 457 b 928 207 1072 275 1006 242 b 788 88 858 175 794 153 b 785 74 786 82 785 79 l 1038 74 b 1079 40 1067 74 1079 61 l 1079 36 b 1038 0 1079 11 1067 0 l 765 0 "},"⅓":{"ha":1125,"x_min":0,"x_max":0,"o":"m 108 393 b 67 428 82 393 67 404 l 67 431 b 108 468 67 457 82 468 l 210 468 l 210 788 b 139 757 193 768 167 757 b 83 776 118 757 96 764 b 64 817 71 786 64 801 b 90 860 64 846 86 861 b 144 838 103 846 119 838 b 222 904 182 838 218 864 l 253 904 b 293 861 278 904 293 890 l 293 468 l 379 468 b 419 431 406 468 419 457 l 419 428 b 378 393 419 404 406 393 l 108 393 m 243 -39 b 203 -8 238 -44 201 -39 b 229 54 203 14 207 24 b 525 424 254 89 417 288 b 879 881 635 563 872 868 b 921 850 883 883 921 882 b 892 788 921 833 913 814 b 599 418 868 754 706 556 b 243 -39 489 279 251 -26 m 876 -8 b 750 25 822 -8 781 4 b 689 104 710 47 689 79 b 743 147 689 149 740 151 b 875 60 758 96 806 60 b 993 149 944 60 993 96 b 882 232 993 201 950 232 l 846 232 b 806 263 817 232 806 243 l 806 268 b 846 297 806 288 818 297 l 890 297 b 982 369 944 297 982 326 b 875 447 982 415 939 447 b 754 369 808 447 769 408 b 703 413 753 367 703 369 b 753 482 703 436 721 463 b 876 517 782 501 825 517 b 1061 379 996 517 1061 465 b 974 271 1061 321 1028 286 b 1074 143 1036 251 1074 207 b 876 -8 1074 49 1001 -8 "},"⅔":{"ha":1125,"x_min":0,"x_max":0,"o":"m 110 393 b 54 440 68 393 54 406 l 54 464 b 210 649 54 567 125 608 b 332 756 276 681 332 704 b 233 838 332 803 296 838 b 115 740 161 838 126 789 b 54 781 114 738 54 735 b 103 865 54 806 71 840 b 240 910 135 892 181 910 b 417 758 353 910 417 850 b 272 600 417 668 350 635 b 132 481 203 568 139 547 b 129 467 131 476 129 472 l 382 467 b 424 433 411 467 424 454 l 424 429 b 382 393 424 404 411 393 l 110 393 m 243 -39 b 203 -8 238 -44 201 -39 b 229 54 203 14 207 24 b 525 424 254 89 417 288 b 879 881 635 563 872 868 b 921 850 883 883 921 882 b 892 788 921 833 913 814 b 599 418 868 754 706 556 b 243 -39 489 279 251 -26 m 878 -8 b 751 25 824 -8 782 4 b 690 104 711 47 690 79 b 744 147 690 149 742 151 b 876 60 760 96 807 60 b 994 149 946 60 994 96 b 883 232 994 201 951 232 l 847 232 b 807 263 818 232 807 243 l 807 268 b 847 297 807 288 819 297 l 892 297 b 983 369 946 297 983 326 b 876 447 983 415 940 447 b 756 369 810 447 771 408 b 704 413 754 367 704 369 b 754 482 704 436 722 463 b 878 517 783 501 826 517 b 1063 379 997 517 1063 465 b 975 271 1063 321 1029 286 b 1075 143 1038 251 1075 207 b 878 -8 1075 49 1003 -8 "},"¼":{"ha":1076,"x_min":0,"x_max":0,"o":"m 108 393 b 67 428 82 393 67 404 l 67 431 b 108 468 67 457 82 468 l 210 468 l 210 788 b 139 757 193 768 167 757 b 83 776 118 757 96 764 b 64 817 71 786 64 801 b 90 860 64 846 86 861 b 144 838 103 846 119 838 b 222 904 182 838 218 864 l 253 904 b 293 861 278 904 293 890 l 293 468 l 379 468 b 419 431 406 468 419 457 l 419 428 b 378 393 419 404 406 393 l 108 393 m 243 -39 b 203 -8 238 -44 201 -39 b 229 54 203 14 207 24 b 525 424 254 89 417 288 b 879 881 635 563 872 868 b 921 850 883 883 921 882 b 892 788 921 833 913 814 b 599 418 868 754 706 556 b 243 -39 489 279 251 -26 m 924 -4 b 888 38 900 -4 888 13 l 888 135 l 685 135 b 632 172 653 135 632 150 l 632 189 b 653 239 633 206 639 218 l 828 476 b 904 513 846 506 860 513 b 967 454 950 513 967 496 l 967 203 l 1021 203 b 1058 171 1047 203 1058 193 l 1058 168 b 1021 135 1058 144 1047 135 l 967 135 l 967 38 b 929 -4 967 10 956 -4 l 924 -4 m 892 201 l 890 447 l 708 201 "},"¾":{"ha":1051,"x_min":0,"x_max":0,"o":"m 221 385 b 94 418 167 385 125 399 b 33 497 54 440 33 472 b 88 540 33 543 85 544 b 219 453 103 489 150 453 b 338 542 289 453 338 489 b 226 625 338 594 294 625 l 190 625 b 150 656 161 625 150 636 l 150 661 b 190 690 150 681 163 690 l 235 690 b 326 763 289 690 326 719 b 219 840 326 810 283 840 b 99 763 153 840 114 803 b 47 806 97 760 47 763 b 97 875 47 829 65 856 b 221 910 126 894 169 910 b 406 772 340 910 406 858 b 318 664 406 715 372 679 b 418 536 381 644 418 600 b 221 385 418 442 346 385 m 218 -39 b 178 -8 213 -44 176 -39 b 204 54 178 14 182 24 b 500 424 229 89 392 288 b 854 881 610 563 847 868 b 896 850 858 883 896 882 b 867 788 896 833 888 814 b 574 418 843 754 681 556 b 218 -39 464 279 226 -26 m 900 -4 b 864 38 876 -4 864 13 l 864 135 l 661 135 b 608 172 629 135 608 150 l 608 189 b 629 239 610 206 615 218 l 804 476 b 881 513 822 506 836 513 b 943 454 926 513 943 496 l 943 203 l 997 203 b 1035 171 1024 203 1035 193 l 1035 168 b 997 135 1035 144 1024 135 l 943 135 l 943 38 b 906 -4 943 10 932 -4 l 900 -4 m 868 201 l 867 447 l 685 201 "},"⅕":{"ha":1146,"x_min":0,"x_max":0,"o":"m 108 393 b 67 428 82 393 67 404 l 67 431 b 108 468 67 457 82 468 l 210 468 l 210 788 b 139 757 193 768 167 757 b 83 776 118 757 96 764 b 64 817 71 786 64 801 b 90 860 64 846 86 861 b 144 838 103 846 119 838 b 222 904 182 838 218 864 l 253 904 b 293 861 278 904 293 890 l 293 468 l 379 468 b 419 431 406 468 419 457 l 419 428 b 378 393 419 404 406 393 l 108 393 m 243 -39 b 203 -8 238 -44 201 -39 b 229 54 203 14 207 24 b 525 424 254 89 417 288 b 879 881 635 563 872 868 b 921 850 883 883 921 882 b 892 788 921 833 913 814 b 599 418 868 754 706 556 b 243 -39 489 279 251 -26 m 904 -8 b 769 26 847 -8 801 6 b 721 89 739 44 721 68 b 760 132 721 117 757 135 b 903 60 789 88 839 60 b 1021 157 975 60 1021 96 b 907 251 1021 215 976 251 b 794 218 861 251 819 238 b 740 272 758 221 740 236 l 740 456 b 786 507 740 488 756 507 l 1035 507 b 1078 472 1063 507 1078 496 l 1078 468 b 1035 433 1078 444 1063 433 l 817 433 l 817 294 b 919 315 843 306 876 315 b 1101 158 1028 315 1101 254 b 904 -8 1101 56 1025 -8 "},"⅖":{"ha":1147,"x_min":0,"x_max":0,"o":"m 110 393 b 54 440 68 393 54 406 l 54 464 b 210 649 54 567 125 608 b 332 756 276 681 332 704 b 233 838 332 803 296 838 b 115 740 161 838 126 789 b 54 781 114 738 54 735 b 103 865 54 806 71 840 b 240 910 135 892 181 910 b 417 758 353 910 417 850 b 272 600 417 668 350 635 b 132 481 203 568 139 547 b 129 467 131 476 129 472 l 382 467 b 424 433 411 467 424 454 l 424 429 b 382 393 424 404 411 393 l 110 393 m 243 -39 b 203 -8 238 -44 201 -39 b 229 54 203 14 207 24 b 525 424 254 89 417 288 b 879 881 635 563 872 868 b 921 850 883 883 921 882 b 892 788 921 833 913 814 b 599 418 868 754 706 556 b 243 -39 489 279 251 -26 m 906 -8 b 771 26 849 -8 803 6 b 722 89 740 44 722 68 b 761 132 722 117 758 135 b 904 60 790 88 840 60 b 1022 157 976 60 1022 96 b 908 251 1022 215 978 251 b 796 218 863 251 821 238 b 742 272 760 221 742 236 l 742 456 b 788 507 742 488 757 507 l 1036 507 b 1079 472 1064 507 1079 496 l 1079 468 b 1036 433 1079 444 1064 433 l 818 433 l 818 294 b 921 315 844 306 878 315 b 1103 158 1029 315 1103 254 b 906 -8 1103 56 1026 -8 "},"⅗":{"ha":1122,"x_min":0,"x_max":0,"o":"m 221 385 b 94 418 167 385 125 399 b 33 497 54 440 33 472 b 88 540 33 543 85 544 b 219 453 103 489 150 453 b 338 542 289 453 338 489 b 226 625 338 594 294 625 l 190 625 b 150 656 161 625 150 636 l 150 661 b 190 690 150 681 163 690 l 235 690 b 326 763 289 690 326 719 b 219 840 326 810 283 840 b 99 763 153 840 114 803 b 47 806 97 760 47 763 b 97 875 47 829 65 856 b 221 910 126 894 169 910 b 406 772 340 910 406 858 b 318 664 406 715 372 679 b 418 536 381 644 418 600 b 221 385 418 442 346 385 m 218 -39 b 178 -8 213 -44 176 -39 b 204 54 178 14 182 24 b 500 424 229 89 392 288 b 854 881 610 563 847 868 b 896 850 858 883 896 882 b 867 788 896 833 888 814 b 574 418 843 754 681 556 b 218 -39 464 279 226 -26 m 881 -8 b 746 26 824 -8 778 6 b 697 89 715 44 697 68 b 736 132 697 117 733 135 b 879 60 765 88 815 60 b 997 157 951 60 997 96 b 883 251 997 215 953 251 b 771 218 838 251 796 238 b 717 272 735 221 717 236 l 717 456 b 763 507 717 488 732 507 l 1011 507 b 1054 472 1039 507 1054 496 l 1054 468 b 1011 433 1054 444 1039 433 l 793 433 l 793 294 b 896 315 819 306 853 315 b 1078 158 1004 315 1078 254 b 881 -8 1078 56 1001 -8 "},"⅘":{"ha":1147,"x_min":0,"x_max":0,"o":"m 317 389 b 281 432 293 389 281 406 l 281 528 l 78 528 b 25 567 44 528 25 544 l 25 582 b 46 632 26 599 32 611 l 221 869 b 297 906 239 899 251 906 b 360 847 343 906 360 889 l 360 597 l 414 597 b 450 564 440 597 450 586 l 450 561 b 414 528 450 538 440 528 l 360 528 l 360 432 b 322 389 360 403 349 389 l 317 389 m 244 -39 b 204 -8 239 -44 203 -39 b 231 54 204 14 208 24 b 526 424 256 89 418 288 b 881 881 636 563 874 868 b 922 850 885 883 922 882 b 893 788 922 833 914 814 b 600 418 869 754 707 556 b 244 -39 490 279 253 -26 m 283 596 l 282 840 l 101 596 m 906 -8 b 771 26 849 -8 803 6 b 722 89 740 44 722 68 b 761 132 722 117 758 135 b 904 60 790 88 840 60 b 1022 157 976 60 1022 96 b 908 251 1022 215 978 251 b 796 218 863 251 821 238 b 742 272 760 221 742 236 l 742 456 b 788 507 742 488 757 507 l 1036 507 b 1079 472 1064 507 1079 496 l 1079 468 b 1036 433 1079 444 1064 433 l 818 433 l 818 294 b 921 315 844 306 878 315 b 1103 158 1029 315 1103 254 b 906 -8 1103 56 1026 -8 "},"⅙":{"ha":1125,"x_min":0,"x_max":0,"o":"m 108 393 b 67 428 82 393 67 404 l 67 431 b 108 468 67 457 82 468 l 210 468 l 210 788 b 139 757 193 768 167 757 b 83 776 118 757 96 764 b 64 817 71 786 64 801 b 90 860 64 846 86 861 b 144 838 103 846 119 838 b 222 904 182 838 218 864 l 253 904 b 293 861 278 904 293 890 l 293 468 l 379 468 b 419 431 406 468 419 457 l 419 428 b 378 393 419 404 406 393 l 108 393 m 243 -39 b 203 -8 238 -44 201 -39 b 229 54 203 14 207 24 b 525 424 254 89 417 288 b 879 881 635 563 872 868 b 921 850 883 883 921 882 b 892 788 921 833 913 814 b 599 418 868 754 706 556 b 243 -39 489 279 251 -26 m 903 -8 b 697 226 775 -8 697 81 l 697 275 b 911 517 697 428 778 517 b 1026 488 960 517 999 504 b 1072 422 1057 469 1072 444 b 1028 382 1072 386 1029 381 b 915 446 1010 415 975 446 b 783 276 832 446 783 386 l 783 250 b 925 314 810 288 861 314 b 1090 172 1024 314 1088 260 l 1090 165 b 903 -8 1090 63 1015 -8 m 903 56 b 1010 158 967 56 1010 99 l 1010 164 b 906 256 1008 224 969 256 b 785 190 851 256 810 224 b 790 153 786 176 788 164 b 903 56 804 93 840 56 "},"⅚":{"ha":1108,"x_min":0,"x_max":0,"o":"m 226 385 b 92 419 169 385 124 399 b 43 482 61 438 43 461 b 82 525 43 510 79 528 b 225 453 111 481 161 453 b 343 550 297 453 343 490 b 229 646 343 608 299 646 b 117 611 183 646 142 631 b 63 665 81 614 63 629 l 63 849 b 108 900 63 881 78 900 l 357 900 b 400 865 385 900 400 889 l 400 861 b 357 826 400 838 385 826 l 139 826 l 139 688 b 242 708 165 699 199 708 b 424 551 350 708 424 649 b 226 385 424 449 347 385 m 226 -39 b 186 -8 221 -44 185 -39 b 213 54 186 14 190 24 b 508 424 238 89 400 288 b 863 881 618 563 856 868 b 904 850 867 883 904 882 b 875 788 904 833 896 814 b 582 418 851 754 689 556 b 226 -39 472 279 235 -26 m 888 -8 b 682 226 760 -8 682 81 l 682 275 b 896 517 682 428 763 517 b 1011 488 944 517 983 504 b 1057 422 1042 469 1057 444 b 1013 382 1057 386 1014 381 b 900 446 994 415 960 446 b 768 276 817 446 768 386 l 768 250 b 910 314 794 288 846 314 b 1075 172 1008 314 1072 260 l 1075 165 b 888 -8 1075 63 1000 -8 m 888 56 b 994 158 951 56 994 99 l 994 164 b 890 256 993 224 954 256 b 769 190 836 256 794 224 b 775 153 771 176 772 164 b 888 56 789 93 825 56 "},"⅐":{"ha":1138,"x_min":0,"x_max":0,"o":"m 108 393 b 67 428 82 393 67 404 l 67 431 b 108 468 67 457 82 468 l 210 468 l 210 788 b 139 757 193 768 167 757 b 83 776 118 757 96 764 b 64 817 71 786 64 801 b 90 860 64 846 86 861 b 144 838 103 846 119 838 b 222 904 182 838 218 864 l 253 904 b 293 861 278 904 293 890 l 293 468 l 379 468 b 419 431 406 468 419 457 l 419 428 b 378 393 419 404 406 393 l 108 393 m 243 -39 b 203 -8 238 -44 201 -39 b 229 54 203 14 207 24 b 525 424 254 89 417 288 b 879 881 635 563 872 868 b 921 850 883 883 921 882 b 892 788 921 833 913 814 b 599 418 868 754 706 556 b 243 -39 489 279 251 -26 m 832 -3 b 788 29 803 -3 783 22 l 1008 429 l 758 429 b 717 465 731 429 717 439 l 717 472 b 758 507 717 496 731 507 l 1039 507 b 1099 463 1090 507 1099 486 l 1099 456 b 1071 389 1099 435 1082 410 l 878 29 b 832 -3 865 4 847 -3 "},"⅛":{"ha":1125,"x_min":0,"x_max":0,"o":"m 108 393 b 67 428 82 393 67 404 l 67 431 b 108 468 67 457 82 468 l 210 468 l 210 788 b 139 757 193 768 167 757 b 83 776 118 757 96 764 b 64 817 71 786 64 801 b 90 860 64 846 86 861 b 144 838 103 846 119 838 b 222 904 182 838 218 864 l 253 904 b 293 861 278 904 293 890 l 293 468 l 379 468 b 419 431 406 468 419 457 l 419 428 b 378 393 419 404 406 393 l 108 393 m 243 -39 b 203 -8 238 -44 201 -39 b 229 54 203 14 207 24 b 525 424 254 89 417 288 b 879 881 635 563 872 868 b 921 850 883 883 921 882 b 892 788 921 833 913 814 b 599 418 868 754 706 556 b 243 -39 489 279 251 -26 m 889 -8 b 690 136 764 -8 690 47 b 799 261 690 197 725 242 b 707 375 735 279 707 319 b 890 517 707 460 778 517 b 1072 376 1004 517 1072 463 b 981 261 1072 321 1043 281 b 1089 136 1054 243 1089 199 b 889 -8 1089 50 1014 -8 m 890 285 b 993 367 954 285 993 317 b 889 451 993 417 956 451 b 786 367 824 451 786 417 b 890 285 786 318 826 285 m 890 56 b 1006 146 965 56 1006 93 b 889 236 1006 199 961 236 b 774 146 817 236 774 199 b 890 56 774 93 817 56 "},"⅜":{"ha":1101,"x_min":0,"x_max":0,"o":"m 221 385 b 94 418 167 385 125 399 b 33 497 54 440 33 472 b 88 540 33 543 85 544 b 219 453 103 489 150 453 b 338 542 289 453 338 489 b 226 625 338 594 294 625 l 190 625 b 150 656 161 625 150 636 l 150 661 b 190 690 150 681 163 690 l 235 690 b 326 763 289 690 326 719 b 219 840 326 810 283 840 b 99 763 153 840 114 803 b 47 806 97 760 47 763 b 97 875 47 829 65 856 b 221 910 126 894 169 910 b 406 772 340 910 406 858 b 318 664 406 715 372 679 b 418 536 381 644 418 600 b 221 385 418 442 346 385 m 218 -39 b 178 -8 213 -44 176 -39 b 204 54 178 14 182 24 b 500 424 229 89 392 288 b 854 881 610 563 847 868 b 896 850 858 883 896 882 b 867 788 896 833 888 814 b 574 418 843 754 681 556 b 218 -39 464 279 226 -26 m 865 -8 b 667 136 740 -8 667 47 b 775 261 667 197 701 242 b 683 375 711 279 683 319 b 867 517 683 460 754 517 b 1049 376 981 517 1049 463 b 957 261 1049 321 1019 281 b 1065 136 1031 243 1065 199 b 865 -8 1065 50 990 -8 m 867 285 b 969 367 931 285 969 317 b 865 451 969 417 932 451 b 763 367 800 451 763 417 b 867 285 763 318 803 285 m 867 56 b 982 146 942 56 982 93 b 865 236 982 199 938 236 b 750 146 793 236 750 199 b 867 56 750 93 793 56 "},"⅝":{"ha":1108,"x_min":0,"x_max":0,"o":"m 226 385 b 92 419 169 385 124 399 b 43 482 61 438 43 461 b 82 525 43 510 79 528 b 225 453 111 481 161 453 b 343 550 297 453 343 490 b 229 646 343 608 299 646 b 117 611 183 646 142 631 b 63 665 81 614 63 629 l 63 849 b 108 900 63 881 78 900 l 357 900 b 400 865 385 900 400 889 l 400 861 b 357 826 400 838 385 826 l 139 826 l 139 688 b 242 708 165 699 199 708 b 424 551 350 708 424 649 b 226 385 424 449 347 385 m 226 -39 b 186 -8 221 -44 185 -39 b 213 54 186 14 190 24 b 508 424 238 89 400 288 b 863 881 618 563 856 868 b 904 850 867 883 904 882 b 875 788 904 833 896 814 b 582 418 851 754 689 556 b 226 -39 472 279 235 -26 m 874 -8 b 675 136 749 -8 675 47 b 783 261 675 197 710 242 b 692 375 719 279 692 319 b 875 517 692 460 763 517 b 1057 376 989 517 1057 463 b 965 261 1057 321 1028 281 b 1074 136 1039 243 1074 199 b 874 -8 1074 50 999 -8 m 875 285 b 978 367 939 285 978 317 b 874 451 978 417 940 451 b 771 367 808 451 771 417 b 875 285 771 318 811 285 m 875 56 b 990 146 950 56 990 93 b 874 236 990 199 946 236 b 758 146 801 236 758 199 b 875 56 758 93 801 56 "},"⅞":{"ha":1029,"x_min":0,"x_max":0,"o":"m 163 390 b 118 422 133 390 114 417 l 339 822 l 89 822 b 47 858 61 822 47 833 l 47 865 b 89 900 47 890 61 900 l 369 900 b 429 856 421 900 429 879 l 429 849 b 401 782 429 828 413 803 l 208 422 b 163 390 196 397 178 390 m 146 -39 b 106 -8 140 -44 104 -39 b 132 54 106 14 110 24 b 428 424 157 89 319 288 b 782 881 538 563 775 868 b 824 850 786 883 824 882 b 794 788 824 833 815 814 b 501 418 771 754 608 556 b 146 -39 392 279 154 -26 m 793 -8 b 594 136 668 -8 594 47 b 703 261 594 197 629 242 b 611 375 639 279 611 319 b 794 517 611 460 682 517 b 976 376 908 517 976 463 b 885 261 976 321 947 281 b 993 136 958 243 993 199 b 793 -8 993 50 918 -8 m 794 285 b 897 367 858 285 897 317 b 793 451 897 417 860 451 b 690 367 728 451 690 417 b 794 285 690 318 731 285 m 794 56 b 910 146 869 56 910 93 b 793 236 910 199 865 236 b 678 146 721 236 678 199 b 794 56 678 93 721 56 "},"⅑":{"ha":1125,"x_min":0,"x_max":0,"o":"m 108 393 b 67 428 82 393 67 404 l 67 431 b 108 468 67 457 82 468 l 210 468 l 210 788 b 139 757 193 768 167 757 b 83 776 118 757 96 764 b 64 817 71 786 64 801 b 90 860 64 846 86 861 b 144 838 103 846 119 838 b 222 904 182 838 218 864 l 253 904 b 293 861 278 904 293 890 l 293 468 l 379 468 b 419 431 406 468 419 457 l 419 428 b 378 393 419 404 406 393 l 108 393 m 243 -39 b 203 -8 238 -44 201 -39 b 229 54 203 14 207 24 b 525 424 254 89 417 288 b 879 881 635 563 872 868 b 921 850 883 883 921 882 b 892 788 921 833 913 814 b 599 418 868 754 706 556 b 243 -39 489 279 251 -26 m 869 -8 b 756 17 821 -8 783 1 b 706 85 722 36 706 61 b 750 125 706 119 749 126 b 865 61 768 90 804 61 b 990 161 933 61 975 94 b 997 226 994 181 997 201 l 997 250 b 857 183 972 213 922 183 b 692 339 757 183 692 243 b 878 517 692 439 765 517 b 1082 282 1004 517 1082 429 l 1082 232 b 869 -8 1082 75 1007 -8 m 876 242 b 997 308 929 242 971 271 l 997 319 b 879 449 992 390 953 449 b 771 343 815 449 771 401 b 876 242 771 278 810 242 "},"⅒":{"ha":1593,"x_min":0,"x_max":0,"o":"m 108 393 b 67 428 82 393 67 404 l 67 431 b 108 468 67 457 82 468 l 210 468 l 210 788 b 139 757 193 768 167 757 b 83 776 118 757 96 764 b 64 817 71 786 64 801 b 90 860 64 846 86 861 b 144 838 103 846 119 838 b 222 904 182 838 218 864 l 253 904 b 293 861 278 904 293 890 l 293 468 l 379 468 b 419 431 406 468 419 457 l 419 428 b 378 393 419 404 406 393 l 108 393 m 243 -39 b 203 -8 238 -44 201 -39 b 229 54 203 14 207 24 b 525 424 254 89 417 288 b 879 881 635 563 872 868 b 921 850 883 883 921 882 b 892 788 921 833 913 814 b 599 418 868 754 706 556 b 243 -39 489 279 251 -26 m 1357 -8 b 1151 228 1229 -8 1151 79 l 1151 278 b 1358 517 1151 425 1231 517 b 1564 279 1486 517 1564 426 l 1564 231 b 1357 -8 1564 81 1486 -8 m 764 0 b 722 35 738 0 722 11 l 722 38 b 764 75 722 64 738 75 l 865 75 l 865 394 b 794 364 849 375 822 364 b 739 383 774 364 751 371 b 719 424 726 393 719 407 b 746 467 719 453 742 468 b 800 444 758 453 775 444 b 878 511 838 444 874 471 l 908 511 b 949 468 933 511 949 497 l 949 75 l 1035 75 b 1075 38 1061 75 1075 64 l 1075 35 b 1033 0 1075 11 1061 0 l 764 0 m 1358 64 b 1478 224 1433 64 1478 121 l 1478 285 b 1357 444 1478 386 1433 444 b 1239 285 1282 444 1239 388 l 1239 224 b 1358 64 1239 122 1282 64 "},".":{"ha":282,"x_min":0,"x_max":0,"o":"m 74 67 b 135 129 74 107 94 129 l 147 129 b 208 67 189 129 208 107 l 208 54 b 147 -8 208 14 188 -8 l 135 -8 b 74 54 94 -8 74 14 "},",":{"ha":281,"x_min":0,"x_max":0,"o":"m 96 83 b 150 136 107 118 115 136 l 160 136 b 203 85 185 136 203 118 l 203 79 b 179 13 203 61 199 42 l 72 -172 b 21 -149 60 -190 11 -179 "},":":{"ha":315,"x_min":0,"x_max":0,"o":"m 90 538 b 150 600 90 576 111 600 l 164 600 b 225 538 206 600 225 576 l 225 525 b 164 464 225 485 204 464 l 150 464 b 90 525 111 464 90 485 m 90 67 b 150 129 90 107 111 129 l 164 129 b 225 67 206 129 225 107 l 225 54 b 164 -8 225 14 204 -8 l 150 -8 b 90 54 111 -8 90 14 "},";":{"ha":315,"x_min":0,"x_max":0,"o":"m 150 464 b 89 525 111 464 89 485 l 89 538 b 150 600 89 576 111 600 l 164 600 b 225 538 204 600 225 576 l 225 525 b 164 464 225 485 204 464 l 150 464 m 88 -172 b 36 -149 76 -190 28 -179 l 113 83 b 167 136 122 118 131 136 l 176 136 b 219 85 201 136 219 118 l 219 79 b 196 13 219 61 215 42 l 88 -172 "},"…":{"ha":847,"x_min":0,"x_max":0,"o":"m 74 67 b 135 129 74 107 94 129 l 147 129 b 208 67 189 129 208 107 l 208 54 b 147 -8 208 14 188 -8 l 135 -8 b 74 54 94 -8 74 14 m 357 67 b 417 129 357 107 376 129 l 429 129 b 490 67 471 129 490 107 l 490 54 b 429 -8 490 14 471 -8 l 417 -8 b 357 54 378 -8 357 14 m 639 67 b 699 129 639 107 660 129 l 713 129 b 774 67 753 129 774 107 l 774 54 b 713 -8 774 14 753 -8 l 699 -8 b 639 54 660 -8 639 14 "},"!":{"ha":336,"x_min":0,"x_max":0,"o":"m 163 253 b 139 289 146 253 140 265 l 107 842 b 151 906 103 885 121 906 l 183 906 b 229 842 215 906 233 885 l 199 288 b 174 253 196 265 192 253 l 163 253 m 161 -8 b 101 54 122 -8 101 14 l 101 67 b 161 129 101 107 121 129 l 175 129 b 235 67 215 129 235 107 l 235 54 b 175 -8 235 14 215 -8 l 161 -8 "},"¡":{"ha":336,"x_min":0,"x_max":0,"o":"m 161 771 b 101 832 121 771 101 792 l 101 844 b 161 907 101 885 122 907 l 175 907 b 235 844 215 907 235 885 l 235 832 b 175 771 235 792 215 771 l 161 771 m 153 -6 b 107 57 121 -6 103 14 l 138 611 b 163 647 140 633 144 647 l 174 647 b 199 611 192 647 196 633 l 229 57 b 185 -6 233 14 215 -6 l 153 -6 "},"?":{"ha":643,"x_min":0,"x_max":0,"o":"m 286 249 b 243 285 258 249 243 261 b 388 529 246 429 321 485 b 504 678 447 569 504 603 b 329 825 504 767 438 825 b 117 639 189 825 131 731 b 44 696 114 635 44 639 b 113 835 44 729 65 789 b 332 914 160 881 232 914 b 606 686 500 914 606 818 b 469 479 606 574 538 525 b 326 274 396 431 331 389 b 286 249 325 257 310 249 m 279 -6 b 224 51 240 -6 224 13 l 224 69 b 279 128 224 110 240 128 l 299 128 b 356 69 339 128 356 110 l 356 51 b 299 -6 356 13 339 -6 l 279 -6 "},"¿":{"ha":596,"x_min":0,"x_max":0,"o":"m 324 769 b 264 832 285 769 264 792 l 264 844 b 324 906 264 883 285 906 l 339 906 b 399 844 378 906 399 883 l 399 832 b 339 769 399 792 378 769 l 324 769 m 292 -14 b 39 213 139 -14 39 78 b 164 419 39 322 103 374 b 292 625 250 483 275 508 b 332 650 296 643 308 650 b 374 613 360 650 374 635 b 240 365 372 483 317 419 b 139 217 192 332 139 294 b 296 74 139 131 199 74 b 478 257 414 74 471 161 b 551 193 486 260 551 264 b 479 50 551 142 522 88 b 292 -14 433 10 371 -14 "},"·":{"ha":299,"x_min":0,"x_max":0,"o":"m 142 275 b 82 336 103 275 82 297 l 82 349 b 142 411 82 389 103 411 l 156 411 b 217 349 196 411 217 389 l 217 336 b 156 275 217 297 196 275 l 142 275 "},"•":{"ha":432,"x_min":0,"x_max":0,"o":"m 81 343 b 217 483 81 422 139 483 b 353 343 293 483 353 422 b 217 203 353 264 293 203 b 81 343 139 203 81 264 "},"*":{"ha":529,"x_min":0,"x_max":0,"o":"m 122 493 b 119 536 111 500 107 514 l 200 658 l 65 711 b 43 746 44 721 40 729 l 43 753 b 86 775 49 772 60 781 l 228 736 l 235 882 b 267 915 236 910 247 915 l 272 915 b 300 882 288 914 297 908 l 306 736 l 446 775 b 490 753 474 781 488 771 l 492 746 b 468 711 494 729 489 721 l 333 658 l 414 536 b 411 493 426 514 422 500 l 406 489 b 358 499 390 478 376 476 l 267 613 l 175 499 b 129 488 157 476 143 478 "},"#":{"ha":890,"x_min":0,"x_max":0,"o":"m 183 -7 b 139 76 157 -7 126 15 b 156 136 143 96 150 115 l 188 240 l 61 240 b 18 278 33 240 18 253 l 18 288 b 61 325 18 314 33 325 l 211 325 l 286 574 l 163 574 b 118 611 133 574 118 585 l 118 619 b 163 658 118 646 133 658 l 311 658 l 383 901 b 399 906 385 904 390 906 b 443 822 426 906 456 883 b 429 767 440 806 435 786 l 396 658 l 618 658 l 690 901 b 707 906 692 904 697 906 b 751 822 733 906 763 883 b 736 769 747 806 743 789 l 703 658 l 829 658 b 872 621 858 658 872 646 l 872 611 b 829 574 872 585 858 574 l 678 574 l 604 325 l 728 325 b 772 289 757 325 772 314 l 772 279 b 728 240 772 253 757 240 l 579 240 l 507 -3 b 492 -7 506 -6 500 -7 b 447 76 465 -7 435 15 b 463 138 451 96 457 117 l 494 240 l 272 240 l 200 -3 b 183 -7 199 -6 192 -7 m 519 324 l 594 575 l 369 575 l 294 324 "},"/":{"ha":446,"x_min":0,"x_max":0,"o":"m 71 -275 b 11 -222 40 -275 10 -267 b 19 -178 11 -211 14 -196 l 343 901 b 365 906 343 903 353 906 b 424 856 392 906 424 899 b 414 810 422 844 421 829 l 92 -271 b 71 -275 90 -272 81 -275 "},"\\":{"ha":446,"x_min":0,"x_max":0,"o":"m 375 -275 b 353 -271 364 -275 354 -272 l 29 810 b 22 857 24 829 22 844 b 79 906 22 899 51 906 b 101 901 92 906 101 903 l 425 -178 b 432 -222 429 -196 432 -211 b 375 -275 433 -267 403 -275 "},"(":{"ha":497,"x_min":0,"x_max":0,"o":"m 440 -272 b 240 -167 385 -272 308 -239 b 71 317 142 -64 71 106 b 242 797 71 522 146 697 b 440 904 311 871 385 904 b 485 865 469 904 485 892 b 469 829 485 850 475 831 b 172 318 288 788 172 569 b 469 -197 172 58 288 -156 b 485 -233 474 -199 485 -217 b 440 -272 485 -260 469 -272 "},")":{"ha":497,"x_min":0,"x_max":0,"o":"m 57 -272 b 11 -233 28 -272 11 -260 b 26 -197 11 -217 24 -199 b 324 318 210 -156 324 58 b 26 829 324 569 210 788 b 11 865 22 831 11 850 b 57 904 11 892 28 904 b 261 790 115 904 192 868 b 426 317 356 690 426 517 b 263 -160 426 110 357 -57 b 57 -272 192 -236 115 -272 "},"{":{"ha":561,"x_min":0,"x_max":0,"o":"m 490 -274 b 314 -182 440 -274 374 -244 b 183 179 247 -112 192 10 l 96 231 b 35 317 49 257 35 267 b 96 403 35 365 49 376 l 183 454 b 313 814 192 622 247 743 b 490 907 374 878 439 907 b 535 863 517 907 535 890 b 519 826 535 847 524 828 b 279 407 349 785 288 647 l 121 317 l 279 226 b 519 -194 288 -15 349 -153 b 535 -231 524 -196 535 -214 b 490 -274 535 -257 517 -274 "},"}":{"ha":561,"x_min":0,"x_max":0,"o":"m 71 -274 b 25 -231 42 -274 25 -257 b 40 -194 25 -214 36 -196 b 281 226 211 -153 274 -15 l 439 317 l 281 407 b 40 826 274 647 211 785 b 25 863 36 828 25 847 b 71 907 25 890 42 907 b 250 811 121 907 189 876 b 376 454 315 740 368 619 l 465 403 b 526 317 511 376 526 365 b 465 231 526 267 513 256 l 376 179 b 250 -178 368 13 315 -108 b 71 -274 189 -243 121 -274 "},"[":{"ha":457,"x_min":0,"x_max":0,"o":"m 164 -271 b 107 -210 129 -271 107 -246 l 107 840 b 164 901 107 876 129 901 l 376 901 b 425 861 413 901 425 888 l 425 854 b 376 814 425 826 413 814 l 201 814 l 201 -183 l 376 -183 b 425 -224 413 -183 425 -196 l 425 -231 b 376 -271 425 -257 413 -271 l 164 -271 "},"]":{"ha":457,"x_min":0,"x_max":0,"o":"m 81 -271 b 32 -231 46 -271 32 -257 l 32 -224 b 81 -183 32 -196 46 -183 l 257 -183 l 257 814 l 81 814 b 33 854 46 814 33 826 l 33 861 b 81 901 33 888 46 901 l 293 901 b 350 840 328 901 350 876 l 350 -210 b 293 -271 350 -246 328 -271 l 81 -271 "},"-":{"ha":504,"x_min":0,"x_max":0,"o":"m 57 347 b 103 389 57 375 72 389 l 400 389 b 447 347 432 389 447 375 l 447 336 b 400 296 447 310 432 296 l 103 296 b 57 336 72 296 57 310 "},"­":{"ha":504,"x_min":0,"x_max":0,"o":"m 103 296 b 57 336 72 296 57 310 l 57 347 b 103 389 57 375 72 389 l 400 389 b 447 347 432 389 447 375 l 447 336 b 400 296 447 310 432 296 l 103 296 "},"–":{"ha":703,"x_min":0,"x_max":0,"o":"m 57 347 b 103 388 57 372 69 388 l 599 388 b 644 347 633 388 644 372 l 644 339 b 599 299 644 313 633 299 l 103 299 b 57 338 69 299 57 313 "},"—":{"ha":926,"x_min":0,"x_max":0,"o":"m 57 347 b 103 388 57 372 69 388 l 822 388 b 869 347 857 388 869 372 l 869 339 b 822 299 869 313 857 299 l 103 299 b 57 338 69 299 57 313 "},"_":{"ha":629,"x_min":0,"x_max":0,"o":"m -46 -97 b 0 -56 -46 -71 -31 -56 l 631 -56 b 675 -97 660 -56 675 -71 l 675 -104 b 631 -144 675 -129 660 -144 l 0 -144 b -46 -104 -31 -144 -46 -129 "},"‚":{"ha":274,"x_min":0,"x_max":0,"o":"m 75 -175 b 24 -151 63 -196 14 -183 l 99 85 b 153 138 110 121 118 138 l 163 138 b 206 86 188 138 206 119 l 206 82 b 182 14 206 63 200 42 l 75 -175 "},"„":{"ha":488,"x_min":0,"x_max":0,"o":"m 74 -175 b 24 -151 63 -196 14 -183 l 99 85 b 151 138 108 121 117 138 l 161 138 b 204 86 186 138 204 119 l 204 82 b 182 14 204 63 199 42 l 74 -175 m 289 -175 b 238 -151 275 -196 228 -183 l 313 85 b 367 138 324 121 331 138 l 376 138 b 419 86 401 138 419 119 l 419 82 b 396 14 419 63 414 42 l 289 -175 "},"“":{"ha":492,"x_min":0,"x_max":0,"o":"m 99 590 b 56 642 75 590 56 608 l 56 647 b 79 714 56 665 63 688 l 186 904 b 238 881 199 924 247 913 l 163 643 b 110 590 153 608 143 590 l 99 590 m 313 590 b 268 642 288 590 268 608 l 268 647 b 293 714 268 665 275 688 l 399 904 b 450 881 413 924 460 913 l 376 643 b 322 590 365 608 357 590 l 313 590 "},"”":{"ha":492,"x_min":0,"x_max":0,"o":"m 92 600 b 40 625 81 582 32 593 l 117 861 b 169 914 126 897 135 914 l 181 914 b 222 863 206 914 222 896 l 222 857 b 199 790 222 839 217 817 l 92 600 m 307 600 b 254 625 294 582 246 593 l 331 861 b 383 914 342 897 349 914 l 394 914 b 436 863 418 914 436 896 l 436 857 b 414 790 436 839 431 818 l 307 600 "},"‘":{"ha":279,"x_min":0,"x_max":0,"o":"m 100 590 b 56 642 74 590 56 608 l 56 647 b 79 714 56 665 61 685 l 186 904 b 238 881 199 924 247 913 l 164 643 b 108 590 153 608 143 590 l 100 590 "},"’":{"ha":279,"x_min":0,"x_max":0,"o":"m 93 600 b 42 625 81 582 32 593 l 117 861 b 171 914 128 897 135 914 l 181 914 b 224 863 206 914 224 896 l 224 857 b 200 790 224 839 218 817 l 93 600 "},"‛":{"ha":279,"x_min":0,"x_max":0,"o":"m 79 797 b 56 864 61 826 56 847 l 56 869 b 100 921 56 903 74 921 l 108 921 b 164 868 143 921 153 903 l 238 631 b 186 607 247 599 199 589 "},"«":{"ha":685,"x_min":0,"x_max":0,"o":"m 582 107 b 436 207 546 107 482 163 b 325 338 369 272 325 328 b 435 467 325 347 368 401 b 582 568 485 514 546 568 l 585 568 b 621 532 604 568 621 553 l 621 529 b 522 421 621 507 589 474 b 408 336 488 393 447 364 b 524 251 449 308 488 282 b 621 144 589 199 621 167 l 621 142 b 585 107 621 121 606 107 l 582 107 m 296 126 b 163 217 263 126 204 178 b 57 338 99 278 57 329 b 163 458 57 346 97 397 b 296 549 207 500 264 549 l 299 549 b 331 517 317 549 331 535 l 331 514 b 244 417 331 494 303 465 b 138 336 211 389 175 363 b 247 254 176 310 213 283 b 331 161 306 206 331 179 l 331 160 b 299 126 331 142 318 126 l 296 126 "},"»":{"ha":685,"x_min":0,"x_max":0,"o":"m 104 568 b 250 468 140 568 204 513 b 361 338 317 403 361 347 b 250 208 361 328 319 272 b 103 107 201 161 140 107 l 101 107 b 65 143 81 107 65 122 l 65 146 b 164 254 65 168 96 201 b 278 339 199 282 239 311 b 163 424 236 367 199 394 b 65 531 96 476 65 508 l 65 533 b 101 568 65 554 81 568 l 104 568 m 389 549 b 524 458 422 549 482 499 b 628 338 588 397 628 346 b 524 217 628 328 589 278 b 390 126 479 175 422 126 l 388 126 b 354 158 369 126 354 140 l 354 161 b 442 258 354 181 382 210 b 547 339 475 286 511 313 b 438 421 510 365 472 392 b 354 514 379 468 354 496 l 354 515 b 388 549 354 533 368 549 l 389 549 "},"‹":{"ha":419,"x_min":0,"x_max":0,"o":"m 169 207 b 57 338 101 271 57 328 b 169 467 57 346 101 401 b 317 568 233 528 283 568 l 319 568 b 356 532 340 567 356 553 l 356 529 b 257 421 356 507 324 474 b 143 336 221 393 182 364 b 258 251 183 308 221 282 b 356 144 324 199 356 168 l 356 142 b 321 107 356 122 340 108 l 317 107 b 169 207 283 107 235 147 "},"›":{"ha":421,"x_min":0,"x_max":0,"o":"m 101 107 b 65 143 81 108 67 122 l 65 146 b 165 254 65 168 97 201 b 279 338 200 282 239 311 b 163 424 238 365 200 393 b 65 531 97 476 65 507 l 65 533 b 100 568 67 553 81 567 l 103 568 b 251 468 138 568 186 528 b 364 338 319 404 364 347 b 251 208 364 329 319 274 b 103 107 188 147 138 107 l 101 107 "},"\"":{"ha":494,"x_min":0,"x_max":0,"o":"m 135 546 b 110 581 118 546 113 557 l 85 833 b 142 904 79 886 99 904 b 200 833 186 904 206 886 l 175 581 b 150 546 172 557 167 546 l 135 546 m 343 546 b 318 581 326 546 321 557 l 293 833 b 351 904 288 886 307 904 b 408 833 394 904 414 886 l 383 581 b 358 546 381 557 375 546 l 343 546 "},"'":{"ha":285,"x_min":0,"x_max":0,"o":"m 135 546 b 110 581 118 546 113 557 l 85 833 b 142 904 79 886 99 904 b 200 833 186 904 206 886 l 175 581 b 150 546 172 557 167 546 l 135 546 "}," ":{"ha":694,"x_min":0,"x_max":0,"o":""}," ":{"ha":238,"x_min":0,"x_max":0,"o":""}," ":{"ha":238,"x_min":0,"x_max":0,"o":""}," ":{"ha":115,"x_min":0,"x_max":0,"o":""},"​":{"ha":0,"x_min":0,"x_max":0,"o":""},"\r":{"ha":238,"x_min":0,"x_max":0,"o":""},"€":{"ha":857,"x_min":0,"x_max":0,"o":"m 531 -15 b 182 307 343 -15 215 104 l 88 307 b 46 340 57 307 46 319 l 46 347 b 88 381 46 369 57 381 l 174 381 l 174 429 l 174 475 l 174 524 l 88 524 b 46 557 57 524 46 536 l 46 565 b 88 599 46 586 57 599 l 183 599 b 525 914 218 792 347 914 b 736 843 621 914 692 882 b 800 738 779 808 800 768 b 747 688 800 697 751 683 b 522 833 708 768 644 833 b 275 599 396 833 304 743 l 571 599 b 610 565 600 599 610 586 l 610 557 b 571 524 610 536 600 524 l 265 524 b 264 475 264 508 264 492 l 264 428 b 265 381 264 413 264 397 l 571 381 b 610 347 600 381 610 369 l 610 340 b 571 307 610 319 600 307 l 275 307 b 529 67 304 161 396 67 b 753 221 651 67 715 132 b 807 169 757 226 807 213 b 750 67 807 140 788 100 b 531 -15 703 21 628 -15 "},"¢":{"ha":725,"x_min":0,"x_max":0,"o":"m 685 217 b 635 125 685 193 668 158 b 438 43 594 85 526 47 l 438 -89 b 394 -136 438 -124 424 -136 l 389 -136 b 347 -89 363 -136 347 -122 l 347 44 b 57 390 171 67 57 194 b 347 739 57 578 179 715 l 347 867 b 389 914 347 900 363 914 l 396 914 b 438 867 424 914 438 901 l 438 740 b 624 665 521 733 583 703 b 675 579 657 636 675 601 b 617 526 675 536 621 519 b 428 657 578 607 515 650 l 428 126 b 624 267 521 133 589 178 b 685 217 628 272 685 263 m 157 390 b 354 129 157 249 236 149 l 354 656 b 157 390 231 636 157 535 "},"¤":{"ha":857,"x_min":0,"x_max":0,"o":"m 531 -15 b 182 307 343 -15 215 104 l 88 307 b 46 340 57 307 46 319 l 46 347 b 88 381 46 369 57 381 l 174 381 l 174 429 l 174 475 l 174 524 l 88 524 b 46 557 57 524 46 536 l 46 565 b 88 599 46 586 57 599 l 183 599 b 525 914 218 792 347 914 b 736 843 621 914 692 882 b 800 738 779 808 800 768 b 747 688 800 697 751 683 b 522 833 708 768 644 833 b 275 599 396 833 304 743 l 571 599 b 610 565 600 599 610 586 l 610 557 b 571 524 610 536 600 524 l 265 524 b 264 475 264 508 264 492 l 264 428 b 265 381 264 413 264 397 l 571 381 b 610 347 600 381 610 369 l 610 340 b 571 307 610 319 600 307 l 275 307 b 529 67 304 161 396 67 b 753 221 651 67 715 132 b 807 169 757 226 807 213 b 750 67 807 140 788 100 b 531 -15 703 21 628 -15 "},"$":{"ha":739,"x_min":0,"x_max":0,"o":"m 685 240 b 411 -10 685 103 572 4 l 411 -96 b 374 -139 411 -128 397 -139 l 365 -139 b 328 -96 340 -139 328 -129 l 328 -10 b 93 86 218 0 139 40 b 54 165 67 114 54 143 b 103 218 54 201 99 221 b 333 72 138 151 213 85 l 333 421 b 75 664 204 454 75 504 b 331 908 75 796 183 892 l 331 990 b 368 1033 331 1024 343 1033 l 376 1033 b 413 990 401 1033 413 1024 l 413 910 b 625 826 510 901 582 868 b 664 754 649 804 664 776 b 615 700 664 717 618 697 b 408 828 582 763 510 815 l 408 493 b 685 240 543 460 685 408 m 168 667 b 336 513 168 572 236 540 l 336 825 b 168 667 238 815 168 753 m 406 72 b 592 236 517 81 592 147 b 406 401 592 338 507 374 l 406 72 "},"ƒ":{"ha":539,"x_min":0,"x_max":0,"o":"m 117 -7 b 71 13 89 -7 69 7 l 161 513 l 76 513 b 33 551 44 513 33 526 l 33 560 b 76 597 33 583 44 597 l 176 597 l 192 690 b 406 914 219 839 294 914 b 511 882 451 914 489 900 b 538 833 528 868 538 851 b 503 779 538 800 504 776 b 408 825 485 804 450 825 b 288 674 343 825 307 781 l 274 597 l 429 597 b 474 560 461 597 474 585 l 474 550 b 429 513 474 526 461 513 l 261 513 l 181 71 b 117 -7 172 17 149 -7 "},"£":{"ha":778,"x_min":0,"x_max":0,"o":"m 76 0 b 28 42 44 0 28 14 l 28 50 b 74 92 28 76 43 92 l 146 92 l 194 364 b 89 365 160 364 124 365 b 49 403 63 365 49 378 l 49 413 b 92 451 49 439 64 451 l 208 451 l 244 644 b 513 915 275 819 357 915 b 685 853 590 915 647 889 b 736 736 719 819 736 774 b 669 682 736 678 674 678 b 514 828 654 772 601 828 b 340 635 408 828 364 767 l 307 451 l 535 451 b 578 413 563 451 578 439 l 578 403 b 535 364 578 378 563 364 l 292 364 l 243 92 l 674 92 b 722 49 707 92 722 76 l 722 42 b 674 0 722 14 707 0 l 76 0 "},"¥":{"ha":781,"x_min":0,"x_max":0,"o":"m 383 -6 b 342 43 354 -6 342 11 l 342 165 l 118 165 b 76 199 88 165 76 178 l 76 210 b 118 243 76 231 88 243 l 342 243 l 342 363 l 118 363 b 76 396 88 363 76 374 l 76 406 b 118 439 76 426 88 439 l 313 439 l 50 860 b 115 904 46 868 74 904 b 168 867 136 904 156 893 l 390 475 l 615 865 b 668 904 631 893 650 904 b 728 860 707 904 733 868 l 467 439 l 661 439 b 703 406 692 439 703 426 l 703 396 b 661 363 703 374 692 363 l 438 363 l 438 243 l 661 243 b 703 210 692 243 703 231 l 703 199 b 661 165 703 178 692 165 l 438 165 l 438 43 b 394 -6 438 11 425 -6 l 383 -6 "},"+":{"ha":725,"x_min":0,"x_max":0,"o":"m 358 47 b 318 93 335 47 318 60 l 318 326 l 103 326 b 57 365 69 326 57 342 l 57 372 b 103 411 57 397 69 411 l 318 411 l 318 631 b 358 676 318 664 335 676 l 367 676 b 407 631 390 676 407 664 l 407 411 l 622 411 b 668 372 656 411 668 397 l 668 365 b 622 326 668 342 656 326 l 407 326 l 407 93 b 367 47 407 60 390 47 l 358 47 "},"−":{"ha":819,"x_min":0,"x_max":0,"o":"m 157 324 b 113 364 125 324 113 339 l 113 372 b 157 413 113 397 125 413 l 660 413 b 706 372 694 413 706 397 l 706 364 b 660 324 706 339 694 324 l 157 324 "},"×":{"ha":725,"x_min":0,"x_max":0,"o":"m 128 126 b 131 188 111 142 107 164 l 306 367 l 131 544 b 128 606 107 568 111 589 l 133 611 b 194 606 149 628 169 632 l 365 426 l 535 606 b 597 611 560 632 581 628 l 603 606 b 599 544 619 589 622 568 l 424 367 l 599 188 b 603 126 622 164 618 142 l 596 121 b 535 125 581 104 560 100 l 365 306 l 194 125 b 133 121 169 100 149 104 "},"÷":{"ha":819,"x_min":0,"x_max":0,"o":"m 401 521 b 344 581 365 521 344 543 l 344 592 b 401 650 344 629 365 650 l 415 650 b 474 592 454 650 474 629 l 474 581 b 415 521 474 543 454 521 l 401 521 m 157 325 b 113 365 125 325 113 340 l 113 372 b 157 413 113 397 125 413 l 660 413 b 706 372 694 413 706 397 l 706 365 b 660 325 706 340 694 325 l 157 325 m 401 88 b 344 146 365 88 344 108 l 344 158 b 401 217 344 196 365 217 l 415 217 b 474 158 454 217 474 196 l 474 146 b 415 88 474 108 454 88 l 401 88 "},"=":{"ha":725,"x_min":0,"x_max":0,"o":"m 117 472 b 72 513 83 472 72 489 l 72 522 b 117 563 72 547 83 563 l 608 563 b 654 522 643 563 654 547 l 654 513 b 608 472 654 489 643 472 l 117 472 m 117 160 b 72 200 83 160 72 176 l 72 210 b 117 250 72 235 83 250 l 608 250 b 654 210 643 250 654 235 l 654 200 b 608 160 654 176 643 160 l 117 160 "},"≠":{"ha":821,"x_min":0,"x_max":0,"o":"m 217 -51 b 201 7 196 -44 188 -28 l 274 163 l 161 163 b 115 201 128 163 115 178 l 115 210 b 161 249 115 233 128 249 l 317 249 l 424 474 l 161 474 b 115 514 128 474 115 490 l 115 521 b 161 561 115 546 128 561 l 456 561 l 539 742 b 590 771 553 774 571 779 l 600 767 b 615 708 619 758 629 743 l 546 561 l 660 561 b 706 521 693 561 706 546 l 706 514 b 660 474 706 490 693 474 l 501 474 l 394 249 l 660 249 b 706 210 693 249 706 233 l 706 201 b 660 163 706 178 693 163 l 363 163 l 278 -26 b 226 -57 263 -60 246 -65 "},">":{"ha":639,"x_min":0,"x_max":0,"o":"m 101 63 b 69 111 96 61 71 81 b 122 179 68 133 79 156 l 478 368 l 122 558 b 69 626 79 582 67 606 b 101 675 71 656 97 676 l 544 429 b 575 368 564 418 575 406 b 544 308 575 331 564 319 l 101 63 "},"<":{"ha":640,"x_min":0,"x_max":0,"o":"m 93 308 b 64 368 75 319 64 331 b 93 429 64 406 75 418 l 536 675 b 569 626 542 676 567 654 b 515 560 571 606 560 582 l 161 368 l 515 179 b 569 111 560 156 571 133 b 536 63 567 81 543 61 "},"≥":{"ha":822,"x_min":0,"x_max":0,"o":"m 160 151 b 128 199 153 150 129 169 b 181 264 126 222 149 251 l 590 428 l 181 594 b 128 658 144 608 122 638 b 160 706 129 686 154 707 l 661 488 b 692 428 682 476 692 465 b 661 368 692 390 682 379 l 160 151 m 164 0 b 119 39 131 0 119 15 l 119 49 b 164 88 119 71 131 88 l 657 88 b 703 49 689 88 703 71 l 703 39 b 657 0 703 15 689 0 l 164 0 "},"≤":{"ha":822,"x_min":0,"x_max":0,"o":"m 160 369 b 131 429 140 381 131 392 b 160 488 131 467 140 478 l 661 706 b 693 660 667 707 692 686 b 640 594 699 638 676 610 l 231 429 l 640 265 b 693 200 676 250 694 224 b 661 153 692 169 667 150 m 165 0 b 119 39 131 0 119 15 l 119 49 b 165 86 119 71 131 86 l 657 86 b 703 49 690 86 703 71 l 703 39 b 657 0 703 15 690 0 l 165 0 "},"±":{"ha":819,"x_min":0,"x_max":0,"o":"m 406 182 b 365 228 381 182 365 194 l 365 424 l 178 424 b 133 463 146 424 133 439 l 133 471 b 178 510 133 494 146 510 l 365 510 l 365 697 b 406 743 365 731 381 743 l 413 743 b 453 697 438 743 453 731 l 453 510 l 640 510 b 685 471 674 510 685 494 l 685 463 b 640 424 685 439 674 424 l 453 424 l 453 228 b 413 182 453 194 438 182 l 406 182 m 161 0 b 115 39 128 0 115 15 l 115 49 b 161 88 115 72 128 88 l 657 88 b 703 49 690 88 703 72 l 703 39 b 657 0 703 15 690 0 l 161 0 "},"¬":{"ha":728,"x_min":0,"x_max":0,"o":"m 607 56 b 568 103 583 56 568 68 l 568 324 l 104 324 b 57 363 69 324 57 338 l 57 371 b 104 410 57 394 69 410 l 610 410 b 656 369 643 410 656 394 l 656 103 b 617 56 656 68 640 56 l 607 56 "},"~":{"ha":689,"x_min":0,"x_max":0,"o":"m 179 233 b 150 244 168 233 160 238 b 147 283 147 256 146 268 b 253 399 154 347 192 399 b 354 353 292 399 325 378 b 433 300 382 331 407 313 b 510 392 475 318 467 392 b 539 379 521 392 531 388 b 542 339 542 368 543 354 b 436 225 536 275 496 225 b 335 271 397 225 364 247 b 257 324 307 293 283 311 b 179 233 211 301 224 233 "},"^":{"ha":632,"x_min":0,"x_max":0,"o":"m 257 875 b 315 906 267 896 279 906 b 374 875 351 906 364 896 l 606 422 b 558 392 608 417 588 393 b 493 446 538 390 515 400 l 315 807 l 135 444 b 71 392 115 400 92 389 b 24 422 44 394 22 417 "},"µ":{"ha":757,"x_min":0,"x_max":0,"o":"m 624 668 b 668 619 650 668 668 657 l 668 6 b 632 -6 668 3 651 -6 b 578 56 608 -6 585 7 b 571 108 574 72 572 90 b 379 -15 535 40 476 -15 b 189 94 288 -15 221 32 l 189 -221 b 144 -268 189 -256 171 -268 l 135 -268 b 90 -221 108 -268 90 -256 l 90 619 b 133 668 90 656 107 668 l 144 668 b 189 619 171 668 189 657 l 189 267 b 379 75 189 149 265 75 b 568 210 474 75 535 128 l 568 619 b 613 668 568 656 586 668 l 624 668 "},"%":{"ha":986,"x_min":0,"x_max":0,"o":"m 156 -10 b 110 29 151 -15 108 -1 b 142 92 110 50 117 64 l 825 914 b 872 875 831 918 872 907 b 839 811 872 858 863 839 l 156 -10 m 253 489 b 49 694 136 489 49 578 l 49 704 b 254 911 49 821 138 911 b 457 707 371 911 457 822 l 457 696 b 253 489 457 581 368 489 m 254 558 b 376 692 325 558 376 615 l 376 708 b 253 843 376 786 324 843 b 129 708 182 843 129 786 l 129 692 b 254 558 129 615 182 558 m 733 -8 b 529 197 617 -8 529 82 l 529 208 b 735 415 529 324 618 415 b 938 211 851 415 938 325 l 938 199 b 733 -8 938 85 850 -8 m 735 63 b 857 196 806 63 857 118 l 857 213 b 733 346 857 289 804 346 b 611 213 661 346 611 290 l 611 196 b 735 63 611 119 663 63 "},"‰":{"ha":1458,"x_min":0,"x_max":0,"o":"m 156 -10 b 110 29 151 -15 108 -1 b 142 92 110 50 117 64 l 825 914 b 872 875 831 918 872 907 b 839 811 872 858 863 839 l 156 -10 m 253 489 b 49 694 136 489 49 578 l 49 704 b 254 911 49 821 138 911 b 457 707 371 911 457 822 l 457 696 b 253 489 457 581 368 489 m 254 558 b 376 692 325 558 376 615 l 376 708 b 253 843 376 786 324 843 b 129 708 182 843 129 786 l 129 692 b 254 558 129 615 182 558 m 733 -8 b 529 197 617 -8 529 82 l 529 208 b 735 415 529 324 618 415 b 938 211 851 415 938 325 l 938 199 b 733 -8 938 85 850 -8 m 1208 -8 b 1004 197 1092 -8 1004 82 l 1004 208 b 1210 415 1004 324 1093 415 b 1413 211 1326 415 1413 325 l 1413 199 b 1208 -8 1413 85 1324 -8 m 735 63 b 857 196 806 63 857 118 l 857 213 b 733 346 857 289 804 346 b 611 213 661 346 611 290 l 611 196 b 735 63 611 119 663 63 m 1210 63 b 1332 196 1281 63 1332 118 l 1332 213 b 1208 346 1332 289 1279 346 b 1085 213 1136 346 1085 290 l 1085 196 b 1210 63 1085 119 1138 63 "},"∙":{"ha":300,"x_min":0,"x_max":0,"o":"m 82 349 b 142 411 82 389 103 411 l 156 411 b 217 349 197 411 217 389 l 217 336 b 156 275 217 297 196 275 l 142 275 b 82 336 103 275 82 297 "},"◌":{"ha":825,"x_min":0,"x_max":0,"o":"m 378 653 b 413 686 378 675 389 686 b 446 653 435 686 446 675 b 413 618 446 629 435 618 b 378 653 389 618 378 629 m 261 628 b 294 663 261 651 272 663 b 329 628 318 663 329 651 b 294 594 329 606 318 594 b 261 628 272 594 261 606 m 496 628 b 532 663 496 651 508 663 b 564 628 553 663 564 651 b 532 594 564 606 553 594 b 496 628 508 594 496 606 m 161 560 b 194 596 161 583 172 596 b 229 561 218 596 229 585 b 194 528 229 539 218 528 b 161 560 172 528 161 539 m 597 561 b 632 596 597 585 608 596 b 665 561 654 596 665 585 b 632 528 665 539 654 528 b 597 561 608 528 597 539 m 93 461 b 128 494 93 483 104 494 b 161 461 150 494 161 483 b 129 426 161 438 150 426 b 93 461 106 426 93 438 m 664 461 b 699 494 664 483 675 494 b 732 461 721 494 732 483 b 697 426 732 438 721 426 b 664 461 675 426 664 438 m 69 343 b 104 376 69 365 81 376 b 138 343 126 376 138 365 b 104 310 138 321 126 310 b 69 343 81 310 69 321 m 689 343 b 724 376 689 365 700 376 b 756 343 744 376 756 365 b 724 310 756 321 744 310 b 689 343 700 310 689 321 m 93 225 b 128 260 93 249 104 260 b 161 225 150 260 161 249 b 128 192 161 203 150 192 b 93 225 104 192 93 203 m 664 225 b 697 260 664 249 675 260 b 732 225 721 260 732 249 b 697 192 732 203 721 192 b 664 225 675 192 664 203 m 161 124 b 194 158 161 147 172 158 b 229 124 218 158 229 147 b 194 90 229 101 218 90 b 161 124 172 90 161 101 m 597 124 b 632 158 597 147 608 158 b 665 124 654 158 665 147 b 632 90 665 101 654 90 b 597 124 608 90 597 101 m 261 57 b 294 92 261 81 272 92 b 329 60 318 92 329 81 b 294 25 329 36 318 25 b 261 57 272 25 261 36 m 496 57 b 532 92 496 81 508 92 b 564 57 553 92 564 81 b 532 25 564 36 553 25 b 496 57 508 25 496 36 m 378 35 b 413 68 378 57 389 68 b 446 35 435 68 446 57 b 413 0 446 11 435 0 b 378 35 389 0 378 11 "},"♥":{"ha":976,"x_min":0,"x_max":0,"o":"m 489 -12 b 58 442 338 111 58 218 l 58 451 b 267 675 58 579 143 675 l 272 675 b 489 483 404 675 467 576 b 706 675 510 576 572 675 l 710 675 b 918 451 833 675 918 579 l 918 442 b 489 -12 918 218 639 111 "},"✓":{"ha":803,"x_min":0,"x_max":0,"o":"m 51 631 b 97 663 56 644 71 663 b 171 603 124 663 144 643 l 363 296 l 776 1064 b 850 1136 800 1111 818 1136 b 875 1060 875 1136 901 1107 l 379 165 l 350 165 l 51 631 "},"✗":{"ha":551,"x_min":0,"x_max":0,"o":"m 140 179 b 74 240 104 142 38 203 l 217 386 l 75 529 b 136 593 36 567 103 629 l 276 446 l 413 593 b 478 529 447 628 514 567 l 335 386 l 476 240 b 413 179 514 204 446 142 l 276 325 "},"":{"ha":1058,"x_min":0,"x_max":0,"o":"m 54 285 b 54 365 14 301 14 349 l 240 443 l 165 631 b 222 689 149 672 182 706 l 410 613 l 489 800 b 571 800 506 840 553 840 l 649 613 l 835 689 b 894 631 876 706 910 672 l 818 443 l 1004 365 b 1004 285 1044 349 1044 301 l 818 206 l 894 18 b 835 -39 910 -24 876 -57 l 649 38 l 571 -150 b 489 -150 553 -192 506 -192 l 410 38 l 222 -39 b 165 18 182 -57 149 -24 l 240 206 m 422 119 b 460 104 438 125 453 117 l 529 -58 l 599 104 b 636 119 606 117 621 125 l 800 54 l 735 217 b 750 256 729 233 736 249 l 911 325 l 750 393 b 735 432 736 400 729 417 l 800 594 l 636 529 b 599 546 619 524 606 532 l 529 707 l 460 546 b 422 529 453 532 438 524 l 258 594 l 324 432 b 308 393 329 417 322 400 l 147 325 l 308 256 b 324 217 322 249 329 232 l 258 54 l 422 119 "},"@":{"ha":1008,"x_min":0,"x_max":0,"o":"m 63 449 b 513 914 63 722 249 914 b 953 499 782 914 953 749 b 758 231 953 329 883 231 b 618 332 683 231 631 271 b 471 232 593 271 542 232 b 290 440 367 232 290 319 b 474 649 290 564 367 649 b 611 571 536 649 586 614 b 619 608 613 586 615 599 b 663 644 624 633 642 644 b 693 633 681 644 693 636 l 693 414 b 776 293 693 335 718 293 b 889 497 854 293 889 378 b 513 854 889 711 746 854 b 125 449 283 854 125 686 b 524 44 125 213 288 44 b 753 113 617 44 700 75 b 793 128 765 121 776 128 b 828 88 814 128 831 94 b 524 -15 767 33 653 -15 b 63 449 247 -15 63 171 m 610 492 b 493 576 590 542 550 576 b 375 440 424 576 375 522 b 492 306 375 360 425 306 b 610 421 558 306 610 354 "},"&":{"ha":893,"x_min":0,"x_max":0,"o":"m 340 -15 b 33 247 158 -15 33 82 b 265 511 33 386 129 469 b 181 700 217 565 181 626 b 413 914 181 819 275 914 b 631 711 542 914 631 825 b 411 492 631 597 546 529 l 649 269 b 729 483 685 333 713 408 b 790 549 740 532 761 549 b 836 521 819 549 836 525 b 711 213 813 407 768 297 l 900 38 b 843 -6 904 32 889 -6 b 779 22 825 -6 806 -3 b 656 139 739 61 697 99 b 340 -15 574 43 467 -15 m 357 540 b 540 707 474 572 540 618 b 411 836 540 778 489 836 b 276 700 324 836 276 775 b 357 540 276 639 307 589 m 349 68 b 596 197 450 68 535 119 l 317 458 b 133 254 213 425 133 368 b 349 68 133 139 221 68 "},"¶":{"ha":815,"x_min":0,"x_max":0,"o":"m 628 864 b 665 904 628 890 642 904 l 676 904 b 714 864 701 904 714 890 l 714 35 b 676 -6 714 8 701 -6 l 665 -6 b 628 35 642 -6 628 8 m 471 411 l 358 411 b 44 653 156 411 44 492 b 353 901 44 814 149 901 l 506 901 b 554 851 535 901 554 881 l 554 35 b 519 -6 554 8 543 -6 l 508 -6 b 471 35 482 -6 471 11 "},"§":{"ha":707,"x_min":0,"x_max":0,"o":"m 343 -228 b 100 -154 225 -228 146 -194 b 46 -64 61 -122 46 -89 b 92 -8 46 -26 89 -6 b 342 -142 135 -87 215 -142 b 536 -18 463 -142 536 -94 b 322 124 536 76 450 93 b 50 339 193 154 50 192 b 208 517 50 426 110 489 b 76 692 132 547 76 594 b 357 914 76 824 197 914 b 582 842 468 914 539 881 b 628 763 613 815 628 783 b 581 707 628 725 585 703 b 361 828 538 776 468 828 b 175 704 258 828 175 781 b 390 560 175 618 261 589 b 658 346 518 528 658 490 b 506 167 658 258 599 196 b 636 -10 579 139 636 92 b 343 -228 636 -140 519 -228 m 413 196 b 567 332 501 207 567 268 b 347 475 567 424 467 449 l 299 488 b 140 353 206 475 140 414 b 365 207 140 258 244 233 l 413 196 "},"©":{"ha":1026,"x_min":0,"x_max":0,"o":"m 64 447 b 514 914 64 717 256 914 b 963 451 778 914 963 722 b 513 -15 963 182 771 -15 b 64 447 250 -15 64 176 m 896 450 b 513 854 896 683 735 854 b 131 449 286 854 131 689 b 515 46 131 215 290 46 b 896 450 740 46 896 211 m 285 447 b 524 696 285 590 388 696 b 678 640 597 696 651 668 b 706 583 697 621 706 600 b 658 540 706 550 663 536 b 524 622 636 589 590 622 b 368 449 436 622 368 549 b 528 275 368 346 435 275 b 664 363 601 275 643 315 b 713 319 667 367 713 354 b 679 256 713 306 703 282 b 525 200 651 226 597 200 b 285 447 383 200 285 303 "},"®":{"ha":1026,"x_min":0,"x_max":0,"o":"m 513 -15 b 64 447 250 -15 64 176 b 514 914 64 717 256 914 b 963 451 778 914 963 722 b 513 -15 963 182 771 -15 m 515 46 b 896 450 740 46 896 211 b 513 854 896 683 735 854 b 131 449 286 854 131 689 b 515 46 131 215 290 46 m 661 207 b 610 236 646 207 625 214 l 479 392 l 424 392 l 424 244 b 389 207 424 222 411 207 l 378 207 b 343 250 356 207 343 225 l 343 644 b 386 690 343 674 360 690 l 526 690 b 710 543 646 690 710 642 b 603 408 710 474 674 425 b 563 401 590 404 578 401 l 706 239 b 661 207 710 233 689 207 m 526 457 b 631 540 594 457 631 489 b 524 624 631 597 593 624 l 422 624 l 422 457 "}}}
